<svg width="1920" height="12356" viewBox="0 0 1920 12356" fill="none" xmlns="http://www.w3.org/2000/svg">
<g opacity="0.3">
<mask id="mask0_1_62" style="mask-type:alpha" maskUnits="userSpaceOnUse" x="-283" y="909" width="966" height="1072">
<path d="M-116.587 1826.37C72.5775 1954.39 434.995 2002.18 529.912 1972.23C624.85 1942.26 762.57 1829.72 624.731 1393.01C486.892 956.298 230.59 883.968 126.151 916.924C-362.737 1071.26 -372.813 1652.97 -116.587 1826.37Z" fill="black"/>
</mask>
<g mask="url(#mask0_1_62)">
<rect x="-490.938" y="1265.86" width="923.28" height="1139.02" transform="rotate(-31.1503 -490.938 1265.86)" fill="#FEF5ED"/>
</g>
</g>
<g opacity="0.3">
<mask id="mask1_1_62" style="mask-type:alpha" maskUnits="userSpaceOnUse" x="-283" y="7583" width="966" height="1072">
<path d="M-116.587 8499.97C72.5775 8627.99 434.995 8675.78 529.912 8645.83C624.85 8615.86 762.57 8503.32 624.731 8066.61C486.892 7629.89 230.59 7557.56 126.151 7590.52C-362.737 7744.86 -372.813 8326.56 -116.587 8499.97Z" fill="black"/>
</mask>
<g mask="url(#mask1_1_62)">
<rect x="-490.938" y="7939.46" width="923.28" height="1139.02" transform="rotate(-31.1503 -490.938 7939.46)" fill="#FEF5ED"/>
</g>
</g>
<mask id="mask2_1_62" style="mask-type:alpha" maskUnits="userSpaceOnUse" x="-212" y="-217" width="645" height="715">
<path d="M-100.361 394.227C25.7505 479.576 267.364 511.434 330.643 491.469C393.936 471.489 485.75 396.459 393.857 105.315C301.963 -185.829 131.093 -234.049 61.4668 -212.078C-264.462 -109.187 -271.179 278.621 -100.361 394.227Z" fill="black"/>
</mask>
<g mask="url(#mask2_1_62)">
<rect x="-349.93" y="20.5474" width="615.526" height="759.355" transform="rotate(-31.1503 -349.93 20.5474)" fill="#FEF5ED"/>
</g>
<mask id="mask3_1_62" style="mask-type:alpha" maskUnits="userSpaceOnUse" x="-212" y="6456" width="645" height="715">
<path d="M-100.361 7067.82C25.7505 7153.17 267.364 7185.03 330.643 7165.06C393.936 7145.08 485.75 7070.06 393.857 6778.91C301.963 6487.77 131.093 6439.55 61.4668 6461.52C-264.462 6564.41 -271.179 6952.22 -100.361 7067.82Z" fill="black"/>
</mask>
<g mask="url(#mask3_1_62)">
<rect x="-349.93" y="6694.14" width="615.526" height="759.355" transform="rotate(-31.1503 -349.93 6694.14)" fill="#FEF5ED" fill-opacity="0.7"/>
</g>
<mask id="mask4_1_62" style="mask-type:alpha" maskUnits="userSpaceOnUse" x="618" y="528" width="921" height="1119">
<path d="M1442.02 810.013C1284.83 644.287 941.189 519.639 842.051 528.462C742.888 537.302 584.179 617.577 624.822 1073.72C665.466 1529.86 900.202 1655.64 1009.29 1645.93C1519.93 1600.4 1654.93 1034.49 1442.02 810.013Z" fill="black"/>
</mask>
<g mask="url(#mask4_1_62)">
<rect opacity="0.3" x="1537" y="1437.95" width="923.28" height="1139.02" transform="rotate(161.275 1537 1437.95)" fill="#FEF5ED"/>
</g>
<mask id="mask5_1_62" style="mask-type:alpha" maskUnits="userSpaceOnUse" x="618" y="7201" width="921" height="1120">
<path d="M1442.02 7483.61C1284.83 7317.88 941.189 7193.24 842.051 7202.06C742.888 7210.9 584.179 7291.17 624.822 7747.31C665.466 8203.45 900.202 8329.24 1009.29 8319.53C1519.93 8274 1654.93 7708.09 1442.02 7483.61Z" fill="black"/>
</mask>
<g mask="url(#mask5_1_62)">
<rect opacity="0.3" x="1537" y="8111.54" width="923.28" height="1139.02" transform="rotate(161.275 1537 8111.54)" fill="#FEF5ED"/>
</g>
<g opacity="0.3">
<mask id="mask6_1_62" style="mask-type:alpha" maskUnits="userSpaceOnUse" x="834" y="1913" width="936" height="1105">
<path d="M1648.88 2146.7C1478.48 1994.59 1125.68 1898.87 1027.62 1915.89C929.53 1932.93 778.027 2026.09 856.369 2477.29C934.711 2928.48 1179.07 3034.36 1286.97 3015.63C1792.08 2927.9 1879.68 2352.74 1648.88 2146.7Z" fill="black"/>
</mask>
<g mask="url(#mask6_1_62)">
<rect x="1945.1" y="2752.15" width="923.28" height="1139.02" transform="rotate(156.517 1945.1 2752.15)" fill="#FEF5ED"/>
</g>
</g>
<g opacity="0.3">
<mask id="mask7_1_62" style="mask-type:alpha" maskUnits="userSpaceOnUse" x="834" y="8587" width="936" height="1105">
<path d="M1648.88 8820.3C1478.48 8668.18 1125.68 8572.47 1027.62 8589.49C929.53 8606.52 778.027 8699.68 856.369 9150.88C934.711 9602.08 1179.07 9707.96 1286.97 9689.23C1792.08 9601.5 1879.68 9026.34 1648.88 8820.3Z" fill="black"/>
</mask>
<g mask="url(#mask7_1_62)">
<rect x="1945.1" y="9425.74" width="923.28" height="1139.02" transform="rotate(156.517 1945.1 9425.74)" fill="#FEF5ED"/>
</g>
</g>
<g opacity="0.3">
<mask id="mask8_1_62" style="mask-type:alpha" maskUnits="userSpaceOnUse" x="962" y="2708" width="936" height="1105">
<path d="M1776.87 2941.54C1606.47 2789.43 1253.67 2693.72 1155.61 2710.73C1057.52 2727.77 906.014 2820.93 984.356 3272.13C1062.7 3723.33 1307.06 3829.2 1414.96 3810.48C1920.07 3722.75 2007.66 3147.58 1776.87 2941.54Z" fill="black"/>
</mask>
<g mask="url(#mask8_1_62)">
<rect x="2073.09" y="3546.99" width="923.28" height="1139.02" transform="rotate(156.517 2073.09 3546.99)" fill="#FEF5ED"/>
</g>
</g>
<g opacity="0.3">
<mask id="mask9_1_62" style="mask-type:alpha" maskUnits="userSpaceOnUse" x="962" y="9382" width="936" height="1105">
<path d="M1776.87 9615.14C1606.47 9463.02 1253.67 9367.31 1155.61 9384.33C1057.52 9401.36 906.014 9494.53 984.356 9945.72C1062.7 10396.9 1307.06 10502.8 1414.96 10484.1C1920.07 10396.3 2007.66 9821.18 1776.87 9615.14Z" fill="black"/>
</mask>
<g mask="url(#mask9_1_62)">
<rect x="2073.09" y="10220.6" width="923.28" height="1139.02" transform="rotate(156.517 2073.09 10220.6)" fill="#FEF5ED"/>
</g>
</g>
<g opacity="0.3">
<mask id="mask10_1_62" style="mask-type:alpha" maskUnits="userSpaceOnUse" x="627" y="3802" width="918" height="1138">
<path d="M664.32 4499.39C769.733 4702.03 1065.7 4916.58 1163.43 4935.43C1261.19 4954.27 1435.88 4920.85 1522.55 4471.18C1609.23 4021.51 1418.26 3835.89 1310.73 3815.16C807.316 3718.15 521.539 4224.92 664.32 4499.39Z" fill="black"/>
</mask>
<g mask="url(#mask10_1_62)">
<rect x="601.935" y="3828.26" width="923.28" height="1139.02" transform="rotate(-2.72312 601.935 3828.26)" fill="#FEF5ED"/>
</g>
</g>
<g opacity="0.3">
<mask id="mask11_1_62" style="mask-type:alpha" maskUnits="userSpaceOnUse" x="627" y="10476" width="918" height="1137">
<path d="M664.32 11173C769.733 11375.6 1065.7 11590.2 1163.43 11609C1261.19 11627.9 1435.88 11594.4 1522.55 11144.8C1609.23 10695.1 1418.26 10509.5 1310.73 10488.8C807.316 10391.7 521.539 10898.5 664.32 11173Z" fill="black"/>
</mask>
<g mask="url(#mask11_1_62)">
<rect x="601.935" y="10501.9" width="923.28" height="1139.02" transform="rotate(-2.72312 601.935 10501.9)" fill="#FEF5ED"/>
</g>
</g>
<g opacity="0.3">
<mask id="mask12_1_62" style="mask-type:alpha" maskUnits="userSpaceOnUse" x="-71" y="4342" width="942" height="1133">
<path d="M859.754 4892.27C800.175 4671.76 557.01 4398.81 465.583 4359.48C374.127 4320.14 196.335 4315.38 15.3866 4736.06C-165.562 5156.74 -18.7694 5378.95 81.8307 5422.23C552.794 5624.77 940.453 5190.95 859.754 4892.27Z" fill="black"/>
</mask>
<g mask="url(#mask12_1_62)">
<rect x="776.987" y="5561.19" width="923.28" height="1139.02" transform="rotate(-170.359 776.987 5561.19)" fill="#FEF5ED"/>
</g>
</g>
<g opacity="0.3">
<mask id="mask13_1_62" style="mask-type:alpha" maskUnits="userSpaceOnUse" x="-71" y="11016" width="942" height="1132">
<path d="M859.754 11565.9C800.175 11345.4 557.01 11072.4 465.583 11033.1C374.127 10993.7 196.335 10989 15.3866 11409.7C-165.562 11830.3 -18.7694 12052.5 81.8307 12095.8C552.794 12298.4 940.453 11864.5 859.754 11565.9Z" fill="black"/>
</mask>
<g mask="url(#mask13_1_62)">
<rect x="776.987" y="12234.8" width="923.28" height="1139.02" transform="rotate(-170.359 776.987 12234.8)" fill="#FEF5ED"/>
</g>
</g>
<g opacity="0.3">
<mask id="mask14_1_62" style="mask-type:alpha" maskUnits="userSpaceOnUse" x="977" y="4961" width="1027" height="1013">
<path d="M1740.24 5007.79C1526.31 4927.73 1162.8 4966.33 1077.56 5017.72C992.311 5069.13 884.848 5210.85 1121.32 5603.02C1357.79 5995.19 1623.91 6005.35 1717.7 5948.81C2156.72 5684.05 2030 5116.23 1740.24 5007.79Z" fill="black"/>
</mask>
<g mask="url(#mask14_1_62)">
<rect x="2235.67" y="5464.8" width="923.28" height="1139.02" transform="rotate(135.277 2235.67 5464.8)" fill="#FEF5ED"/>
</g>
</g>
<g opacity="0.3">
<mask id="mask15_1_62" style="mask-type:alpha" maskUnits="userSpaceOnUse" x="977" y="11635" width="1027" height="1013">
<path d="M1740.24 11681.4C1526.31 11601.3 1162.8 11639.9 1077.56 11691.3C992.311 11742.7 884.848 11884.4 1121.32 12276.6C1357.79 12668.8 1623.91 12678.9 1717.7 12622.4C2156.72 12357.6 2030 11789.8 1740.24 11681.4Z" fill="black"/>
</mask>
<g mask="url(#mask15_1_62)">
<rect x="2235.67" y="12138.4" width="923.28" height="1139.02" transform="rotate(135.277 2235.67 12138.4)" fill="#FEF5ED"/>
</g>
</g>
<g opacity="0.3">
<mask id="mask16_1_62" style="mask-type:alpha" maskUnits="userSpaceOnUse" x="435" y="5344" width="713" height="704">
<path d="M965.059 5376.59C816.6 5321.04 564.331 5347.82 505.177 5383.48C446.012 5419.16 371.435 5517.51 535.543 5789.67C699.65 6061.83 884.331 6068.88 949.418 6029.64C1254.09 5845.91 1166.15 5451.85 965.059 5376.59Z" fill="black"/>
</mask>
<g mask="url(#mask16_1_62)">
<rect x="1308.88" y="5693.75" width="640.736" height="790.456" transform="rotate(135.277 1308.88 5693.75)" fill="#FEF5ED"/>
</g>
</g>
<g opacity="0.3">
<mask id="mask17_1_62" style="mask-type:alpha" maskUnits="userSpaceOnUse" x="435" y="12018" width="713" height="703">
<path d="M965.059 12050.2C816.6 11994.6 564.331 12021.4 505.177 12057.1C446.012 12092.8 371.435 12191.1 535.543 12463.3C699.65 12735.4 884.331 12742.5 949.418 12703.2C1254.09 12519.5 1166.15 12125.4 965.059 12050.2Z" fill="black"/>
</mask>
<g mask="url(#mask17_1_62)">
<rect x="1308.88" y="12367.3" width="640.736" height="790.456" transform="rotate(135.277 1308.88 12367.3)" fill="#FEF5ED"/>
</g>
</g>
<g opacity="0.3">
<mask id="mask18_1_62" style="mask-type:alpha" maskUnits="userSpaceOnUse" x="-43" y="3140" width="1018" height="1021">
<path d="M920.521 3907.99C1005.55 3695.99 975.443 3331.67 926.061 3245.26C876.652 3158.83 737.479 3048.09 339.898 3275.34C-57.683 3502.6 -74.0536 3768.41 -19.7133 3863.49C234.724 4308.57 805.352 4195.14 920.521 3907.99Z" fill="black"/>
</mask>
<g mask="url(#mask18_1_62)">
<rect x="452.072" y="4392.62" width="923.28" height="1139.02" transform="rotate(-133.385 452.072 4392.62)" fill="#FEF5ED"/>
</g>
</g>
<g opacity="0.3">
<mask id="mask19_1_62" style="mask-type:alpha" maskUnits="userSpaceOnUse" x="-43" y="9814" width="1018" height="1021">
<path d="M920.521 10581.6C1005.55 10369.6 975.443 10005.3 926.061 9918.86C876.652 9832.42 737.479 9721.68 339.898 9948.94C-57.683 10176.2 -74.0536 10442 -19.7133 10537.1C234.724 10982.2 805.352 10868.7 920.521 10581.6Z" fill="black"/>
</mask>
<g mask="url(#mask19_1_62)">
<rect x="452.072" y="11066.2" width="923.28" height="1139.02" transform="rotate(-133.385 452.072 11066.2)" fill="#FEF5ED"/>
</g>
</g>
<g opacity="0.3">
<mask id="mask20_1_62" style="mask-type:alpha" maskUnits="userSpaceOnUse" x="1339" y="1228" width="649" height="635">
<path d="M1890.48 1786.59C1969.06 1673.83 2000.43 1435.45 1983.02 1368.21C1965.59 1300.95 1898.63 1195.57 1634.12 1238.86C1369.6 1282.15 1324.16 1446.38 1343.32 1520.36C1433.05 1866.7 1784.04 1939.32 1890.48 1786.59Z" fill="black"/>
</mask>
<g mask="url(#mask20_1_62)">
<rect x="1549.6" y="1974.97" width="650.268" height="657.825" transform="rotate(-115.771 1549.6 1974.97)" fill="#FEF5ED"/>
</g>
</g>
<g opacity="0.3">
<mask id="mask21_1_62" style="mask-type:alpha" maskUnits="userSpaceOnUse" x="1339" y="7902" width="649" height="635">
<path d="M1890.48 8460.19C1969.06 8347.43 2000.43 8109.05 1983.02 8041.81C1965.59 7974.55 1898.63 7869.17 1634.12 7912.46C1369.6 7955.75 1324.16 8119.97 1343.32 8193.96C1433.05 8540.3 1784.04 8612.92 1890.48 8460.19Z" fill="black"/>
</mask>
<g mask="url(#mask21_1_62)">
<rect x="1549.6" y="8648.56" width="650.268" height="657.825" transform="rotate(-115.771 1549.6 8648.56)" fill="#FEF5ED"/>
</g>
</g>
<g opacity="0.5">
<mask id="mask22_1_62" style="mask-type:alpha" maskUnits="userSpaceOnUse" x="1344" y="-27" width="657" height="658">
<path d="M1990.87 299.998C1943.25 171.071 1765.57 9.08721 1700.44 -15.0551C1635.29 -39.1961 1510.55 -44.4796 1394.89 197.32C1279.23 439.119 1388.02 570.265 1459.68 596.827C1795.17 721.139 2055.36 474.63 1990.87 299.998Z" fill="black"/>
</mask>
<g mask="url(#mask22_1_62)">
<rect x="1950.62" y="687.381" width="650.268" height="657.825" transform="rotate(-170.914 1950.62 687.381)" fill="#FEF5ED"/>
</g>
</g>
<g opacity="0.5">
<mask id="mask23_1_62" style="mask-type:alpha" maskUnits="userSpaceOnUse" x="1344" y="6647" width="657" height="658">
<path d="M1990.87 6973.59C1943.25 6844.67 1765.57 6682.68 1700.44 6658.54C1635.29 6634.4 1510.55 6629.12 1394.89 6870.91C1279.23 7112.71 1388.02 7243.86 1459.68 7270.42C1795.17 7394.73 2055.36 7148.23 1990.87 6973.59Z" fill="black"/>
</mask>
<g mask="url(#mask23_1_62)">
<rect x="1950.62" y="7360.98" width="650.268" height="657.825" transform="rotate(-170.914 1950.62 7360.98)" fill="#FEF5ED"/>
</g>
</g>
</svg>
