<svg width="343" height="242" viewBox="0 0 343 242" fill="none" xmlns="http://www.w3.org/2000/svg">
<g opacity="0.1">
<path opacity="0.35" d="M21.2076 19.0019C21.2076 19.0019 12.0377 20.6202 6.90249 15.945C1.76733 11.2698 2.40922 2.27905 2.40922 2.27905C2.40922 2.27905 11.5792 0.660712 16.7143 5.24601C21.8495 9.83131 21.2076 19.0019 21.2076 19.0019Z" stroke="#FF0000" stroke-width="4"/>
<path opacity="0.35" d="M13.7793 19C13.7793 19 22.9492 20.6183 28.0844 15.9431C33.2195 11.2679 32.4859 2.2771 32.4859 2.2771C32.4859 2.2771 23.316 0.658759 18.1808 5.24406C13.0457 9.82936 13.7793 19 13.7793 19Z" stroke="#FF0000" stroke-width="4"/>
</g>
<g opacity="0.1">
<path opacity="0.35" d="M65.2194 19C65.2194 19 56.0495 20.6183 50.9143 15.9431C45.7792 11.2679 46.4211 2.2771 46.4211 2.2771C46.4211 2.2771 55.591 0.658759 60.7262 5.24406C65.8613 9.82936 65.2194 19 65.2194 19Z" stroke="#FF0000" stroke-width="4"/>
<path opacity="0.35" d="M57.791 19C57.791 19 66.9609 20.6183 72.0961 15.9431C77.2313 11.2679 76.4977 2.2771 76.4977 2.2771C76.4977 2.2771 67.3277 0.658759 62.1926 5.24406C57.0574 9.82936 57.791 19 57.791 19Z" stroke="#FF0000" stroke-width="4"/>
</g>
<g opacity="0.1">
<path opacity="0.35" d="M109.234 19C109.234 19 100.064 20.6183 94.9292 15.9431C89.7941 11.2679 90.436 2.2771 90.436 2.2771C90.436 2.2771 99.6059 0.658759 104.741 5.24406C109.876 9.82936 109.234 19 109.234 19Z" stroke="#FF0000" stroke-width="4"/>
<path opacity="0.35" d="M101.807 19C101.807 19 110.977 20.6183 116.112 15.9431C121.247 11.2679 120.514 2.2771 120.514 2.2771C120.514 2.2771 111.344 0.658759 106.209 5.24406C101.073 9.82936 101.807 19 101.807 19Z" stroke="#FF0000" stroke-width="4"/>
</g>
<g opacity="0.1">
<path opacity="0.35" d="M153.248 19C153.248 19 144.078 20.6183 138.943 15.9431C133.807 11.2679 134.449 2.2771 134.449 2.2771C134.449 2.2771 143.619 0.658759 148.754 5.24406C153.89 9.82936 153.248 19 153.248 19Z" stroke="#FF0000" stroke-width="4"/>
<path opacity="0.35" d="M145.82 19C145.82 19 154.99 20.6183 160.125 15.9431C165.26 11.2679 164.527 2.2771 164.527 2.2771C164.527 2.2771 155.357 0.658759 150.221 5.24406C145.086 9.82936 145.82 19 145.82 19Z" stroke="#FF0000" stroke-width="4"/>
</g>
<g opacity="0.1">
<path opacity="0.35" d="M197.261 19C197.261 19 188.091 20.6183 182.956 15.9431C177.821 11.2679 178.463 2.2771 178.463 2.2771C178.463 2.2771 187.633 0.658759 192.768 5.24406C197.903 9.82936 197.261 19 197.261 19Z" stroke="#FF0000" stroke-width="4"/>
<path opacity="0.35" d="M189.834 19C189.834 19 199.004 20.6183 204.139 15.9431C209.274 11.2679 208.541 2.2771 208.541 2.2771C208.541 2.2771 199.371 0.658759 194.235 5.24406C189.1 9.82936 189.834 19 189.834 19Z" stroke="#FF0000" stroke-width="4"/>
</g>
<g opacity="0.1">
<path opacity="0.35" d="M241.275 19C241.275 19 232.105 20.6183 226.97 15.9431C221.835 11.2679 222.477 2.2771 222.477 2.2771C222.477 2.2771 231.647 0.658759 236.782 5.24406C241.917 9.82936 241.275 19 241.275 19Z" stroke="#FF0000" stroke-width="4"/>
<path opacity="0.35" d="M233.848 19C233.848 19 243.018 20.6183 248.153 15.9431C253.288 11.2679 252.554 2.2771 252.554 2.2771C252.554 2.2771 243.384 0.658759 238.249 5.24406C233.114 9.82936 233.848 19 233.848 19Z" stroke="#FF0000" stroke-width="4"/>
</g>
<g opacity="0.1">
<path opacity="0.35" d="M285.289 19C285.289 19 276.119 20.6183 270.984 15.9431C265.849 11.2679 266.491 2.2771 266.491 2.2771C266.491 2.2771 275.661 0.658759 280.796 5.24406C285.931 9.82936 285.289 19 285.289 19Z" stroke="#FF0000" stroke-width="4"/>
<path opacity="0.35" d="M277.861 19C277.861 19 287.031 20.6183 292.166 15.9431C297.301 11.2679 296.567 2.2771 296.567 2.2771C296.567 2.2771 287.398 0.658759 282.262 5.24406C277.127 9.82936 277.861 19 277.861 19Z" stroke="#FF0000" stroke-width="4"/>
</g>
<g opacity="0.1">
<path opacity="0.35" d="M329.302 19C329.302 19 320.132 20.6183 314.997 15.9431C309.862 11.2679 310.504 2.2771 310.504 2.2771C310.504 2.2771 319.674 0.658759 324.809 5.24406C329.944 9.82936 329.302 19 329.302 19Z" stroke="#FF0000" stroke-width="4"/>
<path opacity="0.35" d="M321.875 19C321.875 19 331.045 20.6183 336.18 15.9431C341.316 11.2679 340.582 2.2771 340.582 2.2771C340.582 2.2771 331.412 0.658759 326.277 5.24406C321.142 9.82936 321.875 19 321.875 19Z" stroke="#FF0000" stroke-width="4"/>
</g>
<g opacity="0.1">
<path opacity="0.35" d="M21.206 50.4677C21.206 50.4677 12.0361 52.0861 6.9009 47.4109C1.76574 42.7357 2.40763 33.7449 2.40763 33.7449C2.40763 33.7449 11.5776 32.1265 16.7127 36.7118C21.8479 41.2971 21.206 50.4677 21.206 50.4677Z" stroke="#FF0000" stroke-width="4"/>
<path opacity="0.35" d="M13.7793 50.4677C13.7793 50.4677 22.9492 52.0861 28.0844 47.4109C33.2195 42.7357 32.4859 33.7449 32.4859 33.7449C32.4859 33.7449 23.316 32.1265 18.1808 36.7118C13.0457 41.2971 13.7793 50.4677 13.7793 50.4677Z" stroke="#FF0000" stroke-width="4"/>
</g>
<g opacity="0.1">
<path opacity="0.35" d="M65.2194 50.4677C65.2194 50.4677 56.0495 52.0861 50.9143 47.4109C45.7792 42.7357 46.4211 33.7449 46.4211 33.7449C46.4211 33.7449 55.591 32.1265 60.7262 36.7118C65.8613 41.2971 65.2194 50.4677 65.2194 50.4677Z" stroke="#FF0000" stroke-width="4"/>
<path opacity="0.35" d="M57.7915 50.4677C57.7915 50.4677 66.9614 52.0861 72.0966 47.4109C77.2317 42.7357 76.4981 33.7449 76.4981 33.7449C76.4981 33.7449 67.3282 32.1265 62.193 36.7118C57.0579 41.2971 57.7915 50.4677 57.7915 50.4677Z" stroke="#FF0000" stroke-width="4"/>
</g>
<g opacity="0.1">
<path opacity="0.35" d="M109.234 50.4677C109.234 50.4677 100.064 52.0861 94.9292 47.4109C89.7941 42.7357 90.436 33.7449 90.436 33.7449C90.436 33.7449 99.6059 32.1265 104.741 36.7118C109.876 41.2971 109.234 50.4677 109.234 50.4677Z" stroke="#FF0000" stroke-width="4"/>
<path opacity="0.35" d="M101.807 50.4677C101.807 50.4677 110.977 52.0861 116.112 47.4109C121.247 42.7357 120.514 33.7449 120.514 33.7449C120.514 33.7449 111.344 32.1265 106.209 36.7118C101.073 41.2971 101.807 50.4677 101.807 50.4677Z" stroke="#FF0000" stroke-width="4"/>
</g>
<g opacity="0.1">
<path opacity="0.35" d="M153.248 50.4677C153.248 50.4677 144.078 52.0861 138.943 47.4109C133.807 42.7357 134.449 33.7449 134.449 33.7449C134.449 33.7449 143.619 32.1265 148.754 36.7118C153.89 41.2971 153.248 50.4677 153.248 50.4677Z" stroke="#FF0000" stroke-width="4"/>
<path opacity="0.35" d="M145.82 50.4677C145.82 50.4677 154.99 52.0861 160.125 47.4109C165.261 42.7357 164.527 33.7449 164.527 33.7449C164.527 33.7449 155.357 32.1265 150.222 36.7118C145.087 41.2971 145.82 50.4677 145.82 50.4677Z" stroke="#FF0000" stroke-width="4"/>
</g>
<g opacity="0.1">
<path opacity="0.35" d="M197.261 50.4677C197.261 50.4677 188.091 52.0861 182.956 47.4109C177.821 42.7357 178.463 33.7449 178.463 33.7449C178.463 33.7449 187.633 32.1265 192.768 36.7118C197.903 41.2971 197.261 50.4677 197.261 50.4677Z" stroke="#FF0000" stroke-width="4"/>
<path opacity="0.35" d="M189.834 50.4677C189.834 50.4677 199.004 52.0861 204.139 47.4109C209.274 42.7357 208.541 33.7449 208.541 33.7449C208.541 33.7449 199.371 32.1265 194.235 36.7118C189.1 41.2971 189.834 50.4677 189.834 50.4677Z" stroke="#FF0000" stroke-width="4"/>
</g>
<g opacity="0.1">
<path opacity="0.35" d="M241.275 50.4677C241.275 50.4677 232.105 52.0861 226.97 47.4109C221.835 42.7357 222.477 33.7449 222.477 33.7449C222.477 33.7449 231.647 32.1265 236.782 36.7118C241.917 41.2971 241.275 50.4677 241.275 50.4677Z" stroke="#FF0000" stroke-width="4"/>
<path opacity="0.35" d="M233.848 50.4677C233.848 50.4677 243.018 52.0861 248.153 47.4109C253.288 42.7357 252.554 33.7449 252.554 33.7449C252.554 33.7449 243.384 32.1265 238.249 36.7118C233.114 41.2971 233.848 50.4677 233.848 50.4677Z" stroke="#FF0000" stroke-width="4"/>
</g>
<g opacity="0.1">
<path opacity="0.35" d="M285.289 50.4677C285.289 50.4677 276.119 52.0861 270.984 47.4109C265.849 42.7357 266.491 33.7449 266.491 33.7449C266.491 33.7449 275.661 32.1265 280.796 36.7118C285.931 41.2971 285.289 50.4677 285.289 50.4677Z" stroke="#FF0000" stroke-width="4"/>
<path opacity="0.35" d="M277.861 50.4677C277.861 50.4677 287.031 52.0861 292.166 47.4109C297.301 42.7357 296.567 33.7449 296.567 33.7449C296.567 33.7449 287.398 32.1265 282.262 36.7118C277.127 41.2971 277.861 50.4677 277.861 50.4677Z" stroke="#FF0000" stroke-width="4"/>
</g>
<g opacity="0.1">
<path opacity="0.35" d="M329.302 50.4677C329.302 50.4677 320.132 52.0861 314.997 47.4109C309.862 42.7357 310.504 33.7449 310.504 33.7449C310.504 33.7449 319.674 32.1265 324.809 36.7118C329.944 41.2971 329.302 50.4677 329.302 50.4677Z" stroke="#FF0000" stroke-width="4"/>
<path opacity="0.35" d="M321.875 50.4677C321.875 50.4677 331.045 52.0861 336.18 47.4109C341.316 42.7357 340.582 33.7449 340.582 33.7449C340.582 33.7449 331.412 32.1265 326.277 36.7118C321.142 41.2971 321.875 50.4677 321.875 50.4677Z" stroke="#FF0000" stroke-width="4"/>
</g>
<g opacity="0.1">
<path opacity="0.35" d="M21.206 81.9306C21.206 81.9306 12.0361 83.549 6.9009 78.8738C1.76574 74.1985 2.40763 65.2078 2.40763 65.2078C2.40763 65.2078 11.5776 63.5894 16.7127 68.1747C21.8479 72.76 21.206 81.9306 21.206 81.9306Z" stroke="#FF0000" stroke-width="4"/>
<path opacity="0.35" d="M13.7788 81.9296C13.7788 81.9296 22.9487 83.548 28.0839 78.8728C33.219 74.1976 32.4854 65.2068 32.4854 65.2068C32.4854 65.2068 23.3155 63.5884 18.1804 68.1737C13.0452 72.759 13.7788 81.9296 13.7788 81.9296Z" stroke="#FF0000" stroke-width="4"/>
</g>
<g opacity="0.1">
<path opacity="0.35" d="M65.2194 81.9306C65.2194 81.9306 56.0495 83.549 50.9143 78.8738C45.7792 74.1985 46.4211 65.2078 46.4211 65.2078C46.4211 65.2078 55.591 63.5894 60.7262 68.1747C65.8613 72.76 65.2194 81.9306 65.2194 81.9306Z" stroke="#FF0000" stroke-width="4"/>
<path opacity="0.35" d="M57.791 81.9296C57.791 81.9296 66.9609 83.548 72.0961 78.8728C77.2313 74.1976 76.4977 65.2068 76.4977 65.2068C76.4977 65.2068 67.3277 63.5884 62.1926 68.1737C57.0574 72.759 57.791 81.9296 57.791 81.9296Z" stroke="#FF0000" stroke-width="4"/>
</g>
<g opacity="0.1">
<path opacity="0.35" d="M109.234 81.9306C109.234 81.9306 100.064 83.549 94.9292 78.8738C89.7941 74.1985 90.436 65.2078 90.436 65.2078C90.436 65.2078 99.6059 63.5894 104.741 68.1747C109.876 72.76 109.234 81.9306 109.234 81.9306Z" stroke="#FF0000" stroke-width="4"/>
<path opacity="0.35" d="M101.807 81.9296C101.807 81.9296 110.977 83.548 116.112 78.8728C121.247 74.1976 120.514 65.2068 120.514 65.2068C120.514 65.2068 111.344 63.5884 106.209 68.1737C101.073 72.759 101.807 81.9296 101.807 81.9296Z" stroke="#FF0000" stroke-width="4"/>
</g>
<g opacity="0.1">
<path opacity="0.35" d="M153.248 81.9306C153.248 81.9306 144.078 83.549 138.943 78.8738C133.807 74.1985 134.449 65.2078 134.449 65.2078C134.449 65.2078 143.619 63.5894 148.754 68.1747C153.89 72.76 153.248 81.9306 153.248 81.9306Z" stroke="#FF0000" stroke-width="4"/>
<path opacity="0.35" d="M145.82 81.9296C145.82 81.9296 154.99 83.548 160.125 78.8728C165.26 74.1976 164.527 65.2068 164.527 65.2068C164.527 65.2068 155.357 63.5884 150.221 68.1737C145.086 72.759 145.82 81.9296 145.82 81.9296Z" stroke="#FF0000" stroke-width="4"/>
</g>
<g opacity="0.1">
<path opacity="0.35" d="M197.261 81.9306C197.261 81.9306 188.091 83.549 182.956 78.8738C177.821 74.1985 178.463 65.2078 178.463 65.2078C178.463 65.2078 187.633 63.5894 192.768 68.1747C197.903 72.76 197.261 81.9306 197.261 81.9306Z" stroke="#FF0000" stroke-width="4"/>
<path opacity="0.35" d="M189.834 81.9296C189.834 81.9296 199.004 83.548 204.139 78.8728C209.274 74.1976 208.541 65.2068 208.541 65.2068C208.541 65.2068 199.371 63.5884 194.235 68.1737C189.1 72.759 189.834 81.9296 189.834 81.9296Z" stroke="#FF0000" stroke-width="4"/>
</g>
<g opacity="0.1">
<path opacity="0.35" d="M241.275 81.9306C241.275 81.9306 232.105 83.549 226.97 78.8738C221.835 74.1985 222.477 65.2078 222.477 65.2078C222.477 65.2078 231.647 63.5894 236.782 68.1747C241.917 72.76 241.275 81.9306 241.275 81.9306Z" stroke="#FF0000" stroke-width="4"/>
<path opacity="0.35" d="M233.848 81.9296C233.848 81.9296 243.018 83.548 248.153 78.8728C253.288 74.1976 252.554 65.2068 252.554 65.2068C252.554 65.2068 243.384 63.5884 238.249 68.1737C233.114 72.759 233.848 81.9296 233.848 81.9296Z" stroke="#FF0000" stroke-width="4"/>
</g>
<g opacity="0.1">
<path opacity="0.35" d="M285.289 81.9306C285.289 81.9306 276.119 83.549 270.984 78.8738C265.849 74.1985 266.491 65.2078 266.491 65.2078C266.491 65.2078 275.661 63.5894 280.796 68.1747C285.931 72.76 285.289 81.9306 285.289 81.9306Z" stroke="#FF0000" stroke-width="4"/>
<path opacity="0.35" d="M277.861 81.9296C277.861 81.9296 287.031 83.548 292.166 78.8728C297.301 74.1976 296.567 65.2068 296.567 65.2068C296.567 65.2068 287.398 63.5884 282.262 68.1737C277.127 72.759 277.861 81.9296 277.861 81.9296Z" stroke="#FF0000" stroke-width="4"/>
</g>
<g opacity="0.1">
<path opacity="0.35" d="M329.302 81.9306C329.302 81.9306 320.132 83.549 314.997 78.8738C309.862 74.1985 310.504 65.2078 310.504 65.2078C310.504 65.2078 319.674 63.5894 324.809 68.1747C329.944 72.76 329.302 81.9306 329.302 81.9306Z" stroke="#FF0000" stroke-width="4"/>
<path opacity="0.35" d="M321.875 81.9296C321.875 81.9296 331.045 83.548 336.18 78.8728C341.316 74.1976 340.582 65.2068 340.582 65.2068C340.582 65.2068 331.412 63.5884 326.277 68.1737C321.142 72.759 321.875 81.9296 321.875 81.9296Z" stroke="#FF0000" stroke-width="4"/>
</g>
<g opacity="0.1">
<path opacity="0.35" d="M21.206 113.401C21.206 113.401 12.0361 115.02 6.9009 110.344C1.76574 105.669 2.40763 96.6785 2.40763 96.6785C2.40763 96.6785 11.5776 95.0601 16.7127 99.6454C21.8479 104.231 21.206 113.401 21.206 113.401Z" stroke="#FF0000" stroke-width="4"/>
<path opacity="0.35" d="M13.7788 113.401C13.7788 113.401 22.9487 115.02 28.0839 110.344C33.219 105.669 32.4854 96.6785 32.4854 96.6785C32.4854 96.6785 23.3155 95.0601 18.1804 99.6454C13.0452 104.231 13.7788 113.401 13.7788 113.401Z" stroke="#FF0000" stroke-width="4"/>
</g>
<g opacity="0.1">
<path opacity="0.35" d="M65.2194 113.401C65.2194 113.401 56.0495 115.02 50.9143 110.344C45.7792 105.669 46.4211 96.6785 46.4211 96.6785C46.4211 96.6785 55.591 95.0601 60.7262 99.6454C65.8613 104.231 65.2194 113.401 65.2194 113.401Z" stroke="#FF0000" stroke-width="4"/>
<path opacity="0.35" d="M57.7915 113.401C57.7915 113.401 66.9614 115.02 72.0966 110.344C77.2317 105.669 76.4981 96.6785 76.4981 96.6785C76.4981 96.6785 67.3282 95.0601 62.193 99.6454C57.0579 104.231 57.7915 113.401 57.7915 113.401Z" stroke="#FF0000" stroke-width="4"/>
</g>
<g opacity="0.1">
<path opacity="0.35" d="M109.234 113.401C109.234 113.401 100.064 115.02 94.9292 110.344C89.7941 105.669 90.436 96.6785 90.436 96.6785C90.436 96.6785 99.6059 95.0601 104.741 99.6454C109.876 104.231 109.234 113.401 109.234 113.401Z" stroke="#FF0000" stroke-width="4"/>
<path opacity="0.35" d="M101.807 113.401C101.807 113.401 110.977 115.02 116.112 110.344C121.247 105.669 120.514 96.6785 120.514 96.6785C120.514 96.6785 111.344 95.0601 106.209 99.6454C101.073 104.231 101.807 113.401 101.807 113.401Z" stroke="#FF0000" stroke-width="4"/>
</g>
<g opacity="0.1">
<path opacity="0.35" d="M153.248 113.401C153.248 113.401 144.078 115.02 138.943 110.344C133.807 105.669 134.449 96.6785 134.449 96.6785C134.449 96.6785 143.619 95.0601 148.754 99.6454C153.89 104.231 153.248 113.401 153.248 113.401Z" stroke="#FF0000" stroke-width="4"/>
<path opacity="0.35" d="M145.82 113.401C145.82 113.401 154.99 115.02 160.125 110.344C165.26 105.669 164.527 96.6785 164.527 96.6785C164.527 96.6785 155.357 95.0601 150.221 99.6454C145.086 104.231 145.82 113.401 145.82 113.401Z" stroke="#FF0000" stroke-width="4"/>
</g>
<g opacity="0.1">
<path opacity="0.35" d="M197.261 113.401C197.261 113.401 188.091 115.02 182.956 110.344C177.821 105.669 178.463 96.6785 178.463 96.6785C178.463 96.6785 187.633 95.0601 192.768 99.6454C197.903 104.231 197.261 113.401 197.261 113.401Z" stroke="#FF0000" stroke-width="4"/>
<path opacity="0.35" d="M189.834 113.401C189.834 113.401 199.004 115.02 204.139 110.344C209.274 105.669 208.541 96.6785 208.541 96.6785C208.541 96.6785 199.371 95.0601 194.235 99.6454C189.1 104.231 189.834 113.401 189.834 113.401Z" stroke="#FF0000" stroke-width="4"/>
</g>
<g opacity="0.1">
<path opacity="0.35" d="M241.275 113.401C241.275 113.401 232.105 115.02 226.97 110.344C221.835 105.669 222.477 96.6785 222.477 96.6785C222.477 96.6785 231.647 95.0601 236.782 99.6454C241.917 104.231 241.275 113.401 241.275 113.401Z" stroke="#FF0000" stroke-width="4"/>
<path opacity="0.35" d="M233.848 113.401C233.848 113.401 243.018 115.02 248.153 110.344C253.288 105.669 252.554 96.6785 252.554 96.6785C252.554 96.6785 243.384 95.0601 238.249 99.6454C233.114 104.231 233.848 113.401 233.848 113.401Z" stroke="#FF0000" stroke-width="4"/>
</g>
<g opacity="0.1">
<path opacity="0.35" d="M285.289 113.401C285.289 113.401 276.119 115.02 270.984 110.344C265.849 105.669 266.491 96.6785 266.491 96.6785C266.491 96.6785 275.661 95.0601 280.796 99.6454C285.931 104.231 285.289 113.401 285.289 113.401Z" stroke="#FF0000" stroke-width="4"/>
<path opacity="0.35" d="M277.861 113.401C277.861 113.401 287.031 115.02 292.166 110.344C297.301 105.669 296.567 96.6785 296.567 96.6785C296.567 96.6785 287.398 95.0601 282.262 99.6454C277.127 104.231 277.861 113.401 277.861 113.401Z" stroke="#FF0000" stroke-width="4"/>
</g>
<g opacity="0.1">
<path opacity="0.35" d="M329.302 113.401C329.302 113.401 320.132 115.02 314.997 110.344C309.862 105.669 310.504 96.6785 310.504 96.6785C310.504 96.6785 319.674 95.0601 324.809 99.6454C329.944 104.231 329.302 113.401 329.302 113.401Z" stroke="#FF0000" stroke-width="4"/>
<path opacity="0.35" d="M321.875 113.401C321.875 113.401 331.045 115.02 336.18 110.344C341.315 105.669 340.582 96.6785 340.582 96.6785C340.582 96.6785 331.412 95.0601 326.277 99.6454C321.141 104.231 321.875 113.401 321.875 113.401Z" stroke="#FF0000" stroke-width="4"/>
</g>
<g opacity="0.1">
<path opacity="0.35" d="M21.206 144.864C21.206 144.864 12.0361 146.483 6.9009 141.807C1.76574 137.132 2.40763 128.141 2.40763 128.141C2.40763 128.141 11.5776 126.523 16.7127 131.108C21.8479 135.694 21.206 144.864 21.206 144.864Z" stroke="#FF0000" stroke-width="4"/>
<path opacity="0.35" d="M13.7788 144.864C13.7788 144.864 22.9487 146.483 28.0839 141.807C33.219 137.132 32.4854 128.141 32.4854 128.141C32.4854 128.141 23.3155 126.523 18.1804 131.108C13.0452 135.694 13.7788 144.864 13.7788 144.864Z" stroke="#FF0000" stroke-width="4"/>
</g>
<g opacity="0.1">
<path opacity="0.35" d="M65.2194 144.864C65.2194 144.864 56.0495 146.483 50.9143 141.807C45.7792 137.132 46.4211 128.141 46.4211 128.141C46.4211 128.141 55.591 126.523 60.7262 131.108C65.8613 135.694 65.2194 144.864 65.2194 144.864Z" stroke="#FF0000" stroke-width="4"/>
<path opacity="0.35" d="M57.791 144.864C57.791 144.864 66.9609 146.483 72.0961 141.807C77.2313 137.132 76.4977 128.141 76.4977 128.141C76.4977 128.141 67.3277 126.523 62.1926 131.108C57.0574 135.694 57.791 144.864 57.791 144.864Z" stroke="#FF0000" stroke-width="4"/>
</g>
<g opacity="0.1">
<path opacity="0.35" d="M109.234 144.864C109.234 144.864 100.064 146.483 94.9292 141.807C89.7941 137.132 90.436 128.141 90.436 128.141C90.436 128.141 99.6059 126.523 104.741 131.108C109.876 135.694 109.234 144.864 109.234 144.864Z" stroke="#FF0000" stroke-width="4"/>
<path opacity="0.35" d="M101.807 144.864C101.807 144.864 110.977 146.483 116.112 141.807C121.247 137.132 120.514 128.141 120.514 128.141C120.514 128.141 111.344 126.523 106.209 131.108C101.073 135.694 101.807 144.864 101.807 144.864Z" stroke="#FF0000" stroke-width="4"/>
</g>
<g opacity="0.1">
<path opacity="0.35" d="M153.248 144.864C153.248 144.864 144.078 146.483 138.943 141.807C133.807 137.132 134.449 128.141 134.449 128.141C134.449 128.141 143.619 126.523 148.754 131.108C153.89 135.694 153.248 144.864 153.248 144.864Z" stroke="#FF0000" stroke-width="4"/>
<path opacity="0.35" d="M145.82 144.864C145.82 144.864 154.99 146.483 160.125 141.807C165.26 137.132 164.527 128.141 164.527 128.141C164.527 128.141 155.357 126.523 150.221 131.108C145.086 135.694 145.82 144.864 145.82 144.864Z" stroke="#FF0000" stroke-width="4"/>
</g>
<g opacity="0.1">
<path opacity="0.35" d="M197.261 144.864C197.261 144.864 188.091 146.483 182.956 141.807C177.821 137.132 178.463 128.141 178.463 128.141C178.463 128.141 187.633 126.523 192.768 131.108C197.903 135.694 197.261 144.864 197.261 144.864Z" stroke="#FF0000" stroke-width="4"/>
<path opacity="0.35" d="M189.834 144.864C189.834 144.864 199.004 146.483 204.139 141.807C209.274 137.132 208.541 128.141 208.541 128.141C208.541 128.141 199.371 126.523 194.235 131.108C189.1 135.694 189.834 144.864 189.834 144.864Z" stroke="#FF0000" stroke-width="4"/>
</g>
<g opacity="0.1">
<path opacity="0.35" d="M241.275 144.864C241.275 144.864 232.105 146.483 226.97 141.807C221.835 137.132 222.477 128.141 222.477 128.141C222.477 128.141 231.647 126.523 236.782 131.108C241.917 135.694 241.275 144.864 241.275 144.864Z" stroke="#FF0000" stroke-width="4"/>
<path opacity="0.35" d="M233.848 144.864C233.848 144.864 243.018 146.483 248.153 141.807C253.288 137.132 252.554 128.141 252.554 128.141C252.554 128.141 243.384 126.523 238.249 131.108C233.114 135.694 233.848 144.864 233.848 144.864Z" stroke="#FF0000" stroke-width="4"/>
</g>
<g opacity="0.1">
<path opacity="0.35" d="M285.289 144.864C285.289 144.864 276.119 146.483 270.984 141.807C265.849 137.132 266.491 128.141 266.491 128.141C266.491 128.141 275.661 126.523 280.796 131.108C285.931 135.694 285.289 144.864 285.289 144.864Z" stroke="#FF0000" stroke-width="4"/>
<path opacity="0.35" d="M277.861 144.864C277.861 144.864 287.031 146.483 292.166 141.807C297.301 137.132 296.567 128.141 296.567 128.141C296.567 128.141 287.398 126.523 282.262 131.108C277.127 135.694 277.861 144.864 277.861 144.864Z" stroke="#FF0000" stroke-width="4"/>
</g>
<g opacity="0.1">
<path opacity="0.35" d="M329.302 144.864C329.302 144.864 320.132 146.483 314.997 141.807C309.862 137.132 310.504 128.141 310.504 128.141C310.504 128.141 319.674 126.523 324.809 131.108C329.944 135.694 329.302 144.864 329.302 144.864Z" stroke="#FF0000" stroke-width="4"/>
<path opacity="0.35" d="M321.875 144.864C321.875 144.864 331.045 146.483 336.18 141.807C341.316 137.132 340.582 128.141 340.582 128.141C340.582 128.141 331.412 126.523 326.277 131.108C321.142 135.694 321.875 144.864 321.875 144.864Z" stroke="#FF0000" stroke-width="4"/>
</g>
<g opacity="0.1">
<path opacity="0.35" d="M21.206 176.332C21.206 176.332 12.0361 177.95 6.9009 173.275C1.76574 168.6 2.40763 159.609 2.40763 159.609C2.40763 159.609 11.5776 157.991 16.7127 162.576C21.8479 167.161 21.206 176.332 21.206 176.332Z" stroke="#FF0000" stroke-width="4"/>
<path opacity="0.35" d="M13.7788 176.332C13.7788 176.332 22.9487 177.95 28.0839 173.275C33.219 168.6 32.4854 159.609 32.4854 159.609C32.4854 159.609 23.3155 157.991 18.1804 162.576C13.0452 167.161 13.7788 176.332 13.7788 176.332Z" stroke="#FF0000" stroke-width="4"/>
</g>
<g opacity="0.1">
<path opacity="0.35" d="M65.2194 176.332C65.2194 176.332 56.0495 177.95 50.9143 173.275C45.7792 168.6 46.4211 159.609 46.4211 159.609C46.4211 159.609 55.591 157.991 60.7262 162.576C65.8613 167.161 65.2194 176.332 65.2194 176.332Z" stroke="#FF0000" stroke-width="4"/>
<path opacity="0.35" d="M57.791 176.332C57.791 176.332 66.9609 177.95 72.0961 173.275C77.2313 168.6 76.4977 159.609 76.4977 159.609C76.4977 159.609 67.3277 157.991 62.1926 162.576C57.0574 167.161 57.791 176.332 57.791 176.332Z" stroke="#FF0000" stroke-width="4"/>
</g>
<g opacity="0.1">
<path opacity="0.35" d="M109.234 176.332C109.234 176.332 100.064 177.95 94.9292 173.275C89.7941 168.6 90.436 159.609 90.436 159.609C90.436 159.609 99.6059 157.991 104.741 162.576C109.876 167.161 109.234 176.332 109.234 176.332Z" stroke="#FF0000" stroke-width="4"/>
<path opacity="0.35" d="M101.807 176.332C101.807 176.332 110.977 177.95 116.112 173.275C121.247 168.6 120.514 159.609 120.514 159.609C120.514 159.609 111.344 157.991 106.209 162.576C101.073 167.161 101.807 176.332 101.807 176.332Z" stroke="#FF0000" stroke-width="4"/>
</g>
<g opacity="0.1">
<path opacity="0.35" d="M153.248 176.332C153.248 176.332 144.078 177.95 138.943 173.275C133.807 168.6 134.449 159.609 134.449 159.609C134.449 159.609 143.619 157.991 148.754 162.576C153.89 167.161 153.248 176.332 153.248 176.332Z" stroke="#FF0000" stroke-width="4"/>
<path opacity="0.35" d="M145.82 176.332C145.82 176.332 154.99 177.95 160.125 173.275C165.26 168.6 164.527 159.609 164.527 159.609C164.527 159.609 155.357 157.991 150.221 162.576C145.086 167.161 145.82 176.332 145.82 176.332Z" stroke="#FF0000" stroke-width="4"/>
</g>
<g opacity="0.1">
<path opacity="0.35" d="M197.261 176.332C197.261 176.332 188.091 177.95 182.956 173.275C177.821 168.6 178.463 159.609 178.463 159.609C178.463 159.609 187.633 157.991 192.768 162.576C197.903 167.161 197.261 176.332 197.261 176.332Z" stroke="#FF0000" stroke-width="4"/>
<path opacity="0.35" d="M189.834 176.332C189.834 176.332 199.004 177.95 204.139 173.275C209.274 168.6 208.541 159.609 208.541 159.609C208.541 159.609 199.371 157.991 194.235 162.576C189.1 167.161 189.834 176.332 189.834 176.332Z" stroke="#FF0000" stroke-width="4"/>
</g>
<g opacity="0.1">
<path opacity="0.35" d="M241.275 176.332C241.275 176.332 232.105 177.95 226.97 173.275C221.835 168.6 222.477 159.609 222.477 159.609C222.477 159.609 231.647 157.991 236.782 162.576C241.917 167.161 241.275 176.332 241.275 176.332Z" stroke="#FF0000" stroke-width="4"/>
<path opacity="0.35" d="M233.848 176.332C233.848 176.332 243.018 177.95 248.153 173.275C253.288 168.6 252.554 159.609 252.554 159.609C252.554 159.609 243.384 157.991 238.249 162.576C233.114 167.161 233.848 176.332 233.848 176.332Z" stroke="#FF0000" stroke-width="4"/>
</g>
<g opacity="0.1">
<path opacity="0.35" d="M285.289 176.332C285.289 176.332 276.119 177.95 270.984 173.275C265.849 168.6 266.491 159.609 266.491 159.609C266.491 159.609 275.661 157.991 280.796 162.576C285.931 167.161 285.289 176.332 285.289 176.332Z" stroke="#FF0000" stroke-width="4"/>
<path opacity="0.35" d="M277.861 176.332C277.861 176.332 287.031 177.95 292.166 173.275C297.301 168.6 296.567 159.609 296.567 159.609C296.567 159.609 287.398 157.991 282.262 162.576C277.127 167.161 277.861 176.332 277.861 176.332Z" stroke="#FF0000" stroke-width="4"/>
</g>
<g opacity="0.1">
<path opacity="0.35" d="M329.302 176.332C329.302 176.332 320.132 177.95 314.997 173.275C309.862 168.6 310.504 159.609 310.504 159.609C310.504 159.609 319.674 157.991 324.809 162.576C329.944 167.161 329.302 176.332 329.302 176.332Z" stroke="#FF0000" stroke-width="4"/>
<path opacity="0.35" d="M321.875 176.332C321.875 176.332 331.045 177.95 336.18 173.275C341.316 168.6 340.582 159.609 340.582 159.609C340.582 159.609 331.412 157.991 326.277 162.576C321.142 167.161 321.875 176.332 321.875 176.332Z" stroke="#FF0000" stroke-width="4"/>
</g>
<g opacity="0.1">
<path opacity="0.35" d="M21.206 207.795C21.206 207.795 12.0361 209.413 6.9009 204.738C1.76574 200.063 2.40763 191.072 2.40763 191.072C2.40763 191.072 11.5776 189.454 16.7127 194.039C21.8479 198.624 21.206 207.795 21.206 207.795Z" stroke="#FF0000" stroke-width="4"/>
<path opacity="0.35" d="M13.7788 207.795C13.7788 207.795 22.9487 209.413 28.0839 204.738C33.219 200.063 32.4854 191.072 32.4854 191.072C32.4854 191.072 23.3155 189.454 18.1804 194.039C13.0452 198.624 13.7788 207.795 13.7788 207.795Z" stroke="#FF0000" stroke-width="4"/>
</g>
<g opacity="0.1">
<path opacity="0.35" d="M65.2194 207.795C65.2194 207.795 56.0495 209.413 50.9143 204.738C45.7792 200.063 46.4211 191.072 46.4211 191.072C46.4211 191.072 55.591 189.454 60.7262 194.039C65.8613 198.624 65.2194 207.795 65.2194 207.795Z" stroke="#FF0000" stroke-width="4"/>
<path opacity="0.35" d="M57.7915 207.795C57.7915 207.795 66.9614 209.413 72.0966 204.738C77.2317 200.063 76.4981 191.072 76.4981 191.072C76.4981 191.072 67.3282 189.454 62.193 194.039C57.0579 198.624 57.7915 207.795 57.7915 207.795Z" stroke="#FF0000" stroke-width="4"/>
</g>
<g opacity="0.1">
<path opacity="0.35" d="M109.234 207.795C109.234 207.795 100.064 209.413 94.9292 204.738C89.7941 200.063 90.436 191.072 90.436 191.072C90.436 191.072 99.6059 189.454 104.741 194.039C109.876 198.624 109.234 207.795 109.234 207.795Z" stroke="#FF0000" stroke-width="4"/>
<path opacity="0.35" d="M101.807 207.795C101.807 207.795 110.977 209.413 116.113 204.738C121.248 200.063 120.514 191.072 120.514 191.072C120.514 191.072 111.344 189.454 106.209 194.039C101.074 198.624 101.807 207.795 101.807 207.795Z" stroke="#FF0000" stroke-width="4"/>
</g>
<g opacity="0.1">
<path opacity="0.35" d="M153.248 207.795C153.248 207.795 144.078 209.413 138.943 204.738C133.807 200.063 134.449 191.072 134.449 191.072C134.449 191.072 143.619 189.454 148.754 194.039C153.89 198.624 153.248 207.795 153.248 207.795Z" stroke="#FF0000" stroke-width="4"/>
<path opacity="0.35" d="M145.82 207.795C145.82 207.795 154.99 209.413 160.125 204.738C165.261 200.063 164.527 191.072 164.527 191.072C164.527 191.072 155.357 189.454 150.222 194.039C145.087 198.624 145.82 207.795 145.82 207.795Z" stroke="#FF0000" stroke-width="4"/>
</g>
<g opacity="0.1">
<path opacity="0.35" d="M197.26 207.795C197.26 207.795 188.09 209.413 182.955 204.738C177.82 200.063 178.462 191.072 178.462 191.072C178.462 191.072 187.632 189.454 192.767 194.039C197.902 198.624 197.26 207.795 197.26 207.795Z" stroke="#FF0000" stroke-width="4"/>
<path opacity="0.35" d="M189.833 207.795C189.833 207.795 199.003 209.413 204.138 204.738C209.273 200.063 208.54 191.072 208.54 191.072C208.54 191.072 199.37 189.454 194.235 194.039C189.1 198.624 189.833 207.795 189.833 207.795Z" stroke="#FF0000" stroke-width="4"/>
</g>
<g opacity="0.1">
<path opacity="0.35" d="M241.275 207.795C241.275 207.795 232.105 209.413 226.97 204.738C221.835 200.063 222.477 191.072 222.477 191.072C222.477 191.072 231.647 189.454 236.782 194.039C241.917 198.624 241.275 207.795 241.275 207.795Z" stroke="#FF0000" stroke-width="4"/>
<path opacity="0.35" d="M233.848 207.795C233.848 207.795 243.018 209.413 248.153 204.738C253.288 200.063 252.554 191.072 252.554 191.072C252.554 191.072 243.384 189.454 238.249 194.039C233.114 198.624 233.848 207.795 233.848 207.795Z" stroke="#FF0000" stroke-width="4"/>
</g>
<g opacity="0.1">
<path opacity="0.35" d="M285.289 207.795C285.289 207.795 276.119 209.413 270.984 204.738C265.849 200.063 266.491 191.072 266.491 191.072C266.491 191.072 275.661 189.454 280.796 194.039C285.931 198.624 285.289 207.795 285.289 207.795Z" stroke="#FF0000" stroke-width="4"/>
<path opacity="0.35" d="M277.861 207.795C277.861 207.795 287.031 209.413 292.166 204.738C297.301 200.063 296.567 191.072 296.567 191.072C296.567 191.072 287.398 189.454 282.262 194.039C277.127 198.624 277.861 207.795 277.861 207.795Z" stroke="#FF0000" stroke-width="4"/>
</g>
<g opacity="0.1">
<path opacity="0.35" d="M329.302 207.795C329.302 207.795 320.132 209.413 314.997 204.738C309.862 200.063 310.504 191.072 310.504 191.072C310.504 191.072 319.674 189.454 324.809 194.039C329.944 198.624 329.302 207.795 329.302 207.795Z" stroke="#FF0000" stroke-width="4"/>
<path opacity="0.35" d="M321.875 207.795C321.875 207.795 331.045 209.413 336.18 204.738C341.316 200.063 340.582 191.072 340.582 191.072C340.582 191.072 331.412 189.454 326.277 194.039C321.142 198.624 321.875 207.795 321.875 207.795Z" stroke="#FF0000" stroke-width="4"/>
</g>
<g opacity="0.1">
<path opacity="0.35" d="M21.206 239.266C21.206 239.266 12.0361 240.884 6.9009 236.209C1.76574 231.534 2.40763 222.543 2.40763 222.543C2.40763 222.543 11.5776 220.924 16.7127 225.51C21.8479 230.095 21.206 239.266 21.206 239.266Z" stroke="#FF0000" stroke-width="4"/>
<path opacity="0.35" d="M13.7788 239.265C13.7788 239.265 22.9487 240.883 28.0839 236.208C33.219 231.533 32.4854 222.542 32.4854 222.542C32.4854 222.542 23.3155 220.923 18.1804 225.509C13.0452 230.094 13.7788 239.265 13.7788 239.265Z" stroke="#FF0000" stroke-width="4"/>
</g>
<g opacity="0.1">
<path opacity="0.35" d="M65.2194 239.266C65.2194 239.266 56.0495 240.884 50.9143 236.209C45.7792 231.534 46.4211 222.543 46.4211 222.543C46.4211 222.543 55.591 220.924 60.7262 225.51C65.8613 230.095 65.2194 239.266 65.2194 239.266Z" stroke="#FF0000" stroke-width="4"/>
<path opacity="0.35" d="M57.7915 239.265C57.7915 239.265 66.9614 240.883 72.0966 236.208C77.2317 231.533 76.4981 222.542 76.4981 222.542C76.4981 222.542 67.3282 220.923 62.193 225.509C57.0579 230.094 57.7915 239.265 57.7915 239.265Z" stroke="#FF0000" stroke-width="4"/>
</g>
<g opacity="0.1">
<path opacity="0.35" d="M109.234 239.266C109.234 239.266 100.064 240.884 94.9292 236.209C89.7941 231.534 90.436 222.543 90.436 222.543C90.436 222.543 99.6059 220.924 104.741 225.51C109.876 230.095 109.234 239.266 109.234 239.266Z" stroke="#FF0000" stroke-width="4"/>
<path opacity="0.35" d="M101.807 239.265C101.807 239.265 110.977 240.883 116.112 236.208C121.247 231.533 120.514 222.542 120.514 222.542C120.514 222.542 111.344 220.923 106.209 225.509C101.073 230.094 101.807 239.265 101.807 239.265Z" stroke="#FF0000" stroke-width="4"/>
</g>
<g opacity="0.1">
<path opacity="0.35" d="M153.248 239.266C153.248 239.266 144.078 240.884 138.943 236.209C133.807 231.534 134.449 222.543 134.449 222.543C134.449 222.543 143.619 220.924 148.754 225.51C153.89 230.095 153.248 239.266 153.248 239.266Z" stroke="#FF0000" stroke-width="4"/>
<path opacity="0.35" d="M145.82 239.265C145.82 239.265 154.99 240.883 160.125 236.208C165.26 231.533 164.527 222.542 164.527 222.542C164.527 222.542 155.357 220.923 150.221 225.509C145.086 230.094 145.82 239.265 145.82 239.265Z" stroke="#FF0000" stroke-width="4"/>
</g>
<g opacity="0.1">
<path opacity="0.35" d="M197.261 239.266C197.261 239.266 188.091 240.884 182.956 236.209C177.821 231.534 178.463 222.543 178.463 222.543C178.463 222.543 187.633 220.924 192.768 225.51C197.903 230.095 197.261 239.266 197.261 239.266Z" stroke="#FF0000" stroke-width="4"/>
<path opacity="0.35" d="M189.834 239.265C189.834 239.265 199.004 240.883 204.139 236.208C209.274 231.533 208.541 222.542 208.541 222.542C208.541 222.542 199.371 220.923 194.235 225.509C189.1 230.094 189.834 239.265 189.834 239.265Z" stroke="#FF0000" stroke-width="4"/>
</g>
<g opacity="0.1">
<path opacity="0.35" d="M241.275 239.266C241.275 239.266 232.105 240.884 226.97 236.209C221.835 231.534 222.477 222.543 222.477 222.543C222.477 222.543 231.647 220.924 236.782 225.51C241.917 230.095 241.275 239.266 241.275 239.266Z" stroke="#FF0000" stroke-width="4"/>
<path opacity="0.35" d="M233.848 239.265C233.848 239.265 243.018 240.883 248.153 236.208C253.288 231.533 252.554 222.542 252.554 222.542C252.554 222.542 243.384 220.923 238.249 225.509C233.114 230.094 233.848 239.265 233.848 239.265Z" stroke="#FF0000" stroke-width="4"/>
</g>
<g opacity="0.1">
<path opacity="0.35" d="M285.289 239.266C285.289 239.266 276.119 240.884 270.984 236.209C265.849 231.534 266.491 222.543 266.491 222.543C266.491 222.543 275.661 220.924 280.796 225.51C285.931 230.095 285.289 239.266 285.289 239.266Z" stroke="#FF0000" stroke-width="4"/>
<path opacity="0.35" d="M277.861 239.265C277.861 239.265 287.031 240.883 292.166 236.208C297.301 231.533 296.567 222.542 296.567 222.542C296.567 222.542 287.398 220.923 282.262 225.509C277.127 230.094 277.861 239.265 277.861 239.265Z" stroke="#FF0000" stroke-width="4"/>
</g>
<g opacity="0.1">
<path opacity="0.35" d="M329.302 239.266C329.302 239.266 320.132 240.884 314.997 236.209C309.862 231.534 310.504 222.543 310.504 222.543C310.504 222.543 319.674 220.924 324.809 225.51C329.944 230.095 329.302 239.266 329.302 239.266Z" stroke="#FF0000" stroke-width="4"/>
<path opacity="0.35" d="M321.875 239.265C321.875 239.265 331.045 240.883 336.18 236.208C341.315 231.533 340.582 222.542 340.582 222.542C340.582 222.542 331.412 220.923 326.277 225.509C321.141 230.094 321.875 239.265 321.875 239.265Z" stroke="#FF0000" stroke-width="4"/>
</g>
</svg>
