<?xml version="1.0" encoding="utf-8"?>
<!-- Generator: Adobe Illustrator 24.1.3, SVG Export Plug-In . SVG Version: 6.00 Build 0)  -->
<svg version="1.1" xmlns="http://www.w3.org/2000/svg" xmlns:xlink="http://www.w3.org/1999/xlink" x="0px" y="0px"
	 viewBox="0 0 325 763" style="enable-background:new 0 0 325 763;" xml:space="preserve">
<style type="text/css">
	.st0{clip-path:url(#SVGID_2_);}
	.st1{fill-rule:evenodd;clip-rule:evenodd;fill:url(#SVGID_3_);}
	.st2{fill-rule:evenodd;clip-rule:evenodd;fill:url(#SVGID_4_);}
	.st3{fill:url(#SVGID_5_);}
	.st4{fill-rule:evenodd;clip-rule:evenodd;fill:url(#SVGID_6_);}
	.st5{fill-rule:evenodd;clip-rule:evenodd;fill:#858585;}
	.st6{fill-rule:evenodd;clip-rule:evenodd;fill:#F7F7F7;}
	.st7{fill:url(#SVGID_7_);}
	.st8{fill-rule:evenodd;clip-rule:evenodd;fill:#515459;}
	.st9{fill:#515459;}
	.st10{fill:none;stroke:#515459;stroke-width:1.1;stroke-miterlimit:4.39;}
	.st11{fill-rule:evenodd;clip-rule:evenodd;fill:url(#SVGID_8_);}
	.st12{fill-rule:evenodd;clip-rule:evenodd;fill:url(#SVGID_9_);}
	.st13{fill-rule:evenodd;clip-rule:evenodd;fill:url(#SVGID_10_);}
	.st14{opacity:0.4;fill-rule:evenodd;clip-rule:evenodd;fill:url(#SVGID_11_);enable-background:new    ;}
	.st15{fill-rule:evenodd;clip-rule:evenodd;fill:#161616;}
	.st16{fill-rule:evenodd;clip-rule:evenodd;fill:url(#SVGID_12_);}
	.st17{fill-rule:evenodd;clip-rule:evenodd;fill:#FFFFFF;}
	.st18{fill-rule:evenodd;clip-rule:evenodd;fill:#C8C8C8;}
	.st19{fill:none;stroke:#6C6C6C;}
	.st20{fill:#FFFFFF;}
</style>
<g id="Layer_1">
	<g>
		<defs>
			<rect id="SVGID_1_" width="324.8" height="762.5"/>
		</defs>
		<clipPath id="SVGID_2_">
			<use xlink:href="#SVGID_1_"  style="overflow:visible;"/>
		</clipPath>
		<g class="st0">
			
				<linearGradient id="SVGID_3_" gradientUnits="userSpaceOnUse" x1="162.4" y1="195.688" x2="162.4" y2="4.123" gradientTransform="matrix(1 0 0 -1 0 764)">
				<stop  offset="0" style="stop-color:#F4F4F4"/>
				<stop  offset="1" style="stop-color:#FBFBFB"/>
			</linearGradient>
			<path class="st1" d="M0,706.6V56C0,17.4,17.4,0,56,0h212.8c38.6,0,56,17.4,56,56v650.6c0,38.6-17.4,56-56,56H56
				C17.4,762.5,0,745.2,0,706.6z"/>
			
				<linearGradient id="SVGID_4_" gradientUnits="userSpaceOnUse" x1="39.7455" y1="719.519" x2="39.7455" y2="61.191" gradientTransform="matrix(1 0 0 -1 0 764)">
				<stop  offset="0" style="stop-color:#F8F8F8"/>
				<stop  offset="1" style="stop-color:#FAFAFA"/>
			</linearGradient>
			<path class="st2" d="M0,56c0-16.4,3.1-28.9,9.6-37.9C29.1,31.8,56,56,56,56c38.6,0,18,637.2,18,637.2c-38.6,0-74,24.7-74,4.7V56z
				"/>
			
				<linearGradient id="SVGID_5_" gradientUnits="userSpaceOnUse" x1="162.4" y1="763.123" x2="162.4" y2="9.623" gradientTransform="matrix(1 0 0 -1 0 764)">
				<stop  offset="0" style="stop-color:#E0E0E0"/>
				<stop  offset="1" style="stop-color:#F2F2F2"/>
			</linearGradient>
			<path class="st3" d="M5.5,706.6V56C5.5,20.4,20.4,5.5,56,5.5h212.8c35.6,0,50.5,14.9,50.5,50.5v650.6c0,35.6-14.9,50.5-50.5,50.5
				H56C20.4,757,5.5,742.1,5.5,706.6z"/>
			
				<linearGradient id="SVGID_6_" gradientUnits="userSpaceOnUse" x1="162.4" y1="757.623" x2="162.4" y2="285.723" gradientTransform="matrix(1 0 0 -1 0 764)">
				<stop  offset="0" style="stop-color:#0D0D0D"/>
				<stop  offset="0.46" style="stop-color:#000000"/>
				<stop  offset="1" style="stop-color:#0C0C0C"/>
			</linearGradient>
			<path class="st4" d="M11,481.6h302.8V56c0-32.5-12.5-45-45-45H56c-32.6,0-45,12.4-45,45V481.6z"/>
			<path class="st5" d="M11,481.6V701c0,20.5,16.9,31.8,34,31.8h234.8c17.2,0,34-11.4,34-31.8V481.6H11z"/>
			<path class="st6" d="M12.1,482.7h99.8v40.6H12.1V482.7z"/>
			<path class="st6" d="M113,482.7h98.7V565H113V482.7z"/>
			<path class="st6" d="M212.9,482.7h99.8v40.6h-99.8V482.7L212.9,482.7z"/>
			<path class="st6" d="M12.1,524.4h99.8V565H12.1V524.4z"/>
			<path class="st6" d="M212.9,524.4h99.8V565h-99.8V524.4L212.9,524.4z"/>
			<path class="st6" d="M12.1,566.1h99.8v40.6H12.1V566.1z"/>
			<path class="st6" d="M113,566.1h98.7v40.6H113V566.1z"/>
			<path class="st6" d="M212.9,566.1h99.8v40.6h-99.8V566.1L212.9,566.1z"/>
			<path class="st6" d="M12.1,607.8h99.8v40.6H12.1V607.8z"/>
			<path class="st6" d="M113,607.8h98.7v40.6H113V607.8z"/>
			<path class="st6" d="M212.9,607.8h99.8v40.6h-99.8V607.8L212.9,607.8z"/>
			<path class="st6" d="M12.1,649.5h99.8v40.6H12.1V649.5z"/>
			<path class="st6" d="M113,649.5h98.7v40.6H113V649.5z"/>
			<path class="st6" d="M212.9,649.5h99.8v40.6h-99.8V649.5L212.9,649.5z"/>
			<path class="st6" d="M12.1,691.2v9.9c0,21.9,19.8,30.7,30.7,30.7h69.1v-40.6H12.1z"/>
			<path class="st6" d="M113,691.2h98.7v40.6H113V691.2z"/>
			<path class="st6" d="M212.9,691.2v40.6H282c10.9,0,30.7-8.8,30.7-30.7v-9.9H212.9z"/>
			
				<linearGradient id="SVGID_7_" gradientUnits="userSpaceOnUse" x1="129.1508" y1="276.5105" x2="194.5238" y2="203.9105" gradientTransform="matrix(1 0 0 -1 0 764)">
				<stop  offset="0" style="stop-color:#F7F7F7"/>
				<stop  offset="1" style="stop-color:#EFEEEE"/>
			</linearGradient>
			<path class="st7" d="M127.3,533.2v-17.6c0-18.4,9-27.4,27.4-27.4h15.4c18.4,0,27.4,9,27.4,27.4v17.5c0,18.4-9,27.4-27.4,27.4
				h-15.4C136.3,560.6,127.3,551.7,127.3,533.2z"/>
			<path class="st6" d="M136.1,533.2c0,13.6,5,18.7,18.6,18.7h15.4c13.6,0,18.6-5,18.6-18.7v-17.6c0-13.6-5.1-18.6-18.6-18.6h-15.4
				c-13.6,0-18.6,5-18.6,18.6V533.2z"/>
			<path class="st6" d="M123.4,633c2.1,0,3.8-1.7,3.8-3.8c0-2.1-1.7-3.8-3.8-3.8s-3.8,1.7-3.8,3.8C119.6,631.3,121.3,633,123.4,633z
				"/>
			<path class="st6" d="M201.3,633c2.1,0,3.8-1.7,3.8-3.8c0-2.1-1.7-3.8-3.8-3.8c-2.1,0-3.8,1.7-3.8,3.8
				C197.5,631.3,199.2,633,201.3,633z"/>
			<path class="st8" d="M45.9,579.6l-5.7,3.4l-0.7-1.4l6.7-4.2h1.5v20.4h-1.8V579.6z"/>
			<path class="st8" d="M148.3,588.1l1.8-1.5c0.5-0.4,0.9-0.8,1.3-1.3c0.3-0.4,0.6-0.8,0.8-1.3s0.3-1,0.3-1.5c0-1-0.3-1.9-0.9-2.6
				c-0.8-0.7-1.9-1.1-3-1c-0.5,0-1.1,0.1-1.6,0.2c-0.4,0.1-0.9,0.3-1.2,0.5c-0.4,0.2-0.7,0.4-1,0.7c-0.3,0.2-0.5,0.5-0.7,0.8l-1.2-1
				c0.3-0.3,0.6-0.6,0.9-0.9c0.4-0.4,0.8-0.7,1.2-0.9c0.5-0.3,1.1-0.5,1.7-0.7c0.7-0.2,1.4-0.3,2.1-0.3c0.9,0,1.7,0.1,2.6,0.4
				c0.6,0.3,1.2,0.7,1.7,1.2c0.4,0.5,0.8,1,1,1.7c0.2,0.6,0.3,1.3,0.3,1.9c0,0.7-0.1,1.4-0.4,2c-0.2,0.6-0.6,1.2-1,1.7
				c-0.5,0.5-0.9,1-1.5,1.5c-0.5,0.5-1.1,0.9-1.7,1.4c-0.8,0.6-1.5,1.2-2.1,1.7c-0.6,0.5-1.1,1.1-1.5,1.7c-0.4,0.6-0.7,1.2-0.9,1.8
				c-0.2,0.7-0.3,1.4-0.3,2.1h9.8v1.6H143v-0.5c0-1,0.1-1.9,0.3-2.8c0.2-0.8,0.6-1.6,1-2.3c0.5-0.8,1-1.5,1.7-2.1
				C146.7,589.5,147.5,588.8,148.3,588.1z"/>
			<path class="st8" d="M243.7,586.7h1.5c0.7,0,1.5-0.1,2.2-0.3c0.6-0.2,1.1-0.5,1.5-0.9c0.4-0.4,0.7-0.8,0.9-1.3s0.3-1.1,0.3-1.6
				s-0.1-1-0.2-1.5c-0.1-0.4-0.4-0.9-0.7-1.2c-0.4-0.4-0.8-0.6-1.3-0.8c-0.6-0.2-1.2-0.3-1.9-0.3c-0.9,0-1.8,0.1-2.6,0.5
				c-0.6,0.3-1.1,0.7-1.6,1.1l-0.9-1.1c0.2-0.3,0.5-0.5,0.8-0.7c0.3-0.3,0.7-0.5,1.1-0.7c1-0.5,2.2-0.7,3.3-0.7
				c0.9,0,1.8,0.1,2.6,0.4c0.7,0.2,1.3,0.6,1.8,1.1c0.4,0.5,0.8,1,1,1.6c0.2,0.6,0.3,1.3,0.3,1.9c0,1.2-0.3,2.3-1,3.3
				c-0.7,0.9-1.7,1.5-2.8,1.8c2.5,0.3,4.3,2.5,4.2,5c0,0.9-0.2,1.7-0.5,2.5c-0.3,0.7-0.8,1.4-1.5,1.9c-0.6,0.5-1.4,0.9-2.2,1.1
				c-0.9,0.3-1.8,0.4-2.8,0.4s-1.9-0.1-2.8-0.3c-0.6-0.1-1.2-0.3-1.8-0.5l0.5-1.5c0.5,0.2,1,0.3,1.6,0.4c0.8,0.2,1.7,0.2,2.5,0.2
				c1.4,0.1,2.7-0.3,3.9-1.1c1-0.8,1.5-2,1.4-3.2c0-0.6-0.1-1.1-0.3-1.6s-0.5-0.9-0.9-1.3c-0.5-0.4-1-0.7-1.6-0.9
				c-0.7-0.2-1.5-0.3-2.3-0.3h-1.6L243.7,586.7z"/>
			<path class="st8" d="M47.8,627v6H51v1.6h-3.3v5H46v-5h-8.5v-1.2l7.6-14.2H47L39.6,633H46v-6H47.8z"/>
			<path class="st8" d="M147,638.3c1.4,0.1,2.9-0.4,4-1.3c1-1,1.5-2.4,1.4-3.8c0-0.6-0.1-1.2-0.2-1.8c-0.1-0.5-0.4-1.1-0.7-1.5
				c-0.4-0.4-0.8-0.8-1.3-1c-0.6-0.3-1.3-0.4-2-0.4s-1.5,0.1-2.2,0.3c-0.5,0.1-1,0.3-1.4,0.6l-1-0.7l1.1-9.4h8.9v1.6H146l-0.8,6.8
				c0.4-0.2,0.9-0.4,1.4-0.4c0.6-0.1,1.2-0.2,1.9-0.2c0.8,0,1.6,0.1,2.3,0.4c0.7,0.2,1.3,0.6,1.9,1.1c0.5,0.5,1,1.2,1.2,1.9
				c0.3,0.9,0.4,1.8,0.4,2.7c0,0.9-0.2,1.8-0.5,2.6s-0.8,1.6-1.4,2.2c-0.6,0.6-1.4,1.1-2.2,1.5c-1,0.4-2,0.5-3,0.5
				c-0.9,0-1.9-0.1-2.8-0.3c-0.6-0.1-1.2-0.3-1.8-0.5l0.4-1.5c0.5,0.2,1,0.3,1.6,0.4C145.3,638.3,146.1,638.4,147,638.3z"/>
			<path class="st8" d="M248.1,620.4c-0.9,0-1.8,0.2-2.6,0.7c-0.7,0.4-1.4,1.1-1.8,1.8c-0.5,0.8-0.9,1.7-1.1,2.7
				c-0.3,1.1-0.4,2.2-0.5,3.4c0.5-0.8,1.2-1.4,2-1.8c0.9-0.5,1.9-0.8,3-0.8c0.8,0,1.6,0.1,2.3,0.4c0.7,0.3,1.4,0.7,1.9,1.3
				c0.6,0.6,1,1.3,1.3,2.1c0.3,0.9,0.5,1.9,0.5,2.9s-0.1,2-0.4,2.9c-0.3,0.8-0.7,1.6-1.3,2.2c-0.6,0.6-1.2,1.1-2,1.4
				c-0.8,0.3-1.7,0.5-2.6,0.5c-1.9,0.1-3.7-0.8-4.9-2.3c-1.1-1.5-1.7-3.8-1.7-6.9c0-3.9,0.7-6.9,2.1-8.9c1.3-2,3.5-3.1,5.9-3.1
				c0.8,0,1.5,0.1,2.2,0.3c0.6,0.2,1.2,0.4,1.8,0.7l-0.6,1.4c-0.5-0.2-1-0.4-1.5-0.6C249.5,620.4,248.8,620.4,248.1,620.4z
				 M246.7,638.5c1.3,0.1,2.5-0.4,3.3-1.4c0.9-1.1,1.3-2.6,1.2-4c0.1-1.4-0.3-2.8-1.2-3.9c-0.8-0.9-2-1.4-3.1-1.3
				c-0.6,0-1.2,0.1-1.8,0.4c-0.6,0.2-1.1,0.6-1.5,1c-0.4,0.4-0.8,0.9-1,1.5c-0.3,0.6-0.4,1.2-0.4,1.9c0,0.8,0.1,1.6,0.3,2.4
				c0.2,0.7,0.5,1.3,0.9,1.8c0.4,0.5,0.9,0.9,1.4,1.2C245.4,638.3,246.1,638.5,246.7,638.5z"/>
			<path class="st8" d="M41.1,681.3l7.7-18.8H38.5v-1.7h12.3v1.4l-7.7,19.1H41.1z"/>
			<path class="st8" d="M154.9,665.5c0,0.6-0.1,1.1-0.3,1.7c-0.2,0.5-0.5,1-0.8,1.4c-0.4,0.4-0.8,0.8-1.2,1.2
				c-0.5,0.3-1,0.6-1.5,0.9c0.6,0.3,1.2,0.6,1.7,0.9c0.5,0.3,1,0.7,1.3,1.2c0.4,0.4,0.7,1,0.9,1.5c0.2,0.6,0.3,1.2,0.3,1.9
				c0,0.8-0.1,1.5-0.4,2.2c-0.3,0.7-0.7,1.3-1.2,1.8c-0.6,0.5-1.3,0.9-2,1.2c-0.9,0.3-1.8,0.4-2.7,0.4c-1,0-1.9-0.1-2.9-0.4
				c-0.7-0.2-1.4-0.6-2-1.1c-0.5-0.5-0.9-1-1.1-1.6c-0.3-0.6-0.4-1.3-0.4-2c-0.1-1.3,0.3-2.6,1.2-3.6c0.9-1,2-1.7,3.3-2.2
				c-1.1-0.4-2.1-1.1-2.9-1.9c-0.7-0.9-1.1-2-1.1-3.1c0-1.4,0.6-2.7,1.6-3.7c0.5-0.5,1.2-0.9,1.9-1.1c0.8-0.3,1.6-0.4,2.5-0.4
				c0.9,0,1.7,0.1,2.6,0.4c0.7,0.2,1.3,0.6,1.8,1.1c0.5,0.4,0.9,1,1.1,1.6C154.8,664.2,154.9,664.9,154.9,665.5z M153.5,676.1
				c0-1.2-0.5-2.3-1.3-3c-0.4-0.4-1-0.7-1.5-1c-0.6-0.3-1.3-0.5-1.9-0.7c-1.2,0.4-2.3,1.1-3.3,2c-0.8,0.8-1.2,1.8-1.1,2.9
				c-0.1,1.1,0.4,2.2,1.2,2.9c1,0.7,2.2,1.1,3.4,1c1.2,0.1,2.4-0.3,3.3-1C153.1,678.4,153.6,677.3,153.5,676.1z M153.1,665.6
				c0-1-0.3-1.9-1-2.6c-0.9-0.7-2-1.1-3.1-1c-0.6,0-1.3,0.1-1.9,0.3c-0.5,0.2-0.9,0.5-1.3,0.8c-0.3,0.3-0.6,0.7-0.8,1.2
				s-0.3,1-0.3,1.5s0.1,1.1,0.4,1.6c0.3,0.5,0.6,0.9,1,1.2c0.4,0.4,0.9,0.7,1.4,0.9c0.6,0.2,1.1,0.4,1.7,0.6c1-0.3,2-0.9,2.7-1.7
				C152.8,667.6,153.1,666.6,153.1,665.6z"/>
			<path class="st8" d="M244.4,680.1c0.9,0,1.8-0.2,2.6-0.6s1.4-1,1.9-1.7c0.5-0.8,0.9-1.7,1.2-2.7c0.3-1.2,0.5-2.3,0.5-3.5
				c-0.5,0.8-1.3,1.4-2.1,1.8c-0.9,0.5-1.9,0.8-3,0.8c-0.8,0-1.6-0.1-2.3-0.4s-1.4-0.7-1.9-1.3c-0.6-0.6-1-1.3-1.3-2.1
				c-0.3-0.9-0.5-1.9-0.5-2.9s0.1-2,0.4-2.9c0.3-0.8,0.7-1.6,1.2-2.2c0.6-0.6,1.2-1.1,2-1.4c0.8-0.3,1.7-0.5,2.6-0.5
				c1.9-0.1,3.7,0.7,4.9,2.2c1.1,1.5,1.7,3.8,1.7,6.8c0,4-0.7,7.1-2,9.1s-3.5,3.2-5.9,3c-0.8,0-1.6-0.1-2.4-0.2
				c-0.6-0.1-1.2-0.3-1.8-0.5l0.4-1.5c0.5,0.2,1,0.3,1.5,0.4C243,680.1,243.7,680.2,244.4,680.1z M245.9,662.1
				c-1.2-0.1-2.4,0.5-3.3,1.4c-0.9,1.1-1.3,2.6-1.2,4c-0.1,1.4,0.3,2.8,1.2,3.9c0.8,0.9,1.9,1.4,3.1,1.3c0.6,0,1.2-0.1,1.8-0.3
				c0.6-0.2,1.1-0.6,1.5-1c0.5-0.4,0.8-0.9,1.1-1.5c0.3-0.6,0.4-1.2,0.4-1.9c0.1-1.6-0.3-3.1-1.2-4.4
				C248.4,662.5,247.2,662,245.9,662.1z"/>
			<path class="st8" d="M142.1,712.9c0-3.5,0.6-6.1,1.8-7.9c1.1-1.8,3.1-2.8,5.2-2.7c2.1-0.1,4.1,0.9,5.2,2.7
				c1.1,1.8,1.7,4.4,1.7,7.9s-0.6,6.2-1.8,7.9c-1.1,1.7-3.1,2.7-5.2,2.6C144.4,723.4,142.1,719.9,142.1,712.9z M144,712.9
				c0,1.4,0.1,2.7,0.3,4.1c0.2,1,0.5,1.9,1,2.8c0.4,0.7,0.9,1.2,1.6,1.5c0.7,0.3,1.4,0.5,2.2,0.5c1.5,0,3-0.8,3.8-2.1
				c0.9-1.4,1.3-3.7,1.3-6.8c0-1.4-0.1-2.8-0.4-4.2c-0.2-1-0.5-1.9-1-2.8c-0.4-0.6-0.9-1.2-1.6-1.5c-1.4-0.6-2.9-0.6-4.3,0
				c-0.7,0.4-1.2,0.9-1.6,1.5c-0.5,0.9-0.8,1.8-1,2.8C144.1,710.1,144,711.5,144,712.9z"/>
			<path class="st8" d="M240.2,708h3.3l1.1-5.4h1.6l-1.1,5.4h5l1.1-5.4h1.6l-1.1,5.4h2.9l-0.3,1.5h-2.9l-1.2,6.3h3.2l-0.3,1.5h-3.2
				l-1.1,5.8h-1.6l1.2-5.8h-5.1l-1.1,5.8h-1.6l1.1-5.8h-2.9l0.3-1.5h2.9l1.2-6.3H240L240.2,708z M243.5,715.8h5.1l1.2-6.3h-5
				L243.5,715.8z"/>
			<path class="st8" d="M167.1,591c-0.1,0-0.2-0.1-0.3-0.1l-0.5-0.1l-0.6-0.1H165c-0.6-0.1-1.1,0.1-1.6,0.5
				c-0.3,0.4-0.5,0.8-0.4,1.3c0,0.5,0.2,0.9,0.5,1.2c0.4,0.3,0.8,0.4,1.3,0.4c0.3,0,0.6-0.1,0.9-0.2c0.3-0.1,0.5-0.3,0.8-0.5
				c0.2-0.2,0.4-0.4,0.5-0.7c0.1-0.2,0.2-0.5,0.2-0.8L167.1,591z M164.4,594.9c-0.3,0-0.6,0-0.8-0.1c-0.3-0.1-0.5-0.2-0.8-0.4
				c-0.2-0.2-0.4-0.4-0.6-0.7s-0.2-0.7-0.2-1.1c0-0.7,0.2-1.3,0.7-1.8c0.6-0.5,1.4-0.8,2.1-0.7h0.7c0.2,0,0.4,0,0.6,0.1l0.5,0.1
				l0.4,0.1v-0.8c0.1-0.5-0.2-1.1-0.6-1.4c-0.5-0.3-1-0.5-1.6-0.4c-0.4,0-0.9,0-1.3,0.2c-0.3,0.1-0.6,0.2-0.8,0.3l-0.3-0.7
				c0.3-0.2,0.7-0.3,1-0.4c0.5-0.2,1.1-0.3,1.7-0.2c0.8,0,1.5,0.2,2.1,0.6c0.5,0.5,0.8,1.2,0.7,1.9v5.2h-0.8v-1.2
				c-0.1,0.2-0.3,0.5-0.5,0.7c-0.2,0.2-0.4,0.3-0.7,0.4c-0.2,0.1-0.5,0.2-0.8,0.2C165,594.8,164.7,594.8,164.4,594.9z M173.9,587.7
				c-0.3,0-0.7,0.1-1,0.2c-0.3,0.2-0.6,0.4-0.8,0.6c-0.2,0.3-0.4,0.6-0.6,1c-0.1,0.4-0.2,0.9-0.2,1.4v1.7c0.1,0.1,0.2,0.3,0.3,0.4
				c0.2,0.1,0.3,0.3,0.5,0.4c0.2,0.1,0.4,0.2,0.7,0.3c0.3,0.1,0.5,0.1,0.8,0.1c0.7,0,1.4-0.2,1.9-0.7c0.5-0.7,0.8-1.6,0.7-2.4
				c0-0.4,0-0.8-0.1-1.2c-0.1-0.4-0.2-0.7-0.4-1s-0.4-0.5-0.7-0.7C174.6,587.7,174.3,587.7,173.9,587.7z M171.3,593.6
				c0,0.2,0,0.4,0,0.5c0,0.1,0,0.4,0,0.5h-0.8v-11.5h0.9v5.3c0.2-0.5,0.6-0.9,1-1.2c0.5-0.3,1-0.5,1.6-0.5c0.5,0,0.9,0.1,1.4,0.3
				c0.4,0.2,0.7,0.5,1,0.8c0.3,0.4,0.5,0.8,0.6,1.3s0.2,1,0.2,1.6c0,0.6-0.1,1.3-0.3,1.9c-0.2,0.5-0.4,0.9-0.8,1.2
				c-0.3,0.3-0.7,0.5-1.1,0.7c-0.4,0.1-0.8,0.2-1.2,0.2c-0.5,0-1.1-0.1-1.5-0.3C172,594.2,171.6,593.9,171.3,593.6z M180,590.9
				c0,0.5,0.1,1,0.2,1.4c0.1,0.4,0.3,0.7,0.5,1s0.5,0.4,0.8,0.6c0.3,0.1,0.7,0.2,1,0.2c0.4,0,0.8,0,1.2-0.2c0.2-0.1,0.5-0.2,0.7-0.3
				l0.3,0.7c-0.2,0.2-0.5,0.3-0.8,0.4c-0.5,0.2-1,0.2-1.5,0.2c-0.9,0.1-1.9-0.3-2.5-1c-0.6-0.8-1-1.9-0.9-3c0-0.6,0.1-1.1,0.2-1.6
				c0.1-0.5,0.4-0.9,0.7-1.3c0.3-0.4,0.7-0.6,1.1-0.8s0.9-0.3,1.4-0.3s1,0.1,1.5,0.3c0.2,0.1,0.3,0.1,0.5,0.2l0.3,0.2l-0.4,0.7
				l-0.3-0.2c-0.1-0.1-0.3-0.1-0.4-0.2c-0.2-0.1-0.3-0.1-0.5-0.2c-0.2,0-0.4-0.1-0.6-0.1c-0.7,0-1.4,0.3-1.8,0.8
				C180.2,589.2,180,590,180,590.9z"/>
			<path class="st8" d="M267.5,587.7c-0.3,0-0.7,0.1-1,0.2c-0.3,0.2-0.5,0.4-0.7,0.7c-0.2,0.3-0.3,0.6-0.4,1
				c-0.1,0.4-0.1,0.8-0.1,1.3s0.1,1,0.2,1.4c0.1,0.4,0.3,0.7,0.5,1c0.2,0.2,0.5,0.4,0.8,0.5c0.3,0.1,0.7,0.2,1.1,0.2
				c0.3,0,0.5,0,0.8-0.1c0.2-0.1,0.4-0.2,0.6-0.3c0.2-0.1,0.4-0.3,0.5-0.4c0.1-0.1,0.2-0.3,0.4-0.4V591c0-0.5-0.1-0.9-0.2-1.4
				c-0.1-0.4-0.3-0.7-0.6-1c-0.2-0.3-0.5-0.5-0.8-0.7C268.2,587.7,267.9,587.7,267.5,587.7z M270.1,593.6c-0.3,0.4-0.7,0.6-1.1,0.8
				c-0.5,0.2-1,0.3-1.6,0.3c-0.4,0-0.8-0.1-1.2-0.2c-0.4-0.1-0.7-0.4-1-0.7c-0.3-0.3-0.6-0.8-0.7-1.2c-0.2-0.6-0.3-1.2-0.3-1.9
				c0-0.5,0.1-1.1,0.2-1.6s0.3-0.9,0.6-1.3c0.3-0.4,0.6-0.7,1-0.9c0.4-0.2,0.9-0.3,1.3-0.3c0.6,0,1.2,0.1,1.6,0.5
				c0.4,0.3,0.8,0.7,1,1.2V583h0.9v11.5H270L270.1,593.6z M276.9,594c0.4,0,0.8,0,1.2-0.1c0.3-0.1,0.6-0.2,0.8-0.3l0.3,0.7
				c-0.3,0.1-0.6,0.3-0.9,0.3c-0.5,0.1-1,0.2-1.5,0.2c-1,0.1-2-0.3-2.8-1c-0.7-0.8-1-1.9-0.9-2.9c0-0.6,0.1-1.1,0.2-1.7
				c0.1-0.5,0.4-0.9,0.7-1.3c0.3-0.3,0.6-0.6,1-0.8c0.4-0.2,0.9-0.3,1.4-0.3s0.9,0.1,1.3,0.2c0.4,0.1,0.7,0.4,1,0.7
				c0.3,0.4,0.5,0.8,0.6,1.3c0.2,0.6,0.2,1.2,0.2,1.9v0.2h-5.6c0,0.8,0.3,1.5,0.8,2.1C275.4,593.8,276.2,594.1,276.9,594z
				 M278.8,590.3c0-0.7-0.2-1.4-0.6-2c-0.4-0.5-1-0.8-1.6-0.7c-0.7,0-1.3,0.2-1.7,0.7c-0.4,0.6-0.7,1.3-0.7,2H278.8z M280.8,587.8
				V587h1.5v-0.8c0-0.4,0-0.9,0.1-1.3c0.1-0.4,0.2-0.7,0.5-1c0.2-0.3,0.5-0.5,0.8-0.7c0.4-0.2,0.8-0.2,1.2-0.2c0.2,0,0.5,0,0.7,0.1
				c0.2,0,0.3,0.1,0.5,0.1L286,584l-0.4-0.1c-0.2,0-0.3,0-0.5,0c-0.3,0-0.6,0-0.9,0.1c-0.2,0.1-0.4,0.2-0.6,0.4
				c-0.2,0.2-0.3,0.5-0.3,0.8c-0.1,0.4-0.1,0.8-0.1,1.2v0.6h2.4v0.8h-2.4v6.8h-0.9v-6.8H280.8z"/>
			<path class="st8" d="M65.6,629.4c0.3,0.2,0.5,0.5,0.7,0.8c0.2,0.3,0.2,0.7,0.2,1.1c0,0.4-0.1,0.8-0.3,1.2
				c-0.2,0.3-0.4,0.6-0.7,0.8s-0.6,0.4-1,0.5c-0.3,0.1-0.7,0.1-1.1,0.2c-0.3,0-0.6,0-1-0.1c-0.3-0.1-0.6-0.2-0.9-0.3
				c-0.1,0.1-0.3,0.3-0.4,0.4c-0.1,0.2-0.2,0.4-0.2,0.6c0,0.2,0,0.3,0.1,0.5c0.1,0.1,0.2,0.2,0.3,0.3c0.2,0.1,0.3,0.2,0.5,0.2
				c0.3,0,0.6,0.1,0.9,0.1h1.7c0.3,0,0.7,0,1,0.1c0.3,0.1,0.6,0.2,0.8,0.3c0.2,0.1,0.4,0.3,0.6,0.6c0.1,0.3,0.2,0.6,0.2,0.9
				c0,0.3-0.1,0.7-0.2,1c-0.2,0.3-0.4,0.6-0.8,0.8c-0.4,0.2-0.8,0.4-1.3,0.5c-0.6,0.1-1.2,0.2-1.8,0.2c-0.4,0-0.8,0-1.2-0.1
				c-0.4-0.1-0.7-0.2-1-0.3c-0.3-0.1-0.5-0.4-0.7-0.6c-0.2-0.3-0.3-0.6-0.3-1c0-0.4,0.1-0.8,0.3-1.1s0.4-0.6,0.7-0.8
				c-0.2-0.1-0.4-0.3-0.5-0.4c-0.1-0.2-0.2-0.5-0.2-0.7c0-0.3,0.1-0.6,0.3-0.9s0.4-0.5,0.6-0.7c-0.3-0.2-0.5-0.5-0.6-0.8
				c-0.2-0.4-0.2-0.7-0.2-1.1c0-0.4,0.1-0.8,0.3-1.2c0.2-0.3,0.4-0.6,0.7-0.8c0.3-0.2,0.6-0.4,1-0.5c0.4-0.1,0.7-0.2,1.1-0.2
				c0.2,0,0.4,0,0.5,0l0.4,0.1l0.4,0.1c0.1,0,0.3,0,0.4,0H67v0.7h-0.4H66C66.1,629.4,65.8,629.4,65.6,629.4z M63.1,636.3h-0.7
				c-0.3,0-0.5,0-0.8-0.1c-0.2,0.2-0.4,0.4-0.5,0.6c-0.2,0.3-0.3,0.6-0.3,0.9s0.1,0.5,0.2,0.7c0.1,0.2,0.3,0.3,0.5,0.5
				c0.2,0.1,0.5,0.2,0.7,0.2c0.3,0,0.6,0.1,0.9,0.1c0.4,0,0.9,0,1.3-0.1c0.3-0.1,0.7-0.2,1-0.3c0.2-0.1,0.5-0.3,0.6-0.5
				s0.2-0.4,0.2-0.7c0-0.1,0-0.3-0.1-0.4c0-0.2-0.1-0.3-0.2-0.4c-0.1-0.1-0.3-0.2-0.5-0.3c-0.3-0.1-0.5-0.1-0.8-0.1L63.1,636.3z
				 M65.7,631.2c0-0.3-0.1-0.6-0.2-0.9c-0.1-0.2-0.3-0.4-0.5-0.6s-0.5-0.3-0.7-0.3c-0.3-0.1-0.5-0.1-0.8-0.1s-0.6,0-0.8,0.1
				c-0.3,0.1-0.5,0.2-0.7,0.3c-0.2,0.2-0.4,0.4-0.5,0.6c-0.1,0.3-0.2,0.6-0.2,0.9s0.1,0.6,0.2,0.9c0.1,0.2,0.3,0.4,0.5,0.6
				s0.5,0.3,0.7,0.3c0.3,0.1,0.6,0.1,0.8,0.1c0.3,0,0.6,0,0.8-0.1c0.3-0.1,0.5-0.2,0.7-0.3c0.2-0.2,0.4-0.4,0.5-0.6
				C65.6,631.9,65.7,631.5,65.7,631.2z M69.7,630.2c0.2-0.5,0.6-0.9,1-1.2c0.5-0.3,1.1-0.5,1.7-0.5c0.7,0,1.4,0.2,1.9,0.7
				c0.5,0.6,0.7,1.4,0.7,2.1v5h-1v-4.8c0-0.3,0-0.7-0.1-1s-0.2-0.5-0.4-0.7s-0.4-0.3-0.6-0.3c-0.2-0.1-0.5-0.1-0.8-0.1
				c-0.4,0-0.7,0.1-1,0.3c-0.3,0.2-0.6,0.4-0.8,0.7c-0.2,0.3-0.4,0.6-0.5,1c-0.1,0.4-0.2,0.7-0.2,1.1v3.9h-0.9v-11.6h0.9L69.7,630.2
				z M77.5,628.7h0.9v7.6h-0.9V628.7z M77.2,626.2c0-0.2,0.1-0.4,0.2-0.5c0.1-0.1,0.3-0.2,0.5-0.2c0.2,0,0.4,0.1,0.5,0.2
				c0.1,0.1,0.2,0.3,0.2,0.5s-0.1,0.4-0.2,0.6c-0.1,0.1-0.3,0.2-0.5,0.2c-0.2,0-0.4-0.1-0.5-0.2C77.3,626.6,77.2,626.4,77.2,626.2z"
				/>
			<path class="st8" d="M169,636.6c0.1,0.8-0.2,1.7-0.6,2.4c-0.5,0.6-1.2,0.9-1.9,0.8H166c-0.2,0-0.3-0.1-0.4-0.1l0.1-0.8l0.4,0.1
				h0.4c0.3,0,0.6,0,0.9-0.2c0.2-0.1,0.4-0.3,0.5-0.5c0.1-0.3,0.2-0.6,0.2-0.8c0-0.4,0.1-0.8,0.1-1.2v-7.5h0.9v7.8H169z
				 M167.9,626.2c0-0.2,0.1-0.4,0.2-0.5c0.1-0.1,0.3-0.2,0.5-0.2c0.2,0,0.4,0.1,0.5,0.2c0.1,0.1,0.2,0.3,0.2,0.5s-0.1,0.4-0.2,0.6
				c-0.1,0.1-0.3,0.2-0.5,0.2c-0.2,0-0.4-0.1-0.5-0.2C167.9,626.6,167.8,626.4,167.9,626.2z M172.5,632.2l3.3-3.4h1.1l-3.3,3.4
				l3.6,4.2H176L172.5,632.2v4.2h-0.9v-11.5h0.9V632.2z M179.6,636.4h-0.9v-11.5h0.9V636.4z"/>
			<path class="st8" d="M269.5,629.3c-0.4,0-0.7,0.1-1,0.3c-0.3,0.2-0.5,0.4-0.7,0.7c-0.2,0.3-0.4,0.6-0.5,0.9
				c-0.1,0.3-0.2,0.7-0.2,1.1v4.1h-0.9v-4.9c0.1-0.6-0.1-1.2-0.4-1.7c-0.3-0.3-0.8-0.5-1.3-0.5c-0.4,0-0.7,0.1-1,0.3
				c-0.3,0.2-0.5,0.4-0.7,0.7c-0.2,0.3-0.4,0.6-0.5,1c-0.1,0.4-0.2,0.7-0.2,1.1v3.9h-0.9v-7.6h0.8v1.5c0.2-0.5,0.6-0.9,1-1.2
				c0.5-0.3,1-0.5,1.6-0.5c0.5,0,1,0.1,1.4,0.4c0.4,0.3,0.7,0.8,0.8,1.3c0.3-0.5,0.7-1,1.1-1.3c0.5-0.3,1.1-0.5,1.6-0.5
				c0.7,0,1.3,0.2,1.8,0.7c0.4,0.6,0.7,1.4,0.6,2.1v5H271v-4.9c0.1-0.6-0.1-1.2-0.4-1.7C270.4,629.5,269.9,629.3,269.5,629.3z
				 M275.4,636.3h-0.9v-7.6h0.9v1.5c0.2-0.5,0.6-0.9,1-1.2c0.5-0.3,1.1-0.5,1.7-0.5c0.7-0.1,1.5,0.2,2,0.7c0.5,0.6,0.7,1.4,0.7,2.1
				v5h-0.9v-4.8c0-0.3,0-0.7-0.1-1c-0.1-0.2-0.2-0.5-0.4-0.7c-0.2-0.2-0.4-0.3-0.6-0.3c-0.2-0.1-0.5-0.1-0.8-0.1
				c-0.4,0-0.7,0.1-1,0.3s-0.6,0.4-0.8,0.7c-0.2,0.3-0.4,0.6-0.5,1c-0.1,0.4-0.2,0.7-0.2,1.1L275.4,636.3z M286.3,635.7
				c0.8,0.1,1.5-0.2,2-0.8c0.8-1.4,0.8-3.2,0-4.6c-0.5-0.6-1.2-0.9-2-0.9c-0.7-0.1-1.5,0.3-1.9,0.9c-0.8,1.4-0.8,3.2,0,4.6
				C284.9,635.4,285.6,635.7,286.3,635.7z M286.3,628.5c0.5,0,1,0.1,1.5,0.3c0.4,0.2,0.8,0.5,1.1,0.8c0.3,0.4,0.5,0.8,0.7,1.3
				c0.3,1.1,0.3,2.2,0,3.2c-0.1,0.5-0.4,0.9-0.7,1.3c-0.3,0.4-0.7,0.6-1.1,0.8c-0.5,0.2-1,0.3-1.5,0.3s-1-0.1-1.5-0.3
				c-0.4-0.2-0.8-0.5-1.1-0.8c-0.3-0.4-0.5-0.8-0.7-1.3c-0.3-1.1-0.3-2.2,0-3.2c0.1-0.5,0.4-0.9,0.7-1.3c0.3-0.4,0.7-0.6,1.1-0.8
				C285.3,628.6,285.8,628.5,286.3,628.5z"/>
			<path class="st8" d="M58.5,671c-0.4,0-0.7,0.1-1.1,0.3c-0.3,0.2-0.6,0.4-0.8,0.7c-0.2,0.3-0.4,0.6-0.5,1
				c-0.1,0.4-0.2,0.8-0.2,1.2v2.1c0.1,0.1,0.2,0.2,0.4,0.3c0.2,0.1,0.3,0.2,0.5,0.3c0.2,0.1,0.4,0.2,0.7,0.3
				c0.2,0.1,0.5,0.1,0.7,0.1c0.7,0,1.4-0.2,1.9-0.8c0.5-0.7,0.8-1.6,0.7-2.5c0-0.4,0-0.8-0.1-1.2c-0.1-0.4-0.2-0.7-0.4-1
				s-0.4-0.5-0.7-0.6C59.2,671.1,58.8,671,58.5,671z M58.6,670.2c0.5,0,0.9,0.1,1.4,0.3c0.4,0.2,0.7,0.5,1,0.8
				c0.3,0.4,0.5,0.8,0.6,1.2c0.1,0.5,0.2,1,0.2,1.5c0,0.6-0.1,1.3-0.3,1.9c-0.2,0.5-0.4,0.9-0.8,1.2c-0.3,0.3-0.7,0.5-1.1,0.7
				c-0.4,0.1-0.8,0.2-1.2,0.2c-0.5,0-0.9-0.1-1.4-0.3c-0.4-0.2-0.8-0.4-1.1-0.6v4.2H55v-11h0.8v1.5c0.2-0.5,0.6-0.9,1-1.2
				C57.4,670.4,58,670.2,58.6,670.2z M66.9,671c-0.7,0-1.3,0.3-1.7,0.8c-0.4,0.7-0.7,1.5-0.6,2.3c0,0.5,0.1,1,0.2,1.4
				c0.1,0.4,0.3,0.7,0.5,1c0.2,0.2,0.5,0.4,0.8,0.5c0.3,0.1,0.7,0.2,1,0.2c0.5,0,1-0.1,1.4-0.4c0.4-0.2,0.7-0.5,0.9-0.9v-1.7
				c0-0.4-0.1-0.9-0.2-1.3c-0.1-0.4-0.3-0.7-0.5-1.1c-0.2-0.3-0.5-0.5-0.8-0.7C67.6,671.2,67.2,671.1,66.9,671z M66.8,670.2
				c0.3,0,0.6,0,0.9,0.1c0.3,0.1,0.5,0.2,0.8,0.4c0.2,0.1,0.4,0.3,0.6,0.5c0.1,0.2,0.3,0.4,0.4,0.6v-1.4h0.9v11h-0.9V677
				c-0.1,0.1-0.2,0.3-0.4,0.4c-0.2,0.1-0.4,0.3-0.6,0.4c-0.2,0.1-0.5,0.2-0.8,0.3c-0.3,0.1-0.6,0.1-0.9,0.1c-0.4,0-0.8-0.1-1.2-0.2
				s-0.7-0.4-1-0.7c-0.3-0.3-0.6-0.8-0.7-1.2c-0.2-0.6-0.3-1.2-0.3-1.9c0-0.5,0.1-1,0.2-1.5c0.1-0.5,0.3-0.9,0.6-1.3
				c0.3-0.4,0.6-0.7,1-0.9S66.3,670.2,66.8,670.2z M76.4,670.3h0.4c0.1,0,0.2,0,0.3,0l-0.1,0.8h-0.3h-0.3c-0.3,0-0.7,0.1-1,0.2
				c-0.3,0.2-0.6,0.4-0.8,0.7c-0.2,0.3-0.4,0.7-0.5,1.1c-0.1,0.5-0.2,0.9-0.2,1.4v3.5H73v-7.6h0.8v1.8c0.1-0.3,0.2-0.5,0.4-0.7
				c0.2-0.2,0.4-0.4,0.6-0.6c0.2-0.2,0.5-0.3,0.8-0.4C75.8,670.4,76.1,670.3,76.4,670.3z M78.3,676.8c0.3,0.2,0.7,0.3,1,0.4
				c0.5,0.1,1,0.2,1.5,0.2c0.5,0.1,1.1-0.1,1.6-0.4c0.3-0.3,0.4-0.6,0.4-1c0-0.3-0.1-0.7-0.3-0.9c-0.4-0.3-0.8-0.5-1.3-0.5l-0.8-0.2
				c-0.3-0.1-0.6-0.1-0.9-0.2c-0.3-0.1-0.5-0.2-0.7-0.4c-0.2-0.2-0.4-0.4-0.5-0.6c-0.4-0.9-0.1-1.9,0.6-2.5c0.6-0.4,1.3-0.6,2-0.6
				c0.5,0,0.9,0,1.4,0.2c0.3,0.1,0.7,0.2,1,0.4l-0.3,0.7c-0.3-0.1-0.6-0.2-0.8-0.3c-0.4-0.1-0.7-0.1-1.1-0.1c-0.5,0-1.1,0.1-1.5,0.3
				c-0.3,0.2-0.5,0.6-0.5,1c0,0.2,0,0.3,0.1,0.5c0.1,0.1,0.2,0.3,0.3,0.4c0.2,0.1,0.3,0.2,0.5,0.3c0.3,0.1,0.5,0.2,0.8,0.2l0.8,0.2
				c0.3,0.1,0.6,0.1,0.9,0.2c0.2,0.1,0.5,0.2,0.7,0.4c0.4,0.4,0.6,0.9,0.6,1.4c0,0.6-0.2,1.3-0.8,1.7c-0.6,0.4-1.3,0.7-2.1,0.6
				c-0.6,0-1.2-0.1-1.7-0.2c-0.4-0.1-0.8-0.3-1.1-0.5L78.3,676.8z"/>
			<path class="st8" d="M166,677.3h0.4h0.3l0.1,0.7c-0.2,0-0.3,0.1-0.5,0.1s-0.5,0-0.7,0c-0.6,0.1-1.3-0.2-1.7-0.6
				c-0.4-0.5-0.6-1-0.5-1.6v-4.7h-1.6v-0.8h1.6v-2.2l0.9-0.2v2.5h2.3v0.8h-2.3v4.4c0,0.3,0,0.6,0.1,0.8c0.1,0.2,0.2,0.4,0.3,0.5
				c0.2,0.1,0.3,0.2,0.5,0.2C165.5,677.3,165.7,677.3,166,677.3z M173.7,670.4h0.9v7.6h-0.9v-1.5c-0.2,0.5-0.6,0.9-1,1.2
				c-0.5,0.3-1.1,0.5-1.7,0.5c-0.7,0.1-1.4-0.2-1.9-0.7c-0.5-0.6-0.7-1.4-0.6-2.1v-5h0.9v4.8c0,0.3,0,0.7,0.1,1
				c0.1,0.2,0.2,0.5,0.4,0.7c0.2,0.2,0.4,0.3,0.6,0.3c0.2,0.1,0.5,0.1,0.8,0.1c0.4,0,0.7-0.1,1.1-0.3c0.3-0.2,0.6-0.4,0.8-0.7
				s0.4-0.6,0.5-1c0.1-0.4,0.2-0.7,0.2-1.1L173.7,670.4z M179.1,678l-2.9-7.6h1l2.4,6.7l2.4-6.7h0.9L180,678H179.1z"/>
			<path class="st8" d="M259.3,670.4h1l1.9,6.6l1.6-6.4h0.9l1.6,6.4l1.9-6.6h0.9l-2.3,7.6h-1l-1.6-6.3l-1.6,6.3h-1L259.3,670.4z
				 M275.1,670.4h1l-2.5,3.6l2.8,4h-1.1l-2.3-3.3l-2.2,3.3h-1l2.7-4l-2.5-3.6h1l2,3L275.1,670.4z M276.9,670.4h1l2.4,6.2l2.5-6.2
				h0.9l-4.6,11h-0.9l1.6-3.7L276.9,670.4z M285,677.4l4.6-6.3H285v-0.8h5.6v0.6l-4.6,6.3h4.6v0.7H285V677.4z"/>
			<path class="st8" d="M45.1,702.2l0.3,8.8l-7.5-3.7l-0.8,1.8l8.1,3.2l-6.6,7.2l1.5,1.3l6-7.5l6.2,7.5l1.5-1.3l-7-7l8.3-3.4
				l-0.8-1.8l-7.4,3.8l0.3-8.9H45.1z"/>
			<path class="st9" d="M279.8,548.6c1.1,0,0.7-2.2,1.1-2.2c0-6.1-3.8-9.9-9.9-9.9h-16.5c-6.1,0-9.9,3.8-9.9,9.9
				c0.4,0,0,2.2,1.1,2.2c1.1,0,0.8-2.2,1.1-2.2c0-4.9,2.8-7.7,7.7-7.7H271c5,0,7.7,2.7,7.7,7.7C279.1,546.4,278.7,548.6,279.8,548.6
				z"/>
			<path class="st9" d="M79,550.8c1.1,0,0.7-2.2,1-2.2c0-6.1-3.8-9.9-9.9-9.9H53.8c-6,0-9.9,3.8-9.9,9.9c0.4,0,0,2.2,1.1,2.2
				s0.8-2.2,1.1-2.2c0-4.9,2.8-7.7,7.7-7.7h16.5c5,0,7.7,2.8,7.7,7.7C78.3,548.6,77.9,550.8,79,550.8z"/>
			<path class="st10" d="M262.8,554.1c3.3,0,6-2.7,6-6c0-3.3-2.7-6-6-6c-3.3,0-6,2.7-6,6C256.8,551.4,259.5,554.1,262.8,554.1z"/>
			<path class="st8" d="M262.2,545.3h1.1v5.5h-1.1V545.3z"/>
			<path class="st8" d="M45,501.4h34c0.6,0,1.1,0.5,1.1,1.1s-0.5,1.1-1,1.1H45c-0.6,0-1.1-0.5-1.1-1.1S44.4,501.4,45,501.4z"/>
			<path class="st8" d="M245.8,501.4h34c0.6,0,1.1,0.5,1.1,1.1s-0.5,1.1-1.1,1.1h-34c-0.6,0-1.1-0.5-1.1-1.1
				S245.1,501.4,245.8,501.4z"/>
			<path class="st8" d="M165.7,716.4v3.3H180v-3.3h-1.1v2.2h-12.1v-2.2H165.7z"/>
			<path class="st10" d="M62.8,594.7c2.3,0.3,4.4-1.2,4.7-3.5s-1.2-4.4-3.5-4.7c-2.3-0.3-4.4,1.2-4.7,3.5c0,0.2,0,0.4,0,0.6
				C59.1,592.7,60.7,594.5,62.8,594.7z"/>
			<path class="st10" d="M72.1,594.7c2.3,0.3,4.4-1.3,4.7-3.5c0.3-2.2-1.3-4.4-3.5-4.7c-2.2-0.3-4.4,1.3-4.7,3.5c0,0.2,0,0.4,0,0.6
				C68.4,592.7,70,594.5,72.1,594.7z"/>
			<path class="st8" d="M62.5,593.5h8.8v1.1h-8.8V593.5z"/>
			<path class="st8" d="M285.2,707.7v4.9l-3.8-3.1l-0.7,0.9l4.5,3.6v2.5c-0.6-0.2-1.2-0.3-1.8-0.1c-1.3,0.3-2.2,1.2-2,2
				c0.2,0.8,1.4,1.3,2.7,1.1c0.6-0.1,1.1-0.4,1.5-0.8h0.7v-3.8l3.8,3.1l0.7-0.9l-4.5-3.6v-3.9l1.3,1.3l0.8-0.8l-2.1-2.1v-0.3H285.2
				L285.2,707.7z"/>
			<path class="st8" d="M63.2,705.5l-0.4,1l6.9,3.2h-7.1v9.9h12.1v-9.9h-2.4L63.2,705.5z M63.6,711.9h2.2v2.2h-2.2V711.9L63.6,711.9
				z M68,711.9h5.5v2.2H68V711.9z"/>
			<path class="st8" d="M85.6,711v3.3h-3.3v1.1h3.3v3.3h1.1v-3.3H90v-1.1h-3.3V711H85.6z"/>
			<path class="st8" d="M264.4,712h1.1v5.5h-1.1V712z"/>
			<path class="st8" d="M264.4,717.5h5.5v1.1h-5.5V717.5z"/>
			<path class="st8" d="M268.8,712h1.1v5.5h-1.1V712z"/>
			<path class="st8" d="M267.3,709.2l0.8,0.8l-5,5l-0.8-0.8L267.3,709.2z"/>
			<path class="st8" d="M266.6,710l0.8-0.8l5,5l-0.8,0.8L266.6,710z"/>
			
				<radialGradient id="SVGID_8_" cx="-490.4546" cy="765.8864" r="1" gradientTransform="matrix(17.6 0 0 -17.6 8712.8184 13499.1777)" gradientUnits="userSpaceOnUse">
				<stop  offset="0" style="stop-color:#101010"/>
				<stop  offset="1" style="stop-color:#282828"/>
			</radialGradient>
			<path class="st11" d="M81.2,41.7c4.8,0,8.8-3.9,8.8-8.8s-3.9-8.8-8.8-8.8c-4.9,0-8.8,3.9-8.8,8.8S76.3,41.7,81.2,41.7z"/>
			
				<linearGradient id="SVGID_9_" gradientUnits="userSpaceOnUse" x1="81.2" y1="740.023" x2="81.2" y2="731.223" gradientTransform="matrix(1 0 0 -1 0 764)">
				<stop  offset="0" style="stop-color:#0E0E0E"/>
				<stop  offset="1" style="stop-color:#4E4E4E"/>
			</linearGradient>
			<path class="st12" d="M81.2,37.3c2.4,0,4.4-2,4.4-4.4c0-2.4-2-4.4-4.4-4.4c-2.4,0-4.4,2-4.4,4.4C76.8,35.3,78.8,37.3,81.2,37.3z"
				/>
			
				<radialGradient id="SVGID_10_" cx="-401.8182" cy="765.5455" r="1" gradientTransform="matrix(4.4 0 0 -4.4 1848.818 3396.7771)" gradientUnits="userSpaceOnUse">
				<stop  offset="0" style="stop-color:#0E0E0E"/>
				<stop  offset="1" style="stop-color:#212121"/>
			</radialGradient>
			<path class="st13" d="M81.2,35.1c1.2,0,2.2-1,2.2-2.2c0-1.2-1-2.2-2.2-2.2c-1.2,0-2.2,1-2.2,2.2C79,34.1,80,35.1,81.2,35.1z"/>
			
				<radialGradient id="SVGID_11_" cx="-47.2727" cy="764.1818" r="1" gradientTransform="matrix(1.1 0 0 -1.1 132.818 867.877)" gradientUnits="userSpaceOnUse">
				<stop  offset="0" style="stop-color:#FFFFFF"/>
				<stop  offset="1" style="stop-color:#FFFFFF;stop-opacity:0"/>
			</radialGradient>
			<path class="st14" d="M81.2,32.9c1.2,0,2.2-0.5,2.2-1.1c0-0.6-1-1.1-2.2-1.1c-1.2,0-2.2,0.5-2.2,1.1C79,32.4,80,32.9,81.2,32.9z"
				/>
			<path class="st15" d="M135.5,28.5h54.9c2.1,0,3.8,1.7,3.8,3.8v0.1c0,2.1-1.7,3.8-3.8,3.8h-54.9c-2.1,0-3.8-1.7-3.8-3.8v-0.1
				C131.7,30.2,133.4,28.5,135.5,28.5z"/>
			
				<linearGradient id="SVGID_12_" gradientUnits="userSpaceOnUse" x1="212.818" y1="731.6" x2="224.918" y2="731.6" gradientTransform="matrix(1 0 0 -1 0 764)">
				<stop  offset="0" style="stop-color:#575757"/>
				<stop  offset="5.000000e-02" style="stop-color:#B2B2B2"/>
				<stop  offset="0.13" style="stop-color:#575757"/>
				<stop  offset="0.41" style="stop-color:#303030"/>
				<stop  offset="0.52" style="stop-color:#909090"/>
				<stop  offset="0.61" style="stop-color:#303030"/>
				<stop  offset="0.81" style="stop-color:#575757"/>
				<stop  offset="0.89" style="stop-color:#303030"/>
			</linearGradient>
			<path class="st16" d="M218.9,38.4c3.3,0,6-2.7,6-6s-2.7-6-6-6c-3.3,0-6,2.7-6,6S215.6,38.4,218.9,38.4z"/>
			<path class="st17" d="M30.7,73.5H294v351.1H30.7V73.5z"/>
			<path class="st18" d="M31,386h263v39H31V386z"/>
			<path class="st19" d="M40.5,336.5h243v38h-243V336.5z"/>
			<path d="M46,410.2c-1.1,0-2.1-0.2-2.9-0.7c-0.8-0.5-1.5-1.2-1.9-2.1c-0.4-0.9-0.7-2-0.7-3.1s0.2-2.2,0.7-3.1
				c0.4-0.9,1.1-1.6,1.9-2.1c0.8-0.5,1.8-0.8,2.9-0.8c0.9,0,1.7,0.1,2.3,0.4c0.7,0.3,1.3,0.7,1.8,1.3c0.5,0.5,0.8,1.2,1.1,2
				l-1.9,0.5c-0.2-0.8-0.6-1.4-1.2-1.8c-0.5-0.4-1.2-0.6-2.1-0.6c-0.8,0-1.4,0.2-1.9,0.5c-0.5,0.3-0.9,0.8-1.2,1.5
				c-0.3,0.6-0.4,1.4-0.4,2.2c0,0.8,0.1,1.6,0.4,2.2c0.3,0.6,0.7,1.1,1.2,1.5c0.5,0.3,1.2,0.5,1.9,0.5c0.8,0,1.5-0.2,2.1-0.6
				c0.5-0.4,0.9-1,1.2-1.8l1.9,0.5c-0.2,0.8-0.6,1.4-1.1,2c-0.5,0.5-1.1,1-1.8,1.3C47.6,410.1,46.9,410.2,46,410.2z M55.3,410.2
				c-0.6,0-1.1-0.1-1.6-0.3c-0.4-0.2-0.8-0.5-1-0.9c-0.2-0.4-0.3-0.8-0.3-1.3c0-0.6,0.2-1.2,0.5-1.6c0.3-0.4,0.8-0.8,1.5-1
				c0.4-0.1,0.8-0.2,1.3-0.3c0.5-0.1,1.2-0.2,2.1-0.3l0.3,0c0-0.5-0.2-0.9-0.5-1.1c-0.3-0.2-0.7-0.4-1.3-0.4c-0.4,0-0.8,0.1-1.2,0.3
				c-0.3,0.2-0.6,0.5-0.7,0.9l-1.8-0.6c0.2-0.8,0.6-1.3,1.2-1.8c0.6-0.4,1.4-0.6,2.4-0.6c0.8,0,1.5,0.1,2.1,0.4
				c0.6,0.3,1,0.7,1.3,1.2c0.1,0.3,0.2,0.6,0.3,0.9c0,0.3,0.1,0.7,0.1,1.1v5.3h-1.7v-1.2c-0.4,0.5-0.8,0.8-1.3,1.1
				C56.6,410.1,56,410.2,55.3,410.2z M54.3,407.6c0,0.3,0.1,0.6,0.4,0.8c0.2,0.2,0.6,0.3,1,0.3c0.4,0,0.8-0.1,1.1-0.2
				c0.3-0.1,0.6-0.3,0.8-0.6c0.2-0.2,0.3-0.4,0.4-0.7c0.1-0.3,0.2-0.7,0.2-1.3c-0.8,0.1-1.4,0.2-1.8,0.3c-0.4,0.1-0.7,0.1-1,0.2
				c-0.3,0.1-0.6,0.3-0.8,0.5S54.3,407.3,54.3,407.6z M68.1,405.8c0-1.9-0.7-2.9-2-2.9c-0.6,0-1.1,0.2-1.4,0.6
				c-0.4,0.4-0.6,1.1-0.6,2v4.4h-2v-8.6h1.7v1c0.3-0.4,0.7-0.7,1.2-0.9c0.5-0.2,1-0.3,1.6-0.3c1,0,1.7,0.2,2.2,0.7
				c0.5,0.5,0.8,1,1,1.6c0.1,0.6,0.2,1.2,0.2,1.7v4.8h-2V405.8z M75.8,410.2c-0.9,0-1.6-0.2-2.3-0.6c-0.6-0.4-1.1-0.9-1.5-1.6
				c-0.3-0.7-0.5-1.5-0.5-2.4c0-0.9,0.2-1.7,0.5-2.4c0.3-0.7,0.8-1.2,1.5-1.6c0.6-0.4,1.4-0.6,2.3-0.6c0.7,0,1.2,0.1,1.8,0.3
				s1,0.5,1.3,1c0.4,0.4,0.6,0.9,0.7,1.5l-1.9,0.5c-0.1-0.5-0.4-0.8-0.7-1.1c-0.3-0.3-0.7-0.4-1.2-0.4c-0.7,0-1.3,0.3-1.6,0.8
				c-0.4,0.5-0.5,1.2-0.6,2c0,0.8,0.2,1.5,0.6,2c0.4,0.5,0.9,0.7,1.6,0.7c0.5,0,0.9-0.1,1.2-0.3c0.3-0.2,0.5-0.6,0.7-1l2,0.4
				c-0.3,0.9-0.7,1.6-1.4,2C77.6,410,76.7,410.2,75.8,410.2z M84.9,410.2c-0.9,0-1.6-0.2-2.3-0.6s-1.2-0.9-1.6-1.6
				c-0.4-0.7-0.6-1.4-0.6-2.3c0-0.9,0.2-1.7,0.5-2.4c0.4-0.7,0.9-1.2,1.5-1.6c0.7-0.4,1.4-0.6,2.2-0.6c0.8,0,1.6,0.2,2.2,0.6
				s1.1,0.9,1.4,1.6c0.3,0.7,0.5,1.5,0.5,2.4c0,0.2,0,0.4,0,0.6h-6.3c0.1,0.7,0.3,1.3,0.7,1.6c0.4,0.4,0.9,0.6,1.6,0.6
				c0.5,0,0.9-0.1,1.2-0.3c0.3-0.2,0.6-0.5,0.8-0.9l1.9,0.6c-0.2,0.5-0.5,1-0.9,1.3c-0.4,0.4-0.8,0.7-1.3,0.8
				C86,410.1,85.5,410.2,84.9,410.2z M86.9,404.8c-0.1-0.7-0.3-1.2-0.6-1.5c-0.3-0.3-0.8-0.5-1.4-0.5c-1.3,0-2,0.7-2.3,2H86.9z
				 M90.8,398.5h1.9V410h-1.9V398.5z"/>
			<path d="M249.7,410.2c-0.8,0-1.6-0.1-2.3-0.4c-0.7-0.3-1.2-0.7-1.7-1.3c-0.4-0.5-0.7-1.2-0.8-1.9l2-0.3c0.1,0.4,0.3,0.8,0.6,1.2
				c0.3,0.3,0.6,0.6,1,0.7c0.4,0.2,0.8,0.2,1.3,0.2c0.4,0,0.8-0.1,1.2-0.2c0.4-0.1,0.7-0.3,0.9-0.6c0.2-0.3,0.3-0.5,0.3-0.9
				c0-0.3-0.1-0.6-0.3-0.8c-0.2-0.2-0.5-0.4-1-0.5l-3-0.9c-0.4-0.1-0.9-0.3-1.2-0.5s-0.7-0.5-1-0.9c-0.3-0.4-0.4-0.9-0.4-1.5
				c0-0.7,0.2-1.3,0.5-1.8c0.4-0.5,0.9-0.9,1.5-1.1c0.6-0.3,1.3-0.4,2.1-0.4c0.8,0,1.5,0.1,2.1,0.4c0.6,0.3,1.2,0.6,1.6,1.2
				c0.4,0.5,0.7,1.1,0.9,1.8l-2.1,0.4c-0.1-0.4-0.3-0.7-0.5-1c-0.2-0.3-0.6-0.5-0.9-0.7c-0.4-0.2-0.7-0.2-1.1-0.2
				c-0.4,0-0.7,0.1-1,0.2c-0.3,0.1-0.6,0.3-0.8,0.5c-0.2,0.2-0.3,0.5-0.3,0.8c0,0.4,0.1,0.7,0.4,0.9c0.3,0.2,0.7,0.4,1.2,0.5
				l2.1,0.6c0.5,0.1,1,0.3,1.5,0.5c0.4,0.2,0.8,0.5,1.1,0.9c0.3,0.4,0.5,1,0.5,1.7c0,0.8-0.2,1.4-0.6,2c-0.4,0.5-1,0.9-1.6,1.2
				S250.5,410.2,249.7,410.2z M259.9,410.2c-0.9,0-1.6-0.2-2.3-0.6c-0.7-0.4-1.2-0.9-1.6-1.6c-0.4-0.7-0.6-1.4-0.6-2.3
				c0-0.9,0.2-1.7,0.5-2.4c0.4-0.7,0.9-1.2,1.5-1.6c0.7-0.4,1.4-0.6,2.2-0.6c0.8,0,1.6,0.2,2.2,0.6s1.1,0.9,1.4,1.6
				c0.3,0.7,0.5,1.5,0.5,2.4c0,0.2,0,0.4,0,0.6h-6.3c0.1,0.7,0.3,1.3,0.7,1.6c0.4,0.4,0.9,0.6,1.6,0.6c0.5,0,0.9-0.1,1.2-0.3
				c0.3-0.2,0.6-0.5,0.8-0.9l1.9,0.6c-0.2,0.5-0.5,1-0.9,1.3c-0.4,0.4-0.8,0.7-1.3,0.8C261,410.1,260.5,410.2,259.9,410.2z
				 M261.9,404.8c-0.1-0.7-0.3-1.2-0.6-1.5c-0.3-0.3-0.8-0.5-1.4-0.5c-1.3,0-2,0.7-2.3,2H261.9z M271.3,405.8c0-1.9-0.7-2.9-2-2.9
				c-0.6,0-1.1,0.2-1.4,0.6c-0.4,0.4-0.6,1.1-0.6,2v4.4h-2v-8.6h1.7v1c0.3-0.4,0.7-0.7,1.2-0.9c0.5-0.2,1-0.3,1.6-0.3
				c1,0,1.7,0.2,2.2,0.7c0.5,0.5,0.8,1,1,1.6c0.1,0.6,0.2,1.2,0.2,1.7v4.8h-2V405.8z M278.7,410.2c-0.8,0-1.5-0.2-2.1-0.6
				c-0.6-0.4-1.1-0.9-1.4-1.6c-0.3-0.7-0.5-1.5-0.5-2.3c0-0.9,0.2-1.7,0.5-2.3c0.3-0.7,0.8-1.2,1.4-1.6c0.6-0.4,1.3-0.6,2.1-0.6
				c0.8,0,1.5,0.2,2.2,0.7v-3.3h1.9V410h-1.7v-0.6C280.5,409.9,279.7,410.2,278.7,410.2z M276.8,405.7c0,0.5,0.1,1,0.2,1.5
				c0.2,0.4,0.4,0.8,0.7,1c0.3,0.2,0.7,0.4,1.2,0.4c0.7,0,1.3-0.3,1.6-0.8c0.4-0.5,0.5-1.2,0.5-2.1s-0.2-1.6-0.5-2.1
				c-0.3-0.5-0.9-0.8-1.6-0.8c-0.5,0-0.9,0.1-1.3,0.4c-0.3,0.2-0.6,0.6-0.8,1C276.9,404.7,276.8,405.1,276.8,405.7z"/>
			<path d="M42.2,89.5h2l2.3,8.3l2.3-8.3l2,0l2.3,8.3l2.3-8.3h2L54.1,101h-1.9l-2.4-8.2l-2.4,8.2h-1.9L42.2,89.5z M61.7,101.2
				c-0.9,0-1.6-0.2-2.3-0.6c-0.7-0.4-1.2-0.9-1.6-1.6c-0.4-0.7-0.6-1.4-0.6-2.3c0-0.9,0.2-1.7,0.5-2.4c0.4-0.7,0.9-1.2,1.5-1.6
				c0.7-0.4,1.4-0.6,2.2-0.6c0.8,0,1.6,0.2,2.2,0.6c0.6,0.4,1.1,0.9,1.4,1.6c0.3,0.7,0.5,1.5,0.5,2.4c0,0.2,0,0.4,0,0.6h-6.3
				c0.1,0.7,0.3,1.3,0.7,1.6c0.4,0.4,0.9,0.6,1.6,0.6c0.5,0,0.9-0.1,1.2-0.3c0.3-0.2,0.6-0.5,0.8-0.9l1.9,0.6
				c-0.2,0.5-0.5,1-0.9,1.3c-0.4,0.4-0.8,0.7-1.3,0.8C62.8,101.1,62.3,101.2,61.7,101.2z M63.7,95.8c-0.1-0.7-0.3-1.2-0.6-1.5
				c-0.3-0.3-0.8-0.5-1.4-0.5c-1.3,0-2,0.7-2.3,2H63.7z M67.6,89.5h1.9V101h-1.9V89.5z M75.6,101.2c-0.9,0-1.6-0.2-2.3-0.6
				c-0.6-0.4-1.1-0.9-1.5-1.6c-0.3-0.7-0.5-1.5-0.5-2.4c0-0.9,0.2-1.7,0.5-2.4c0.3-0.7,0.8-1.2,1.5-1.6c0.6-0.4,1.4-0.6,2.3-0.6
				c0.7,0,1.2,0.1,1.8,0.3s1,0.5,1.3,1c0.4,0.4,0.6,0.9,0.7,1.5l-1.9,0.5c-0.1-0.5-0.4-0.8-0.7-1.1c-0.3-0.3-0.7-0.4-1.2-0.4
				c-0.7,0-1.3,0.3-1.6,0.8c-0.4,0.5-0.5,1.2-0.6,2c0,0.8,0.2,1.5,0.6,2c0.4,0.5,0.9,0.7,1.6,0.7c0.5,0,0.9-0.1,1.2-0.3
				c0.3-0.2,0.5-0.6,0.7-1l2,0.4c-0.3,0.9-0.7,1.6-1.4,2C77.4,101,76.6,101.2,75.6,101.2z M84.7,101.2c-0.9,0-1.6-0.2-2.3-0.6
				c-0.7-0.4-1.2-0.9-1.5-1.6c-0.4-0.7-0.5-1.5-0.5-2.4c0-0.9,0.2-1.7,0.5-2.4c0.4-0.7,0.9-1.2,1.5-1.6c0.7-0.4,1.4-0.6,2.2-0.6
				c0.9,0,1.6,0.2,2.3,0.6c0.7,0.4,1.2,0.9,1.5,1.6c0.4,0.7,0.5,1.5,0.5,2.4c0,0.9-0.2,1.7-0.5,2.4c-0.4,0.7-0.9,1.2-1.5,1.6
				C86.3,101,85.5,101.2,84.7,101.2z M82.4,96.7c0,0.9,0.2,1.5,0.6,2c0.4,0.5,0.9,0.7,1.7,0.7c0.7,0,1.3-0.2,1.7-0.7
				c0.4-0.5,0.6-1.2,0.6-2c0-0.9-0.2-1.5-0.6-2c-0.4-0.5-0.9-0.7-1.7-0.7c-0.8,0-1.3,0.2-1.7,0.7C82.6,95.2,82.4,95.8,82.4,96.7z
				 M101.1,95.8c0-0.6-0.1-1-0.4-1.4c-0.3-0.3-0.7-0.5-1.2-0.5c-0.3,0-0.6,0.1-0.8,0.2c-0.2,0.1-0.4,0.4-0.6,0.6
				c-0.1,0.3-0.2,0.6-0.2,1v5.3h-1.9v-5.2c0-0.6-0.1-1.1-0.4-1.4c-0.3-0.3-0.7-0.5-1.2-0.5c-0.3,0-0.6,0.1-0.9,0.2
				c-0.2,0.1-0.4,0.4-0.6,0.6c-0.1,0.3-0.2,0.6-0.2,0.9v5.3h-1.9v-8.6h1.7v0.9c0.3-0.4,0.6-0.6,1.1-0.8c0.4-0.2,0.9-0.3,1.4-0.3
				c0.6,0,1.1,0.1,1.5,0.4c0.4,0.2,0.8,0.6,1,1c0.3-0.4,0.6-0.8,1.1-1c0.5-0.2,1-0.4,1.5-0.4c0.6,0,1.2,0.1,1.6,0.4
				c0.4,0.3,0.8,0.6,1,1.1c0.2,0.5,0.3,1,0.3,1.6v5.7h-1.9V95.8z M108.9,101.2c-0.9,0-1.6-0.2-2.3-0.6c-0.7-0.4-1.2-0.9-1.6-1.6
				c-0.4-0.7-0.6-1.4-0.6-2.3c0-0.9,0.2-1.7,0.5-2.4c0.4-0.7,0.9-1.2,1.5-1.6s1.4-0.6,2.2-0.6c0.8,0,1.6,0.2,2.2,0.6
				c0.6,0.4,1.1,0.9,1.4,1.6c0.3,0.7,0.5,1.5,0.5,2.4c0,0.2,0,0.4,0,0.6h-6.3c0.1,0.7,0.3,1.3,0.7,1.6c0.4,0.4,0.9,0.6,1.6,0.6
				c0.5,0,0.9-0.1,1.2-0.3c0.3-0.2,0.6-0.5,0.8-0.9l1.9,0.6c-0.2,0.5-0.5,1-0.9,1.3c-0.4,0.4-0.8,0.7-1.3,0.8
				C110,101.1,109.5,101.2,108.9,101.2z M110.9,95.8c-0.1-0.7-0.3-1.2-0.6-1.5c-0.3-0.3-0.8-0.5-1.4-0.5c-1.3,0-2,0.7-2.3,2H110.9z
				 M122.9,101c-0.5,0.1-1,0.2-1.5,0.2c-0.6,0-1.2-0.1-1.6-0.3c-0.5-0.2-0.8-0.5-1-0.9c-0.1-0.3-0.2-0.5-0.3-0.8
				c0-0.3-0.1-0.6-0.1-1l0-0.7v-3.6h-1.6v-1.5h1.6V90h1.9v2.4h2.5v1.5h-2.5v3.5v0.5c0,0.3,0,0.5,0,0.7c0,0.2,0.1,0.3,0.1,0.4
				c0.1,0.2,0.3,0.3,0.5,0.4c0.2,0.1,0.5,0.1,0.8,0.1c0.3,0,0.6,0,1-0.1V101z M128.1,101.2c-0.9,0-1.6-0.2-2.3-0.6
				c-0.7-0.4-1.2-0.9-1.5-1.6c-0.4-0.7-0.5-1.5-0.5-2.4c0-0.9,0.2-1.7,0.5-2.4c0.4-0.7,0.9-1.2,1.5-1.6c0.6-0.4,1.4-0.6,2.2-0.6
				c0.9,0,1.6,0.2,2.3,0.6c0.6,0.4,1.2,0.9,1.5,1.6c0.4,0.7,0.5,1.5,0.5,2.4c0,0.9-0.2,1.7-0.5,2.4c-0.4,0.7-0.9,1.2-1.5,1.6
				C129.7,101,129,101.2,128.1,101.2z M125.9,96.7c0,0.9,0.2,1.5,0.6,2c0.4,0.5,0.9,0.7,1.7,0.7c0.7,0,1.3-0.2,1.7-0.7
				c0.4-0.5,0.6-1.2,0.6-2c0-0.9-0.2-1.5-0.6-2c-0.4-0.5-0.9-0.7-1.7-0.7c-0.8,0-1.3,0.2-1.7,0.7C126.1,95.2,125.9,95.8,125.9,96.7z
				 M140.2,89.5h2.8l3.6,11.5h-2l-0.8-2.5h-4.5l-0.8,2.5h-2L140.2,89.5z M143.3,96.7l-1.7-5.4l-1.7,5.4H143.3z M148.5,92.2
				c0-0.3,0-0.6,0-0.8c0-0.2,0.1-0.5,0.1-0.7c0.1-0.3,0.2-0.5,0.4-0.7c0.3-0.3,0.6-0.5,0.9-0.6c0.4-0.1,0.7-0.1,1.2-0.1h0.2h1.1v1.6
				h-1c-0.4,0-0.6,0.1-0.8,0.3c-0.2,0.2-0.3,0.4-0.3,0.7v0.6h2.1v1.5h-2.1v7.1h-1.9v-7.1h-1.4v-1.5h1.4V92.2z M156.3,100.9l-3.5-8.6
				h2l2.4,6.2l2.3-6.2h1.9l-4.8,12.5h-1.8L156.3,100.9z M164.8,101.2c-0.6,0-1.1-0.1-1.6-0.3c-0.4-0.2-0.8-0.5-1-0.9
				c-0.2-0.4-0.3-0.8-0.3-1.3c0-0.6,0.2-1.2,0.5-1.6c0.3-0.4,0.8-0.8,1.5-1c0.4-0.1,0.8-0.2,1.3-0.3c0.5-0.1,1.2-0.2,2.1-0.3l0.3,0
				c0-0.5-0.2-0.9-0.5-1.1c-0.3-0.2-0.7-0.4-1.3-0.4c-0.4,0-0.8,0.1-1.2,0.3c-0.3,0.2-0.6,0.5-0.7,0.9l-1.8-0.6
				c0.2-0.8,0.6-1.3,1.2-1.8c0.6-0.4,1.4-0.6,2.4-0.6c0.8,0,1.5,0.1,2.1,0.4c0.6,0.3,1,0.7,1.3,1.2c0.1,0.3,0.2,0.6,0.3,0.9
				c0,0.3,0.1,0.7,0.1,1.1v5.3h-1.7v-1.2c-0.4,0.5-0.8,0.8-1.3,1.1S165.5,101.2,164.8,101.2z M163.8,98.6c0,0.3,0.1,0.6,0.4,0.8
				c0.2,0.2,0.6,0.3,1,0.3c0.4,0,0.8-0.1,1.1-0.2c0.3-0.1,0.6-0.3,0.8-0.6c0.2-0.2,0.3-0.4,0.4-0.7c0.1-0.3,0.2-0.7,0.2-1.3
				c-0.8,0.1-1.4,0.2-1.8,0.3c-0.4,0.1-0.7,0.1-1,0.2c-0.3,0.1-0.6,0.3-0.8,0.5C163.9,98.1,163.8,98.3,163.8,98.6z M174.8,89.5h4.8
				c0.4,0,0.7,0,0.9,0.1c1,0.1,1.7,0.6,2.2,1.2c0.5,0.7,0.7,1.5,0.7,2.5c0,0.6-0.1,1.2-0.3,1.7c-0.2,0.5-0.5,0.9-1,1.3
				c-0.4,0.3-1,0.6-1.6,0.7c-0.3,0-0.6,0.1-0.9,0.1h-2.8v4h-1.9V89.5z M179.5,95.2c0.3,0,0.5,0,0.7-0.1c0.4-0.1,0.8-0.3,1-0.7
				c0.2-0.4,0.3-0.7,0.3-1.2c0-0.4-0.1-0.8-0.3-1.2c-0.2-0.4-0.5-0.6-1-0.7c-0.2,0-0.4-0.1-0.7-0.1h-2.8v3.9H179.5z M187.3,101.2
				c-0.6,0-1.1-0.1-1.6-0.3c-0.4-0.2-0.8-0.5-1-0.9c-0.2-0.4-0.3-0.8-0.3-1.3c0-0.6,0.2-1.2,0.5-1.6c0.3-0.4,0.8-0.8,1.5-1
				c0.4-0.1,0.8-0.2,1.3-0.3c0.5-0.1,1.2-0.2,2.1-0.3l0.3,0c0-0.5-0.2-0.9-0.5-1.1c-0.3-0.2-0.7-0.4-1.3-0.4c-0.4,0-0.8,0.1-1.2,0.3
				c-0.3,0.2-0.6,0.5-0.7,0.9l-1.8-0.6c0.2-0.8,0.6-1.3,1.2-1.8c0.6-0.4,1.4-0.6,2.4-0.6c0.8,0,1.5,0.1,2.1,0.4
				c0.6,0.3,1,0.7,1.3,1.2c0.1,0.3,0.2,0.6,0.3,0.9c0,0.3,0.1,0.7,0.1,1.1v5.3h-1.7v-1.2c-0.4,0.5-0.8,0.8-1.3,1.1
				C188.5,101.1,187.9,101.2,187.3,101.2z M186.2,98.6c0,0.3,0.1,0.6,0.4,0.8c0.2,0.2,0.6,0.3,1,0.3c0.4,0,0.8-0.1,1.1-0.2
				c0.3-0.1,0.6-0.3,0.8-0.6c0.2-0.2,0.3-0.4,0.4-0.7c0.1-0.3,0.2-0.7,0.2-1.3c-0.8,0.1-1.4,0.2-1.8,0.3c-0.4,0.1-0.7,0.1-1,0.2
				c-0.3,0.1-0.6,0.3-0.8,0.5C186.3,98.1,186.2,98.3,186.2,98.6z M198.2,101.2c-0.9,0-1.6-0.2-2.2-0.7v4.3H194V92.4h1.7V93
				c0.6-0.6,1.4-0.9,2.4-0.9c0.8,0,1.5,0.2,2.1,0.6c0.6,0.4,1.1,0.9,1.4,1.6c0.3,0.7,0.5,1.5,0.5,2.3c0,0.9-0.2,1.6-0.5,2.3
				c-0.3,0.7-0.8,1.2-1.4,1.6C199.7,101,199,101.2,198.2,101.2z M195.7,96.7c0,0.9,0.2,1.6,0.5,2.1c0.4,0.5,0.9,0.8,1.6,0.8
				c0.5,0,0.9-0.1,1.2-0.4c0.3-0.2,0.6-0.6,0.7-1c0.2-0.4,0.2-0.9,0.2-1.5c0-0.5-0.1-1-0.2-1.4c-0.2-0.4-0.4-0.8-0.8-1
				c-0.3-0.3-0.8-0.4-1.3-0.4c-0.7,0-1.2,0.3-1.6,0.8C195.9,95.1,195.7,95.8,195.7,96.7z M203.6,102.2c0.3,0,0.5-0.1,0.7-0.2
				c0.2-0.2,0.2-0.4,0.2-0.7c0-0.1,0-0.1,0-0.3h-1v-2.1h2v2.1c0,0.6-0.1,1.1-0.4,1.5c-0.3,0.3-0.6,0.5-1.2,0.5c-0.1,0-0.3,0-0.4,0
				L203.6,102.2z M45.9,121.3l-3.9-6.8h2.2l2.6,4.6l2.6-4.6h2.2l-3.9,6.8v4.7h-2V121.3z M55.4,126.2c-0.9,0-1.6-0.2-2.3-0.6
				c-0.7-0.4-1.2-0.9-1.5-1.6c-0.4-0.7-0.5-1.5-0.5-2.4c0-0.9,0.2-1.7,0.5-2.4c0.4-0.7,0.9-1.2,1.5-1.6c0.7-0.4,1.4-0.6,2.2-0.6
				c0.9,0,1.6,0.2,2.3,0.6c0.7,0.4,1.2,0.9,1.5,1.6c0.4,0.7,0.5,1.5,0.5,2.4c0,0.9-0.2,1.7-0.5,2.4c-0.4,0.7-0.9,1.2-1.5,1.6
				C57,126,56.3,126.2,55.4,126.2z M53.2,121.7c0,0.9,0.2,1.5,0.6,2c0.4,0.5,0.9,0.7,1.7,0.7c0.7,0,1.3-0.2,1.7-0.7
				c0.4-0.5,0.6-1.2,0.6-2c0-0.9-0.2-1.5-0.6-2c-0.4-0.5-0.9-0.7-1.7-0.7c-0.8,0-1.3,0.2-1.7,0.7C53.4,120.2,53.2,120.8,53.2,121.7z
				 M64.8,126.2c-1,0-1.7-0.2-2.2-0.7c-0.5-0.5-0.8-1-1-1.6c-0.1-0.6-0.2-1.2-0.2-1.7v-4.8h2v4.2c0,1.9,0.7,2.9,2,2.9
				c0.6,0,1.1-0.2,1.4-0.6c0.4-0.4,0.6-1.1,0.6-2v-4.4h1.9v8.6h-1.7v-1c-0.3,0.4-0.7,0.7-1.2,0.9C65.9,126.1,65.4,126.2,64.8,126.2z
				 M71.5,117.4h1.7v1.4c0.2-0.4,0.5-0.7,0.9-0.9c0.2-0.2,0.5-0.3,0.8-0.4c0.3-0.1,0.6-0.1,0.9-0.1c0.2,0,0.3,0,0.5,0v1.8
				c-0.2-0.1-0.4-0.1-0.6-0.1c-0.4,0-0.8,0.1-1.2,0.3c-0.4,0.2-0.7,0.5-0.9,0.9c-0.2,0.4-0.3,0.8-0.3,1.4v4.4h-1.9V117.4z
				 M81.1,114.5H83v4.8h5.5v-4.8h1.9V126h-1.9v-4.9H83v4.9h-1.9V114.5z M96.6,126.2c-0.9,0-1.6-0.2-2.3-0.6
				c-0.7-0.4-1.2-0.9-1.6-1.6c-0.4-0.7-0.6-1.4-0.6-2.3c0-0.9,0.2-1.7,0.5-2.4c0.4-0.7,0.9-1.2,1.5-1.6c0.7-0.4,1.4-0.6,2.2-0.6
				c0.8,0,1.6,0.2,2.2,0.6c0.6,0.4,1.1,0.9,1.4,1.6c0.3,0.7,0.5,1.5,0.5,2.4c0,0.2,0,0.4,0,0.6h-6.3c0.1,0.7,0.3,1.3,0.7,1.6
				c0.4,0.4,0.9,0.6,1.6,0.6c0.5,0,0.9-0.1,1.2-0.3c0.3-0.2,0.6-0.5,0.8-0.9l1.9,0.6c-0.2,0.5-0.5,1-0.9,1.3
				c-0.4,0.4-0.8,0.7-1.3,0.8C97.7,126.1,97.1,126.2,96.6,126.2z M98.6,120.8c-0.1-0.7-0.3-1.2-0.6-1.5c-0.3-0.3-0.8-0.5-1.4-0.5
				c-1.3,0-2,0.7-2.3,2H98.6z M104.6,126.2c-0.6,0-1.1-0.1-1.6-0.3c-0.4-0.2-0.8-0.5-1-0.9c-0.2-0.4-0.3-0.8-0.3-1.3
				c0-0.6,0.2-1.2,0.5-1.6c0.3-0.4,0.8-0.8,1.5-1c0.4-0.1,0.8-0.2,1.3-0.3c0.5-0.1,1.2-0.2,2.1-0.3l0.3,0c0-0.5-0.2-0.9-0.5-1.1
				c-0.3-0.2-0.7-0.4-1.3-0.4c-0.4,0-0.8,0.1-1.2,0.3c-0.3,0.2-0.6,0.5-0.7,0.9l-1.8-0.6c0.2-0.8,0.6-1.3,1.2-1.8
				c0.6-0.4,1.4-0.6,2.4-0.6c0.8,0,1.5,0.1,2.1,0.4c0.6,0.3,1,0.7,1.3,1.2c0.1,0.3,0.2,0.6,0.3,0.9c0,0.3,0.1,0.7,0.1,1.1v5.3h-1.7
				v-1.2c-0.4,0.5-0.8,0.8-1.3,1.1C105.8,126.1,105.2,126.2,104.6,126.2z M103.5,123.6c0,0.3,0.1,0.6,0.4,0.8c0.2,0.2,0.6,0.3,1,0.3
				c0.4,0,0.8-0.1,1.1-0.2c0.3-0.1,0.6-0.3,0.8-0.6c0.2-0.2,0.3-0.4,0.4-0.7c0.1-0.3,0.2-0.7,0.2-1.3c-0.8,0.1-1.4,0.2-1.8,0.3
				c-0.4,0.1-0.7,0.1-1,0.2c-0.3,0.1-0.6,0.3-0.8,0.5C103.6,123.1,103.5,123.3,103.5,123.6z M111.5,114.5h1.9V126h-1.9V114.5z
				 M120.9,126c-0.5,0.1-1,0.2-1.5,0.2c-0.6,0-1.2-0.1-1.6-0.3c-0.5-0.2-0.8-0.5-1-0.9c-0.1-0.3-0.2-0.5-0.3-0.8
				c0-0.3-0.1-0.6-0.1-1l0-0.7v-3.6h-1.6v-1.5h1.6V115h1.9v2.4h2.5v1.5h-2.5v3.5v0.5c0,0.3,0,0.5,0,0.7c0,0.2,0.1,0.3,0.1,0.4
				c0.1,0.2,0.3,0.3,0.5,0.4c0.2,0.1,0.5,0.1,0.8,0.1c0.3,0,0.6,0,1-0.1V126z M128.7,121.8c0-1.9-0.7-2.9-2-2.9
				c-0.6,0-1.1,0.2-1.4,0.6c-0.4,0.4-0.6,1.1-0.6,2v4.4h-2v-11.5h1.7v3.8c0.3-0.4,0.7-0.7,1.2-0.9c0.5-0.2,1-0.3,1.6-0.3
				c1,0,1.7,0.2,2.2,0.7c0.5,0.5,0.8,1,1,1.6c0.1,0.6,0.2,1.2,0.2,1.7v4.8h-2V121.8z M140.9,126.2c-1.1,0-2.1-0.2-2.9-0.7
				c-0.8-0.5-1.5-1.2-1.9-2.1c-0.4-0.9-0.7-2-0.7-3.1c0-1.2,0.2-2.2,0.7-3.1c0.4-0.9,1.1-1.6,1.9-2.1c0.8-0.5,1.8-0.8,2.9-0.8
				c0.9,0,1.7,0.1,2.3,0.4c0.7,0.3,1.3,0.7,1.8,1.3c0.5,0.5,0.8,1.2,1.1,2l-1.9,0.5c-0.2-0.8-0.6-1.4-1.2-1.8s-1.2-0.6-2.1-0.6
				c-0.8,0-1.4,0.2-1.9,0.5c-0.5,0.3-0.9,0.8-1.2,1.5c-0.3,0.6-0.4,1.4-0.4,2.2c0,0.8,0.1,1.6,0.4,2.2c0.3,0.6,0.7,1.1,1.2,1.5
				c0.5,0.3,1.2,0.5,1.9,0.5c0.8,0,1.5-0.2,2.1-0.6s0.9-1,1.2-1.8l1.9,0.5c-0.2,0.8-0.6,1.4-1.1,2c-0.5,0.5-1.1,1-1.8,1.3
				C142.5,126.1,141.7,126.2,140.9,126.2z M151.6,126.2c-0.9,0-1.6-0.2-2.3-0.6c-0.7-0.4-1.2-0.9-1.5-1.6c-0.4-0.7-0.5-1.5-0.5-2.4
				c0-0.9,0.2-1.7,0.5-2.4c0.4-0.7,0.9-1.2,1.5-1.6c0.7-0.4,1.4-0.6,2.2-0.6c0.9,0,1.6,0.2,2.3,0.6c0.7,0.4,1.2,0.9,1.5,1.6
				c0.4,0.7,0.5,1.5,0.5,2.4c0,0.9-0.2,1.7-0.5,2.4c-0.4,0.7-0.9,1.2-1.5,1.6C153.2,126,152.5,126.2,151.6,126.2z M149.4,121.7
				c0,0.9,0.2,1.5,0.6,2c0.4,0.5,0.9,0.7,1.7,0.7c0.7,0,1.3-0.2,1.7-0.7c0.4-0.5,0.6-1.2,0.6-2c0-0.9-0.2-1.5-0.6-2
				c-0.4-0.5-0.9-0.7-1.7-0.7c-0.8,0-1.3,0.2-1.7,0.7C149.5,120.2,149.4,120.8,149.4,121.7z M168.1,120.8c0-0.6-0.1-1-0.4-1.4
				c-0.3-0.3-0.7-0.5-1.2-0.5c-0.3,0-0.6,0.1-0.8,0.2c-0.2,0.1-0.4,0.4-0.6,0.6c-0.1,0.3-0.2,0.6-0.2,1v5.3h-1.9v-5.2
				c0-0.6-0.1-1.1-0.4-1.4c-0.3-0.3-0.7-0.5-1.2-0.5c-0.3,0-0.6,0.1-0.9,0.2c-0.2,0.1-0.4,0.4-0.6,0.6c-0.1,0.3-0.2,0.6-0.2,0.9v5.3
				h-1.9v-8.6h1.7v0.9c0.3-0.4,0.6-0.6,1.1-0.8c0.4-0.2,0.9-0.3,1.4-0.3c0.6,0,1.1,0.1,1.5,0.4c0.4,0.2,0.8,0.6,1,1
				c0.3-0.4,0.6-0.8,1.1-1c0.5-0.2,1-0.4,1.5-0.4c0.6,0,1.2,0.1,1.6,0.4c0.4,0.3,0.8,0.6,1,1.1c0.2,0.5,0.3,1,0.3,1.6v5.7h-1.9
				V120.8z M176.2,126.2c-0.9,0-1.6-0.2-2.2-0.7v4.3h-1.9v-12.5h1.7v0.6c0.6-0.6,1.4-0.9,2.4-0.9c0.8,0,1.5,0.2,2.1,0.6
				c0.6,0.4,1.1,0.9,1.4,1.6c0.3,0.7,0.5,1.5,0.5,2.3c0,0.9-0.2,1.6-0.5,2.3c-0.3,0.7-0.8,1.2-1.4,1.6
				C177.7,126,177,126.2,176.2,126.2z M173.8,121.7c0,0.9,0.2,1.6,0.5,2.1c0.4,0.5,0.9,0.8,1.6,0.8c0.5,0,0.9-0.1,1.2-0.4
				c0.3-0.2,0.6-0.6,0.7-1c0.2-0.4,0.2-0.9,0.2-1.5c0-0.5-0.1-1-0.2-1.4c-0.2-0.4-0.4-0.8-0.8-1c-0.3-0.3-0.8-0.4-1.3-0.4
				c-0.7,0-1.2,0.3-1.6,0.8C173.9,120.1,173.8,120.8,173.8,121.7z M184.3,126.2c-0.6,0-1.1-0.1-1.6-0.3c-0.4-0.2-0.8-0.5-1-0.9
				c-0.2-0.4-0.3-0.8-0.3-1.3c0-0.6,0.2-1.2,0.5-1.6c0.3-0.4,0.8-0.8,1.5-1c0.4-0.1,0.8-0.2,1.3-0.3c0.5-0.1,1.2-0.2,2.1-0.3l0.3,0
				c0-0.5-0.2-0.9-0.5-1.1c-0.3-0.2-0.7-0.4-1.3-0.4c-0.4,0-0.8,0.1-1.2,0.3c-0.3,0.2-0.6,0.5-0.7,0.9l-1.8-0.6
				c0.2-0.8,0.6-1.3,1.2-1.8c0.6-0.4,1.4-0.6,2.4-0.6c0.8,0,1.5,0.1,2.1,0.4c0.6,0.3,1,0.7,1.3,1.2c0.1,0.3,0.2,0.6,0.3,0.9
				c0,0.3,0.1,0.7,0.1,1.1v5.3h-1.7v-1.2c-0.4,0.5-0.8,0.8-1.3,1.1C185.6,126.1,185,126.2,184.3,126.2z M183.3,123.6
				c0,0.3,0.1,0.6,0.4,0.8c0.2,0.2,0.6,0.3,1,0.3c0.4,0,0.8-0.1,1.1-0.2c0.3-0.1,0.6-0.3,0.8-0.6c0.2-0.2,0.3-0.4,0.4-0.7
				c0.1-0.3,0.2-0.7,0.2-1.3c-0.8,0.1-1.4,0.2-1.8,0.3c-0.4,0.1-0.7,0.1-1,0.2c-0.3,0.1-0.6,0.3-0.8,0.5
				C183.4,123.1,183.3,123.3,183.3,123.6z M197.1,121.8c0-1.9-0.7-2.9-2-2.9c-0.6,0-1.1,0.2-1.4,0.6c-0.4,0.4-0.6,1.1-0.6,2v4.4h-2
				v-8.6h1.7v1c0.3-0.4,0.7-0.7,1.2-0.9c0.5-0.2,1-0.3,1.6-0.3c1,0,1.7,0.2,2.2,0.7c0.5,0.5,0.8,1,1,1.6c0.2,0.6,0.2,1.2,0.2,1.7
				v4.8h-2V121.8z M201.3,114.3h1.9v1.8h-1.9V114.3z M201.3,117.4h1.9v8.6h-1.9V117.4z M209.5,126.2c-0.9,0-1.6-0.2-2.3-0.6
				c-0.6-0.4-1.2-0.9-1.5-1.6c-0.4-0.7-0.5-1.5-0.5-2.4c0-0.9,0.2-1.7,0.5-2.4c0.4-0.7,0.9-1.2,1.5-1.6c0.7-0.4,1.4-0.6,2.2-0.6
				c0.9,0,1.6,0.2,2.3,0.6c0.7,0.4,1.2,0.9,1.5,1.6c0.4,0.7,0.5,1.5,0.5,2.4c0,0.9-0.2,1.7-0.5,2.4c-0.4,0.7-0.9,1.2-1.5,1.6
				C211.1,126,210.3,126.2,209.5,126.2z M207.2,121.7c0,0.9,0.2,1.5,0.6,2c0.4,0.5,0.9,0.7,1.7,0.7c0.7,0,1.3-0.2,1.7-0.7
				c0.4-0.5,0.6-1.2,0.6-2c0-0.9-0.2-1.5-0.6-2c-0.4-0.5-0.9-0.7-1.7-0.7c-0.8,0-1.3,0.2-1.7,0.7
				C207.4,120.2,207.2,120.8,207.2,121.7z M221.5,121.8c0-1.9-0.7-2.9-2-2.9c-0.6,0-1.1,0.2-1.4,0.6c-0.4,0.4-0.6,1.1-0.6,2v4.4h-2
				v-8.6h1.7v1c0.3-0.4,0.7-0.7,1.2-0.9c0.5-0.2,1-0.3,1.6-0.3c1,0,1.7,0.2,2.2,0.7c0.5,0.5,0.8,1,1,1.6s0.2,1.2,0.2,1.7v4.8h-2
				V121.8z M225.5,127.2c0.3,0,0.5-0.1,0.7-0.2c0.2-0.2,0.2-0.4,0.2-0.7c0-0.1,0-0.1,0-0.3h-1v-2.1h2v2.1c0,0.6-0.1,1.1-0.4,1.5
				c-0.3,0.3-0.6,0.5-1.2,0.5c-0.1,0-0.3,0-0.4,0L225.5,127.2z M43.1,139.5H45v4.8h5.5v-4.8h1.9V151h-1.9v-4.9H45v4.9h-1.9V139.5z
				 M58.6,151.2c-0.9,0-1.6-0.2-2.3-0.6c-0.7-0.4-1.2-0.9-1.6-1.6c-0.4-0.7-0.6-1.4-0.6-2.3c0-0.9,0.2-1.7,0.5-2.4
				c0.4-0.7,0.9-1.2,1.5-1.6c0.7-0.4,1.4-0.6,2.2-0.6c0.8,0,1.6,0.2,2.2,0.6c0.6,0.4,1.1,0.9,1.4,1.6c0.3,0.7,0.5,1.5,0.5,2.4
				c0,0.2,0,0.4,0,0.6h-6.3c0.1,0.7,0.3,1.3,0.7,1.6c0.4,0.4,0.9,0.6,1.6,0.6c0.5,0,0.9-0.1,1.2-0.3c0.3-0.2,0.6-0.5,0.8-0.9
				l1.9,0.6c-0.2,0.5-0.5,1-0.9,1.3c-0.4,0.4-0.8,0.7-1.3,0.8C59.7,151.1,59.1,151.2,58.6,151.2z M60.6,145.8
				c-0.1-0.7-0.3-1.2-0.6-1.5c-0.3-0.3-0.8-0.5-1.4-0.5c-1.3,0-2,0.7-2.3,2H60.6z M64.5,139.5h1.9V151h-1.9V139.5z M72.9,151.2
				c-0.9,0-1.6-0.2-2.2-0.7v4.3h-1.9v-12.5h1.7v0.6c0.6-0.6,1.4-0.9,2.4-0.9c0.8,0,1.5,0.2,2.1,0.6c0.6,0.4,1.1,0.9,1.4,1.6
				c0.3,0.7,0.5,1.5,0.5,2.3c0,0.9-0.2,1.6-0.5,2.3c-0.3,0.7-0.8,1.2-1.4,1.6C74.4,151,73.7,151.2,72.9,151.2z M70.5,146.7
				c0,0.9,0.2,1.6,0.5,2.1c0.4,0.5,0.9,0.8,1.6,0.8c0.5,0,0.9-0.1,1.2-0.4c0.3-0.2,0.6-0.6,0.7-1c0.2-0.4,0.2-0.9,0.2-1.5
				c0-0.5-0.1-1-0.2-1.4c-0.2-0.4-0.4-0.8-0.8-1c-0.3-0.3-0.8-0.4-1.3-0.4c-0.7,0-1.2,0.3-1.6,0.8C70.6,145.1,70.5,145.8,70.5,146.7
				z M78.8,139.3h1.9v1.8h-1.9V139.3z M78.8,142.4h1.9v8.6h-1.9V142.4z M89.1,146.8c0-1.9-0.7-2.9-2-2.9c-0.6,0-1.1,0.2-1.4,0.6
				c-0.4,0.4-0.6,1.1-0.6,2v4.4h-2v-8.6h1.7v1c0.3-0.4,0.7-0.7,1.2-0.9c0.5-0.2,1-0.3,1.6-0.3c1,0,1.7,0.2,2.2,0.7
				c0.5,0.5,0.8,1,1,1.6s0.2,1.2,0.2,1.7v4.8h-2V146.8z M96.8,155.1c-0.7,0-1.4-0.2-2-0.5c-0.6-0.3-1.1-0.8-1.4-1.4l1.8-0.9
				c0.2,0.3,0.4,0.5,0.7,0.7c0.3,0.2,0.6,0.2,1,0.2c0.6,0,1.1-0.2,1.5-0.5c0.4-0.3,0.6-0.8,0.6-1.4v-0.8c-0.6,0.5-1.4,0.7-2.2,0.7
				c-0.8,0-1.5-0.2-2.1-0.6c-0.6-0.4-1.1-0.9-1.4-1.6c-0.3-0.7-0.5-1.5-0.5-2.3c0-0.9,0.2-1.7,0.5-2.3c0.3-0.7,0.8-1.2,1.4-1.6
				c0.6-0.4,1.3-0.6,2.1-0.6c1,0,1.8,0.3,2.4,0.9v-0.6h1.7v9.1c0,0.5,0,0.9-0.1,1.2c-0.2,0.8-0.6,1.4-1.3,1.8
				C98.6,154.9,97.8,155.1,96.8,155.1z M94.7,146.7c0,0.5,0.1,1,0.2,1.5c0.2,0.4,0.4,0.8,0.7,1c0.3,0.2,0.7,0.4,1.2,0.4
				c0.7,0,1.3-0.3,1.6-0.8c0.4-0.5,0.5-1.2,0.5-2.1c0-0.9-0.2-1.6-0.5-2.1c-0.3-0.5-0.9-0.8-1.6-0.8c-0.5,0-0.9,0.1-1.3,0.4
				c-0.3,0.2-0.6,0.6-0.8,1C94.8,145.7,94.7,146.1,94.7,146.7z M108.8,150.9l-3.5-8.6h2l2.4,6.2l2.3-6.2h1.9l-4.8,12.5h-1.8
				L108.8,150.9z M118.7,151.2c-0.9,0-1.6-0.2-2.3-0.6c-0.7-0.4-1.2-0.9-1.5-1.6c-0.4-0.7-0.5-1.5-0.5-2.4c0-0.9,0.2-1.7,0.5-2.4
				c0.4-0.7,0.9-1.2,1.5-1.6c0.7-0.4,1.4-0.6,2.2-0.6c0.9,0,1.6,0.2,2.3,0.6c0.7,0.4,1.2,0.9,1.5,1.6c0.4,0.7,0.5,1.5,0.5,2.4
				c0,0.9-0.2,1.7-0.5,2.4c-0.4,0.7-0.9,1.2-1.5,1.6C120.3,151,119.5,151.2,118.7,151.2z M116.4,146.7c0,0.9,0.2,1.5,0.6,2
				c0.4,0.5,0.9,0.7,1.7,0.7c0.7,0,1.3-0.2,1.7-0.7c0.4-0.5,0.6-1.2,0.6-2c0-0.9-0.2-1.5-0.6-2c-0.4-0.5-0.9-0.7-1.7-0.7
				c-0.8,0-1.3,0.2-1.7,0.7C116.6,145.2,116.4,145.8,116.4,146.7z M128,151.2c-1,0-1.7-0.2-2.2-0.7c-0.5-0.5-0.8-1-1-1.6
				c-0.1-0.6-0.2-1.2-0.2-1.7v-4.8h2v4.2c0,1.9,0.7,2.9,2,2.9c0.6,0,1.1-0.2,1.4-0.6c0.4-0.4,0.6-1.1,0.6-2v-4.4h1.9v8.6h-1.7v-1
				c-0.3,0.4-0.7,0.7-1.2,0.9C129.1,151.1,128.6,151.2,128,151.2z M148.3,145.8c0-0.6-0.1-1-0.4-1.4s-0.7-0.5-1.2-0.5
				c-0.3,0-0.6,0.1-0.8,0.2c-0.2,0.1-0.4,0.4-0.6,0.6c-0.1,0.3-0.2,0.6-0.2,1v5.3h-1.9v-5.2c0-0.6-0.1-1.1-0.4-1.4
				c-0.3-0.3-0.7-0.5-1.2-0.5c-0.3,0-0.6,0.1-0.9,0.2c-0.2,0.1-0.4,0.4-0.6,0.6c-0.1,0.3-0.2,0.6-0.2,0.9v5.3h-1.9v-8.6h1.7v0.9
				c0.3-0.4,0.6-0.6,1.1-0.8c0.4-0.2,0.9-0.3,1.4-0.3c0.6,0,1.1,0.1,1.5,0.4c0.4,0.2,0.8,0.6,1,1c0.3-0.4,0.6-0.8,1.1-1
				c0.5-0.2,1-0.4,1.5-0.4c0.6,0,1.2,0.1,1.6,0.4c0.4,0.3,0.8,0.6,1,1.1c0.2,0.5,0.3,1,0.3,1.6v5.7h-1.9V145.8z M154.8,151.2
				c-0.6,0-1.1-0.1-1.6-0.3c-0.4-0.2-0.8-0.5-1-0.9c-0.2-0.4-0.3-0.8-0.3-1.3c0-0.6,0.2-1.2,0.5-1.6c0.3-0.4,0.8-0.8,1.5-1
				c0.4-0.1,0.8-0.2,1.3-0.3c0.5-0.1,1.2-0.2,2.1-0.3l0.3,0c0-0.5-0.2-0.9-0.5-1.1c-0.3-0.2-0.7-0.4-1.3-0.4c-0.4,0-0.8,0.1-1.2,0.3
				c-0.3,0.2-0.6,0.5-0.7,0.9l-1.8-0.6c0.2-0.8,0.6-1.3,1.2-1.8c0.6-0.4,1.4-0.6,2.4-0.6c0.8,0,1.5,0.1,2.1,0.4
				c0.6,0.3,1,0.7,1.3,1.2c0.1,0.3,0.2,0.6,0.3,0.9c0,0.3,0.1,0.7,0.1,1.1v5.3h-1.7v-1.2c-0.4,0.5-0.8,0.8-1.3,1.1
				C156,151.1,155.4,151.2,154.8,151.2z M153.7,148.6c0,0.3,0.1,0.6,0.4,0.8c0.2,0.2,0.6,0.3,1,0.3c0.4,0,0.8-0.1,1.1-0.2
				c0.3-0.1,0.6-0.3,0.8-0.6c0.2-0.2,0.3-0.4,0.4-0.7c0.1-0.3,0.2-0.7,0.2-1.3c-0.8,0.1-1.4,0.2-1.8,0.3c-0.4,0.1-0.7,0.1-1,0.2
				c-0.3,0.1-0.6,0.3-0.8,0.5S153.7,148.3,153.7,148.6z M167.5,146.8c0-1.9-0.7-2.9-2-2.9c-0.6,0-1.1,0.2-1.4,0.6
				c-0.4,0.4-0.6,1.1-0.6,2v4.4h-2v-8.6h1.7v1c0.3-0.4,0.7-0.7,1.2-0.9c0.5-0.2,1-0.3,1.6-0.3c1,0,1.7,0.2,2.2,0.7
				c0.5,0.5,0.8,1,1,1.6c0.1,0.6,0.2,1.2,0.2,1.7v4.8h-2V146.8z M174,151.2c-0.6,0-1.1-0.1-1.6-0.3c-0.4-0.2-0.8-0.5-1-0.9
				c-0.2-0.4-0.3-0.8-0.3-1.3c0-0.6,0.2-1.2,0.5-1.6c0.3-0.4,0.8-0.8,1.5-1c0.4-0.1,0.8-0.2,1.3-0.3c0.5-0.1,1.2-0.2,2.1-0.3l0.3,0
				c0-0.5-0.2-0.9-0.5-1.1c-0.3-0.2-0.7-0.4-1.3-0.4c-0.4,0-0.8,0.1-1.2,0.3c-0.3,0.2-0.6,0.5-0.7,0.9l-1.8-0.6
				c0.2-0.8,0.6-1.3,1.2-1.8c0.6-0.4,1.4-0.6,2.4-0.6c0.8,0,1.5,0.1,2.1,0.4c0.6,0.3,1,0.7,1.3,1.2c0.1,0.3,0.2,0.6,0.3,0.9
				c0,0.3,0.1,0.7,0.1,1.1v5.3H177v-1.2c-0.4,0.5-0.8,0.8-1.3,1.1C175.3,151.1,174.7,151.2,174,151.2z M173,148.6
				c0,0.3,0.1,0.6,0.4,0.8c0.2,0.2,0.6,0.3,1,0.3c0.4,0,0.8-0.1,1.1-0.2c0.3-0.1,0.6-0.3,0.8-0.6c0.2-0.2,0.3-0.4,0.4-0.7
				c0.1-0.3,0.2-0.7,0.2-1.3c-0.8,0.1-1.4,0.2-1.8,0.3c-0.4,0.1-0.7,0.1-1,0.2c-0.3,0.1-0.6,0.3-0.8,0.5
				C173.1,148.1,173,148.3,173,148.6z M184.4,155.1c-0.7,0-1.4-0.2-2-0.5c-0.6-0.3-1.1-0.8-1.4-1.4l1.8-0.9c0.2,0.3,0.4,0.5,0.7,0.7
				c0.3,0.2,0.6,0.2,1,0.2c0.6,0,1.1-0.2,1.5-0.5c0.4-0.3,0.6-0.8,0.6-1.4v-0.8c-0.6,0.5-1.4,0.7-2.2,0.7c-0.8,0-1.5-0.2-2.1-0.6
				c-0.6-0.4-1.1-0.9-1.4-1.6c-0.3-0.7-0.5-1.5-0.5-2.3c0-0.9,0.2-1.7,0.5-2.3c0.3-0.7,0.8-1.2,1.4-1.6c0.6-0.4,1.3-0.6,2.1-0.6
				c1,0,1.8,0.3,2.4,0.9v-0.6h1.7v9.1c0,0.5,0,0.9-0.1,1.2c-0.2,0.8-0.6,1.4-1.3,1.8C186.3,154.9,185.4,155.1,184.4,155.1z
				 M182.4,146.7c0,0.5,0.1,1,0.2,1.5c0.2,0.4,0.4,0.8,0.7,1c0.3,0.2,0.7,0.4,1.2,0.4c0.7,0,1.3-0.3,1.6-0.8
				c0.4-0.5,0.5-1.2,0.5-2.1c0-0.9-0.2-1.6-0.5-2.1c-0.3-0.5-0.9-0.8-1.6-0.8c-0.5,0-0.9,0.1-1.3,0.4c-0.3,0.2-0.6,0.6-0.8,1
				C182.4,145.7,182.4,146.1,182.4,146.7z M194.6,151.2c-0.9,0-1.6-0.2-2.3-0.6c-0.7-0.4-1.2-0.9-1.6-1.6c-0.4-0.7-0.6-1.4-0.6-2.3
				c0-0.9,0.2-1.7,0.5-2.4c0.4-0.7,0.9-1.2,1.5-1.6c0.7-0.4,1.4-0.6,2.2-0.6c0.8,0,1.6,0.2,2.2,0.6s1.1,0.9,1.4,1.6
				c0.3,0.7,0.5,1.5,0.5,2.4c0,0.2,0,0.4,0,0.6h-6.3c0.1,0.7,0.3,1.3,0.7,1.6c0.4,0.4,0.9,0.6,1.6,0.6c0.5,0,0.9-0.1,1.2-0.3
				c0.3-0.2,0.6-0.5,0.8-0.9l1.9,0.6c-0.2,0.5-0.5,1-0.9,1.3c-0.4,0.4-0.8,0.7-1.3,0.8C195.7,151.1,195.1,151.2,194.6,151.2z
				 M196.5,145.8c-0.1-0.7-0.3-1.2-0.6-1.5c-0.3-0.3-0.8-0.5-1.4-0.5c-1.3,0-2,0.7-2.3,2H196.5z M206,150.9l-3.5-8.6h2l2.4,6.2
				l2.3-6.2h1.9l-4.8,12.5h-1.8L206,150.9z M215.9,151.2c-0.9,0-1.6-0.2-2.3-0.6c-0.7-0.4-1.2-0.9-1.5-1.6c-0.4-0.7-0.5-1.5-0.5-2.4
				c0-0.9,0.2-1.7,0.5-2.4c0.4-0.7,0.9-1.2,1.5-1.6c0.7-0.4,1.4-0.6,2.2-0.6c0.9,0,1.6,0.2,2.3,0.6c0.7,0.4,1.2,0.9,1.5,1.6
				c0.4,0.7,0.5,1.5,0.5,2.4c0,0.9-0.2,1.7-0.5,2.4c-0.4,0.7-0.9,1.2-1.5,1.6C217.5,151,216.8,151.2,215.9,151.2z M213.7,146.7
				c0,0.9,0.2,1.5,0.6,2c0.4,0.5,0.9,0.7,1.7,0.7c0.7,0,1.3-0.2,1.7-0.7c0.4-0.5,0.6-1.2,0.6-2c0-0.9-0.2-1.5-0.6-2
				c-0.4-0.5-0.9-0.7-1.7-0.7c-0.8,0-1.3,0.2-1.7,0.7C213.9,145.2,213.7,145.8,213.7,146.7z M225.3,151.2c-1,0-1.7-0.2-2.2-0.7
				c-0.5-0.5-0.8-1-1-1.6c-0.1-0.6-0.2-1.2-0.2-1.7v-4.8h2v4.2c0,1.9,0.7,2.9,2,2.9c0.6,0,1.1-0.2,1.4-0.6c0.4-0.4,0.6-1.1,0.6-2
				v-4.4h1.9v8.6h-1.7v-1c-0.3,0.4-0.7,0.7-1.2,0.9C226.4,151.1,225.9,151.2,225.3,151.2z M232,142.4h1.7v1.4
				c0.2-0.4,0.5-0.7,0.9-0.9c0.2-0.2,0.5-0.3,0.8-0.4c0.3-0.1,0.6-0.1,0.9-0.1c0.2,0,0.3,0,0.5,0v1.8c-0.2-0.1-0.4-0.1-0.6-0.1
				c-0.4,0-0.8,0.1-1.2,0.3c-0.4,0.2-0.7,0.5-0.9,0.9c-0.2,0.4-0.3,0.8-0.3,1.4v4.4H232V142.4z M49.1,171.8c0-1.9-0.7-2.9-2-2.9
				c-0.6,0-1.1,0.2-1.4,0.6c-0.4,0.4-0.6,1.1-0.6,2v4.4h-2v-11.5h1.7v3.8c0.3-0.4,0.7-0.7,1.2-0.9c0.5-0.2,1-0.3,1.6-0.3
				c1,0,1.7,0.2,2.2,0.7c0.5,0.5,0.8,1,1,1.6s0.2,1.2,0.2,1.7v4.8h-2V171.8z M57.1,176.2c-0.9,0-1.6-0.2-2.3-0.6
				c-0.7-0.4-1.2-0.9-1.6-1.6c-0.4-0.7-0.6-1.4-0.6-2.3c0-0.9,0.2-1.7,0.5-2.4c0.4-0.7,0.9-1.2,1.5-1.6c0.7-0.4,1.4-0.6,2.2-0.6
				c0.8,0,1.6,0.2,2.2,0.6c0.6,0.4,1.1,0.9,1.4,1.6c0.3,0.7,0.5,1.5,0.5,2.4c0,0.2,0,0.4,0,0.6h-6.3c0.1,0.7,0.3,1.3,0.7,1.6
				c0.4,0.4,0.9,0.6,1.6,0.6c0.5,0,0.9-0.1,1.2-0.3c0.3-0.2,0.6-0.5,0.8-0.9l1.9,0.6c-0.2,0.5-0.5,1-0.9,1.3
				c-0.4,0.4-0.8,0.7-1.3,0.8C58.1,176.1,57.6,176.2,57.1,176.2z M59,170.8c-0.1-0.7-0.3-1.2-0.6-1.5c-0.3-0.3-0.8-0.5-1.4-0.5
				c-1.3,0-2,0.7-2.3,2H59z M65,176.2c-0.6,0-1.1-0.1-1.6-0.3c-0.4-0.2-0.8-0.5-1-0.9c-0.2-0.4-0.3-0.8-0.3-1.3
				c0-0.6,0.2-1.2,0.5-1.6c0.3-0.4,0.8-0.8,1.5-1c0.4-0.1,0.8-0.2,1.3-0.3c0.5-0.1,1.2-0.2,2.1-0.3l0.3,0c0-0.5-0.2-0.9-0.5-1.1
				c-0.3-0.2-0.7-0.4-1.3-0.4c-0.4,0-0.8,0.1-1.2,0.3c-0.3,0.2-0.6,0.5-0.7,0.9l-1.8-0.6c0.2-0.8,0.6-1.3,1.2-1.8
				c0.6-0.4,1.4-0.6,2.4-0.6c0.8,0,1.5,0.1,2.1,0.4c0.6,0.3,1,0.7,1.3,1.2c0.1,0.3,0.2,0.6,0.3,0.9c0,0.3,0.1,0.7,0.1,1.1v5.3h-1.7
				v-1.2c-0.4,0.5-0.8,0.8-1.3,1.1C66.3,176.1,65.7,176.2,65,176.2z M64,173.6c0,0.3,0.1,0.6,0.4,0.8c0.2,0.2,0.6,0.3,1,0.3
				c0.4,0,0.8-0.1,1.1-0.2c0.3-0.1,0.6-0.3,0.8-0.6c0.2-0.2,0.3-0.4,0.4-0.7c0.1-0.3,0.2-0.7,0.2-1.3c-0.8,0.1-1.4,0.2-1.8,0.3
				c-0.4,0.1-0.7,0.1-1,0.2c-0.3,0.1-0.6,0.3-0.8,0.5C64.1,173.1,64,173.3,64,173.6z M72,164.5h1.9V176H72V164.5z M81.4,176
				c-0.5,0.1-1,0.2-1.5,0.2c-0.6,0-1.2-0.1-1.6-0.3c-0.5-0.2-0.8-0.5-1-0.9c-0.1-0.3-0.2-0.5-0.3-0.8c0-0.3-0.1-0.6-0.1-1l0-0.7
				v-3.6h-1.6v-1.5h1.6V165h1.9v2.4h2.5v1.5h-2.5v3.5v0.5c0,0.3,0,0.5,0,0.7c0,0.2,0.1,0.3,0.1,0.4c0.1,0.2,0.3,0.3,0.5,0.4
				c0.2,0.1,0.5,0.1,0.8,0.1c0.3,0,0.6,0,1-0.1V176z M89.2,171.8c0-1.9-0.7-2.9-2-2.9c-0.6,0-1.1,0.2-1.4,0.6
				c-0.4,0.4-0.6,1.1-0.6,2v4.4h-2v-11.5h1.7v3.8c0.3-0.4,0.7-0.7,1.2-0.9c0.5-0.2,1-0.3,1.6-0.3c1,0,1.7,0.2,2.2,0.7
				c0.5,0.5,0.8,1,1,1.6c0.1,0.6,0.2,1.2,0.2,1.7v4.8h-2V171.8z M93.6,174h2v2h-2V174z M50.5,191.6l-2.2,1.3v-2.1l2.2-1.3h2V201h-2
				V191.6z M57.2,199h2v2h-2V199z M72,201.2c-1.1,0-2.1-0.2-2.9-0.7c-0.8-0.5-1.5-1.2-1.9-2.1c-0.4-0.9-0.7-2-0.7-3.1
				c0-1.2,0.2-2.2,0.7-3.1c0.4-0.9,1.1-1.6,1.9-2.1c0.8-0.5,1.8-0.8,2.9-0.8c0.9,0,1.7,0.1,2.3,0.4c0.7,0.3,1.3,0.7,1.8,1.3
				c0.5,0.5,0.8,1.2,1.1,2l-1.9,0.5c-0.2-0.8-0.6-1.4-1.2-1.8c-0.5-0.4-1.2-0.6-2.1-0.6c-0.8,0-1.4,0.2-1.9,0.5
				c-0.5,0.3-0.9,0.8-1.2,1.5c-0.3,0.6-0.4,1.4-0.4,2.2c0,0.8,0.1,1.6,0.4,2.2c0.3,0.6,0.7,1.1,1.2,1.5c0.5,0.3,1.2,0.5,1.9,0.5
				c0.8,0,1.5-0.2,2.1-0.6s0.9-1,1.2-1.8l1.9,0.5c-0.2,0.8-0.6,1.4-1.1,2c-0.5,0.5-1.1,1-1.8,1.3C73.6,201.1,72.9,201.2,72,201.2z
				 M82.7,201.2c-0.9,0-1.6-0.2-2.3-0.6c-0.7-0.4-1.2-0.9-1.5-1.6c-0.4-0.7-0.5-1.5-0.5-2.4c0-0.9,0.2-1.7,0.5-2.4
				c0.4-0.7,0.9-1.2,1.5-1.6c0.7-0.4,1.4-0.6,2.2-0.6c0.9,0,1.6,0.2,2.3,0.6c0.7,0.4,1.2,0.9,1.5,1.6c0.4,0.7,0.5,1.5,0.5,2.4
				c0,0.9-0.2,1.7-0.5,2.4c-0.4,0.7-0.9,1.2-1.5,1.6C84.3,201,83.6,201.2,82.7,201.2z M80.5,196.7c0,0.9,0.2,1.5,0.6,2
				c0.4,0.5,0.9,0.7,1.7,0.7c0.7,0,1.3-0.2,1.7-0.7c0.4-0.5,0.6-1.2,0.6-2c0-0.9-0.2-1.5-0.6-2c-0.4-0.5-0.9-0.7-1.7-0.7
				c-0.8,0-1.3,0.2-1.7,0.7C80.7,195.2,80.5,195.8,80.5,196.7z M94.8,196.8c0-1.9-0.7-2.9-2-2.9c-0.6,0-1.1,0.2-1.4,0.6
				c-0.4,0.4-0.6,1.1-0.6,2v4.4h-2v-8.6h1.7v1c0.3-0.4,0.7-0.7,1.2-0.9c0.5-0.2,1-0.3,1.6-0.3c1,0,1.7,0.2,2.2,0.7
				c0.5,0.5,0.8,1,1,1.6c0.1,0.6,0.2,1.2,0.2,1.7v4.8h-2V196.8z M103.9,201c-0.5,0.1-1,0.2-1.5,0.2c-0.6,0-1.2-0.1-1.6-0.3
				c-0.5-0.2-0.8-0.5-1-0.9c-0.1-0.3-0.2-0.5-0.3-0.8c0-0.3-0.1-0.6-0.1-1l0-0.7v-3.6h-1.6v-1.5h1.6V190h1.9v2.4h2.5v1.5h-2.5v3.5
				v0.5c0,0.3,0,0.5,0,0.7c0,0.2,0.1,0.3,0.1,0.4c0.1,0.2,0.3,0.3,0.5,0.4c0.2,0.1,0.5,0.1,0.8,0.1c0.3,0,0.6,0,1-0.1V201z
				 M105.9,189.3h1.9v1.8h-1.9V189.3z M105.9,192.4h1.9v8.6h-1.9V192.4z M116.2,196.8c0-1.9-0.7-2.9-2-2.9c-0.6,0-1.1,0.2-1.4,0.6
				c-0.4,0.4-0.6,1.1-0.6,2v4.4h-2v-8.6h1.7v1c0.3-0.4,0.7-0.7,1.2-0.9c0.5-0.2,1-0.3,1.6-0.3c1,0,1.7,0.2,2.2,0.7
				c0.5,0.5,0.8,1,1,1.6c0.1,0.6,0.2,1.2,0.2,1.7v4.8h-2V196.8z M123.5,201.2c-1,0-1.7-0.2-2.2-0.7c-0.5-0.5-0.8-1-1-1.6
				c-0.1-0.6-0.2-1.2-0.2-1.7v-4.8h2v4.2c0,1.9,0.7,2.9,2,2.9c0.6,0,1.1-0.2,1.4-0.6c0.4-0.4,0.6-1.1,0.6-2v-4.4h1.9v8.6h-1.7v-1
				c-0.3,0.4-0.7,0.7-1.2,0.9C124.7,201.1,124.1,201.2,123.5,201.2z M134.2,201.2c-0.9,0-1.6-0.2-2.3-0.6c-0.7-0.4-1.2-0.9-1.6-1.6
				c-0.4-0.7-0.6-1.4-0.6-2.3c0-0.9,0.2-1.7,0.5-2.4c0.4-0.7,0.9-1.2,1.5-1.6c0.7-0.4,1.4-0.6,2.2-0.6c0.8,0,1.6,0.2,2.2,0.6
				s1.1,0.9,1.4,1.6c0.3,0.7,0.5,1.5,0.5,2.4c0,0.2,0,0.4,0,0.6h-6.3c0.1,0.7,0.3,1.3,0.7,1.6c0.4,0.4,0.9,0.6,1.6,0.6
				c0.5,0,0.9-0.1,1.2-0.3c0.3-0.2,0.6-0.5,0.8-0.9l1.9,0.6c-0.2,0.5-0.5,1-0.9,1.3c-0.4,0.4-0.8,0.7-1.3,0.8
				C135.3,201.1,134.8,201.2,134.2,201.2z M136.2,195.8c-0.1-0.7-0.3-1.2-0.6-1.5c-0.3-0.3-0.8-0.5-1.4-0.5c-1.3,0-2,0.7-2.3,2
				H136.2z M46.9,224.3l4.9-4.4c0.4-0.3,0.6-0.6,0.8-0.9s0.2-0.6,0.2-0.9c0-0.4-0.1-0.7-0.2-1c-0.2-0.3-0.4-0.5-0.7-0.7
				c-0.3-0.2-0.6-0.3-1-0.3c-0.4,0-0.7,0.1-1.1,0.3c-0.3,0.2-0.5,0.4-0.7,0.7c-0.2,0.3-0.3,0.6-0.2,1h-2c0-0.8,0.2-1.4,0.5-2
				c0.3-0.6,0.8-1,1.4-1.3c0.6-0.3,1.3-0.5,2.1-0.5c0.7,0,1.4,0.2,2,0.5c0.6,0.3,1.1,0.8,1.4,1.4c0.3,0.6,0.5,1.2,0.5,2
				c0,0.5-0.1,1-0.2,1.4c-0.1,0.4-0.3,0.7-0.6,1c-0.3,0.3-0.7,0.7-1.2,1.1l-3,2.6h4.9v1.8h-7.9V224.3z M57.2,224h2v2h-2V224z
				 M72,226.2c-1.1,0-2.1-0.2-2.9-0.7c-0.8-0.5-1.5-1.2-1.9-2.1c-0.4-0.9-0.7-2-0.7-3.1c0-1.2,0.2-2.2,0.7-3.1
				c0.4-0.9,1.1-1.6,1.9-2.1c0.8-0.5,1.8-0.8,2.9-0.8c0.9,0,1.7,0.1,2.3,0.4c0.7,0.3,1.3,0.7,1.8,1.3c0.5,0.5,0.8,1.2,1.1,2
				l-1.9,0.5c-0.2-0.8-0.6-1.4-1.2-1.8c-0.5-0.4-1.2-0.6-2.1-0.6c-0.8,0-1.4,0.2-1.9,0.5c-0.5,0.3-0.9,0.8-1.2,1.5
				c-0.3,0.6-0.4,1.4-0.4,2.2c0,0.8,0.1,1.6,0.4,2.2c0.3,0.6,0.7,1.1,1.2,1.5c0.5,0.3,1.2,0.5,1.9,0.5c0.8,0,1.5-0.2,2.1-0.6
				s0.9-1,1.2-1.8l1.9,0.5c-0.2,0.8-0.6,1.4-1.1,2c-0.5,0.5-1.1,1-1.8,1.3C73.6,226.1,72.9,226.2,72,226.2z M84.9,221.8
				c0-1.9-0.7-2.9-2-2.9c-0.6,0-1.1,0.2-1.4,0.6c-0.4,0.4-0.6,1.1-0.6,2v4.4h-2v-11.5h1.7v3.8c0.3-0.4,0.7-0.7,1.2-0.9
				c0.5-0.2,1-0.3,1.6-0.3c1,0,1.7,0.2,2.2,0.7c0.5,0.5,0.8,1,1,1.6s0.2,1.2,0.2,1.7v4.8h-2V221.8z M92.9,226.2
				c-0.9,0-1.6-0.2-2.3-0.6c-0.7-0.4-1.2-0.9-1.6-1.6c-0.4-0.7-0.6-1.4-0.6-2.3c0-0.9,0.2-1.7,0.5-2.4c0.4-0.7,0.9-1.2,1.5-1.6
				c0.7-0.4,1.4-0.6,2.2-0.6c0.8,0,1.6,0.2,2.2,0.6c0.6,0.4,1.1,0.9,1.4,1.6c0.3,0.7,0.5,1.5,0.5,2.4c0,0.2,0,0.4,0,0.6h-6.3
				c0.1,0.7,0.3,1.3,0.7,1.6c0.4,0.4,0.9,0.6,1.6,0.6c0.5,0,0.9-0.1,1.2-0.3c0.3-0.2,0.6-0.5,0.8-0.9l1.9,0.6
				c-0.2,0.5-0.5,1-0.9,1.3c-0.4,0.4-0.8,0.7-1.3,0.8C94,226.1,93.4,226.2,92.9,226.2z M94.8,220.8c-0.1-0.7-0.3-1.2-0.6-1.5
				c-0.3-0.3-0.8-0.5-1.4-0.5c-1.3,0-2,0.7-2.3,2H94.8z M102.3,226.2c-0.9,0-1.6-0.2-2.3-0.6c-0.6-0.4-1.1-0.9-1.5-1.6
				c-0.3-0.7-0.5-1.5-0.5-2.4c0-0.9,0.2-1.7,0.5-2.4c0.3-0.7,0.8-1.2,1.5-1.6c0.6-0.4,1.4-0.6,2.3-0.6c0.7,0,1.2,0.1,1.8,0.3
				s1,0.5,1.3,1c0.4,0.4,0.6,0.9,0.7,1.5l-1.9,0.5c-0.1-0.5-0.4-0.8-0.7-1.1c-0.3-0.3-0.7-0.4-1.2-0.4c-0.7,0-1.3,0.3-1.6,0.8
				c-0.4,0.5-0.5,1.2-0.6,2c0,0.8,0.2,1.5,0.6,2c0.4,0.5,0.9,0.7,1.6,0.7c0.5,0,0.9-0.1,1.2-0.3c0.3-0.2,0.5-0.6,0.7-1l2,0.4
				c-0.3,0.9-0.7,1.6-1.4,2C104.1,226,103.3,226.2,102.3,226.2z M107.8,214.5h2v7l3.2-4.2h2.4l-3.4,4.3l3.6,4.3H113l-3.3-4.2v4.2h-2
				L107.8,214.5z M124.5,226.2c-1.1,0-2.1-0.2-2.9-0.7c-0.8-0.5-1.5-1.2-1.9-2.1c-0.4-0.9-0.7-2-0.7-3.1c0-1.2,0.2-2.2,0.7-3.1
				c0.4-0.9,1.1-1.6,1.9-2.1c0.8-0.5,1.8-0.8,2.9-0.8c0.9,0,1.7,0.1,2.3,0.4c0.7,0.3,1.3,0.7,1.8,1.3c0.5,0.5,0.8,1.2,1.1,2
				l-1.9,0.5c-0.2-0.8-0.6-1.4-1.2-1.8c-0.5-0.4-1.2-0.6-2.1-0.6c-0.8,0-1.4,0.2-1.9,0.5c-0.5,0.3-0.9,0.8-1.2,1.5
				c-0.3,0.6-0.4,1.4-0.4,2.2c0,0.8,0.1,1.6,0.4,2.2c0.3,0.6,0.7,1.1,1.2,1.5c0.5,0.3,1.2,0.5,1.9,0.5c0.8,0,1.5-0.2,2.1-0.6
				s0.9-1,1.2-1.8l1.9,0.5c-0.2,0.8-0.6,1.4-1.1,2c-0.5,0.5-1.1,1-1.8,1.3C126.1,226.1,125.3,226.2,124.5,226.2z M136.3,226.2
				c-1.1,0-2.1-0.2-2.9-0.7c-0.8-0.5-1.5-1.2-1.9-2.1c-0.4-0.9-0.7-2-0.7-3.1c0-1.2,0.2-2.2,0.7-3.1c0.4-0.9,1.1-1.6,1.9-2.1
				c0.8-0.5,1.8-0.8,2.9-0.8c1.1,0,2.1,0.3,2.9,0.8c0.8,0.5,1.5,1.2,1.9,2.1c0.4,0.9,0.7,2,0.7,3.1c0,1.2-0.2,2.2-0.7,3.1
				c-0.4,0.9-1.1,1.6-1.9,2.1C138.4,226,137.4,226.2,136.3,226.2z M132.8,220.3c0,0.8,0.1,1.6,0.4,2.2c0.3,0.6,0.7,1.1,1.2,1.4
				c0.5,0.3,1.2,0.5,1.9,0.5c0.7,0,1.4-0.2,1.9-0.5c0.5-0.3,0.9-0.8,1.2-1.5s0.4-1.4,0.4-2.2c0-0.9-0.1-1.6-0.4-2.2
				c-0.3-0.6-0.7-1.1-1.2-1.5c-0.5-0.3-1.2-0.5-1.9-0.5c-0.8,0-1.4,0.2-1.9,0.5c-0.5,0.3-0.9,0.8-1.2,1.5
				C132.9,218.7,132.8,219.4,132.8,220.3z M141.9,214.5h2l3,9.6l3.1-9.6h2l-3.6,11.5h-2.8L141.9,214.5z M153.3,214.5h1.9V226h-1.9
				V214.5z M157.6,214.5h3.7c0.6,0,1,0,1.4,0.1c0.9,0.1,1.7,0.4,2.3,1c0.6,0.5,1.1,1.2,1.5,2c0.3,0.8,0.5,1.7,0.5,2.7
				c0,1-0.2,1.9-0.5,2.7c-0.3,0.8-0.8,1.5-1.5,2c-0.6,0.5-1.4,0.8-2.3,1c-0.4,0-0.8,0.1-1.4,0.1h-3.7V214.5z M161.3,224.2
				c0.6,0,1,0,1.3-0.1c0.5-0.1,1-0.3,1.3-0.7c0.4-0.4,0.6-0.8,0.8-1.4c0.2-0.5,0.2-1.1,0.2-1.8c0-0.6-0.1-1.2-0.3-1.8
				c-0.2-0.5-0.4-1-0.8-1.4c-0.3-0.4-0.8-0.6-1.3-0.7c-0.3-0.1-0.7-0.1-1.3-0.1h-1.7v7.9H161.3z M168.7,220.2h4.8v1.5h-4.8V220.2z
				 M177.6,216.6l-2.2,1.3v-2.1l2.2-1.3h2V226h-2V216.6z M186.3,214.3c0.7,0,1.4,0.2,2,0.5c0.6,0.4,1.1,0.9,1.4,1.5
				c0.4,0.6,0.5,1.4,0.5,2.2v3.5c0,0.9-0.2,1.6-0.5,2.3c-0.3,0.6-0.8,1.1-1.5,1.5c-0.6,0.4-1.4,0.5-2.2,0.5c-0.6,0-1.2-0.1-1.7-0.3
				c-0.5-0.2-1-0.5-1.4-0.9l1.4-1.4c0.2,0.2,0.5,0.4,0.7,0.6c0.3,0.1,0.6,0.2,0.9,0.2c0.4,0,0.8-0.1,1.2-0.3
				c0.3-0.2,0.6-0.5,0.8-0.8c0.2-0.3,0.3-0.7,0.3-1.1V221c-0.3,0.3-0.7,0.5-1.1,0.6s-0.8,0.2-1.2,0.2c-0.7,0-1.3-0.2-1.9-0.5
				c-0.6-0.3-1-0.8-1.3-1.4c-0.3-0.6-0.5-1.2-0.5-1.9c0-0.7,0.2-1.4,0.5-1.9c0.4-0.6,0.8-1.1,1.5-1.4
				C184.9,214.4,185.6,214.3,186.3,214.3z M184.3,218.1c0,0.4,0.1,0.7,0.3,1c0.2,0.3,0.4,0.6,0.7,0.7c0.3,0.2,0.6,0.3,1,0.3
				c0.4,0,0.7-0.1,1-0.3c0.3-0.2,0.6-0.4,0.7-0.7c0.2-0.3,0.3-0.7,0.3-1c0-0.4-0.1-0.7-0.3-1c-0.2-0.3-0.4-0.6-0.7-0.7
				c-0.3-0.2-0.6-0.3-1-0.3s-0.7,0.1-1,0.3c-0.3,0.2-0.6,0.4-0.7,0.7C184.3,217.4,184.3,217.8,184.3,218.1z M200,226.2
				c-0.8,0-1.6-0.1-2.3-0.4c-0.7-0.3-1.2-0.7-1.7-1.3c-0.4-0.5-0.7-1.2-0.8-1.9l2-0.3c0.1,0.4,0.3,0.8,0.6,1.2
				c0.3,0.3,0.6,0.6,1,0.7c0.4,0.2,0.8,0.2,1.3,0.2c0.4,0,0.8-0.1,1.2-0.2c0.4-0.1,0.7-0.3,0.9-0.6c0.2-0.3,0.3-0.5,0.3-0.9
				c0-0.3-0.1-0.6-0.3-0.8c-0.2-0.2-0.5-0.4-1-0.5l-3-0.9c-0.4-0.1-0.9-0.3-1.2-0.5c-0.4-0.2-0.7-0.5-1-0.9
				c-0.3-0.4-0.4-0.9-0.4-1.5c0-0.7,0.2-1.3,0.5-1.8c0.4-0.5,0.9-0.9,1.5-1.1c0.6-0.3,1.3-0.4,2.1-0.4c0.8,0,1.5,0.1,2.1,0.4
				c0.6,0.3,1.2,0.6,1.6,1.2c0.4,0.5,0.7,1.1,0.9,1.8l-2.1,0.4c-0.1-0.4-0.3-0.7-0.5-1c-0.2-0.3-0.6-0.5-0.9-0.7
				c-0.4-0.2-0.7-0.2-1.1-0.2c-0.4,0-0.7,0.1-1,0.2c-0.3,0.1-0.6,0.3-0.8,0.5c-0.2,0.2-0.3,0.5-0.3,0.8c0,0.4,0.1,0.7,0.4,0.9
				c0.3,0.2,0.7,0.4,1.2,0.5l2.1,0.6c0.5,0.1,1,0.3,1.5,0.5c0.4,0.2,0.8,0.5,1.1,0.9c0.3,0.4,0.5,1,0.5,1.7c0,0.8-0.2,1.4-0.6,2
				c-0.4,0.5-1,0.9-1.6,1.2S200.8,226.2,200,226.2z M208.6,225.9l-3.5-8.6h2l2.4,6.2l2.3-6.2h1.9l-4.8,12.5h-1.8L208.6,225.9z
				 M225.4,220.8c0-0.6-0.1-1-0.4-1.4c-0.3-0.3-0.7-0.5-1.2-0.5c-0.3,0-0.6,0.1-0.8,0.2c-0.2,0.1-0.4,0.4-0.6,0.6
				c-0.1,0.3-0.2,0.6-0.2,1v5.3h-1.9v-5.2c0-0.6-0.1-1.1-0.4-1.4c-0.3-0.3-0.7-0.5-1.2-0.5c-0.3,0-0.6,0.1-0.9,0.2
				c-0.2,0.1-0.4,0.4-0.6,0.6c-0.1,0.3-0.2,0.6-0.2,0.9v5.3H215v-8.6h1.7v0.9c0.3-0.4,0.6-0.6,1.1-0.8c0.4-0.2,0.9-0.3,1.4-0.3
				c0.6,0,1.1,0.1,1.5,0.4c0.4,0.2,0.8,0.6,1,1c0.3-0.4,0.6-0.8,1.1-1c0.5-0.2,1-0.4,1.5-0.4c0.6,0,1.2,0.1,1.6,0.4
				c0.4,0.3,0.8,0.6,1,1.1c0.2,0.5,0.3,1,0.3,1.6v5.7h-1.9V220.8z M233.6,226.2c-0.9,0-1.6-0.2-2.2-0.7v4.3h-1.9v-12.5h1.7v0.6
				c0.6-0.6,1.4-0.9,2.4-0.9c0.8,0,1.5,0.2,2.1,0.6c0.6,0.4,1.1,0.9,1.4,1.6c0.3,0.7,0.5,1.5,0.5,2.3c0,0.9-0.2,1.6-0.5,2.3
				c-0.3,0.7-0.8,1.2-1.4,1.6C235,226,234.3,226.2,233.6,226.2z M231.1,221.7c0,0.9,0.2,1.6,0.5,2.1c0.4,0.5,0.9,0.8,1.6,0.8
				c0.5,0,0.9-0.1,1.2-0.4c0.3-0.2,0.6-0.6,0.7-1c0.2-0.4,0.2-0.9,0.2-1.5c0-0.5-0.1-1-0.2-1.4c-0.2-0.4-0.4-0.8-0.8-1
				c-0.3-0.3-0.8-0.4-1.3-0.4c-0.7,0-1.2,0.3-1.6,0.8C231.3,220.1,231.1,220.8,231.1,221.7z M244.3,226c-0.5,0.1-1,0.2-1.5,0.2
				c-0.6,0-1.2-0.1-1.6-0.3c-0.5-0.2-0.8-0.5-1-0.9c-0.1-0.3-0.2-0.5-0.3-0.8c0-0.3-0.1-0.6-0.1-1l0-0.7v-3.6h-1.6v-1.5h1.6V215h1.9
				v2.4h2.5v1.5h-2.5v3.5v0.5c0,0.3,0,0.5,0,0.7c0,0.2,0.1,0.3,0.1,0.4c0.1,0.2,0.3,0.3,0.5,0.4c0.2,0.1,0.5,0.1,0.8,0.1
				c0.3,0,0.6,0,1-0.1V226z M249.6,226.2c-0.9,0-1.6-0.2-2.3-0.6c-0.7-0.4-1.2-0.9-1.5-1.6c-0.4-0.7-0.5-1.5-0.5-2.4
				c0-0.9,0.2-1.7,0.5-2.4c0.4-0.7,0.9-1.2,1.5-1.6c0.6-0.4,1.4-0.6,2.2-0.6c0.9,0,1.6,0.2,2.3,0.6c0.6,0.4,1.2,0.9,1.5,1.6
				c0.4,0.7,0.5,1.5,0.5,2.4c0,0.9-0.2,1.7-0.5,2.4c-0.4,0.7-0.9,1.2-1.5,1.6C251.2,226,250.4,226.2,249.6,226.2z M247.3,221.7
				c0,0.9,0.2,1.5,0.6,2c0.4,0.5,0.9,0.7,1.7,0.7c0.7,0,1.3-0.2,1.7-0.7c0.4-0.5,0.6-1.2,0.6-2c0-0.9-0.2-1.5-0.6-2
				c-0.4-0.5-0.9-0.7-1.7-0.7c-0.8,0-1.3,0.2-1.7,0.7C247.5,220.2,247.3,220.8,247.3,221.7z M266,220.8c0-0.6-0.1-1-0.4-1.4
				c-0.3-0.3-0.7-0.5-1.2-0.5c-0.3,0-0.6,0.1-0.8,0.2c-0.2,0.1-0.4,0.4-0.6,0.6c-0.1,0.3-0.2,0.6-0.2,1v5.3h-1.9v-5.2
				c0-0.6-0.1-1.1-0.4-1.4c-0.3-0.3-0.7-0.5-1.2-0.5c-0.3,0-0.6,0.1-0.9,0.2c-0.2,0.1-0.4,0.4-0.6,0.6c-0.1,0.3-0.2,0.6-0.2,0.9v5.3
				h-1.9v-8.6h1.7v0.9c0.3-0.4,0.6-0.6,1.1-0.8c0.4-0.2,0.9-0.3,1.4-0.3c0.6,0,1.1,0.1,1.5,0.4c0.4,0.2,0.8,0.6,1,1
				c0.3-0.4,0.6-0.8,1.1-1c0.5-0.2,1-0.4,1.5-0.4c0.6,0,1.2,0.1,1.6,0.4c0.4,0.3,0.8,0.6,1,1.1c0.2,0.5,0.3,1,0.3,1.6v5.7H266V220.8
				z M273.4,226.2c-1.1,0-1.9-0.2-2.6-0.7c-0.7-0.5-1.1-1.2-1.2-2l2-0.3c0.1,0.4,0.3,0.8,0.7,1c0.4,0.2,0.8,0.4,1.3,0.4
				c0.5,0,0.8-0.1,1.1-0.3c0.3-0.2,0.4-0.4,0.4-0.8c0-0.2-0.1-0.4-0.2-0.5c-0.1-0.1-0.3-0.2-0.6-0.3c-0.3-0.1-0.8-0.3-1.5-0.4
				c-0.7-0.2-1.3-0.4-1.7-0.6c-0.4-0.2-0.7-0.5-0.9-0.8c-0.2-0.3-0.3-0.7-0.3-1.1c0-0.5,0.1-1,0.4-1.4c0.3-0.4,0.7-0.7,1.2-0.9
				c0.5-0.2,1.1-0.3,1.8-0.3c0.7,0,1.3,0.1,1.8,0.3c0.5,0.2,0.9,0.5,1.3,0.9c0.3,0.4,0.5,0.8,0.6,1.3l-2,0.4
				c-0.1-0.4-0.2-0.7-0.5-0.9c-0.3-0.2-0.7-0.3-1.1-0.4c-0.5,0-0.8,0.1-1.1,0.2c-0.3,0.2-0.4,0.4-0.4,0.7c0,0.2,0.1,0.3,0.2,0.4
				c0.1,0.1,0.3,0.2,0.7,0.3c0.3,0.1,0.8,0.3,1.5,0.4c0.7,0.2,1.3,0.4,1.7,0.6c0.4,0.2,0.7,0.5,0.9,0.8c0.2,0.3,0.3,0.7,0.3,1.1
				c0,0.6-0.1,1.1-0.4,1.5c-0.3,0.4-0.7,0.7-1.2,1C274.7,226.1,274.1,226.2,273.4,226.2z M50.6,251.2c-0.6,0-1.1-0.1-1.6-0.3
				c-0.5-0.2-1-0.5-1.3-1c-0.4-0.4-0.6-0.9-0.8-1.4l1.9-0.5c0.1,0.4,0.4,0.8,0.7,1c0.3,0.3,0.7,0.4,1.2,0.4c0.4,0,0.7-0.1,1-0.3
				c0.3-0.2,0.5-0.4,0.7-0.7c0.2-0.3,0.3-0.6,0.3-1s-0.1-0.7-0.3-1c-0.2-0.3-0.4-0.6-0.7-0.7c-0.3-0.2-0.6-0.3-1-0.3
				c-0.3,0-0.7,0.1-1,0.3l-0.9-1.5l3.3-2.8h-4.8v-1.8h7.1v1.8l-2.6,2.5c0.6,0.1,1.1,0.3,1.5,0.7c0.4,0.3,0.7,0.8,1,1.3
				c0.2,0.5,0.3,1,0.3,1.6c0,0.7-0.2,1.4-0.5,1.9c-0.4,0.6-0.8,1-1.4,1.4C52,251.1,51.3,251.2,50.6,251.2z M57.2,249h2v2h-2V249z
				 M67.3,239.5h1.9v9.7h5.1v1.8h-7V239.5z M91,246.8c0-1.9-0.7-2.9-2-2.9c-0.6,0-1.1,0.2-1.4,0.6c-0.4,0.4-0.6,1.1-0.6,2v4.4h-2
				v-8.6h1.7v1c0.3-0.4,0.7-0.7,1.2-0.9c0.5-0.2,1-0.3,1.6-0.3c1,0,1.7,0.2,2.2,0.7c0.5,0.5,0.8,1,1,1.6c0.1,0.6,0.2,1.2,0.2,1.7
				v4.8h-2V246.8z M98.5,255.1c-0.7,0-1.4-0.2-2-0.5c-0.6-0.3-1.1-0.8-1.4-1.4l1.8-0.9c0.2,0.3,0.4,0.5,0.7,0.7
				c0.3,0.2,0.6,0.2,1,0.2c0.6,0,1.1-0.2,1.5-0.5c0.4-0.3,0.6-0.8,0.6-1.4v-0.8c-0.6,0.5-1.4,0.7-2.2,0.7c-0.8,0-1.5-0.2-2.1-0.6
				c-0.6-0.4-1.1-0.9-1.4-1.6c-0.3-0.7-0.5-1.5-0.5-2.3c0-0.9,0.2-1.7,0.5-2.3c0.3-0.7,0.8-1.2,1.4-1.6c0.6-0.4,1.3-0.6,2.1-0.6
				c1,0,1.8,0.3,2.4,0.9v-0.6h1.7v9.1c0,0.5,0,0.9-0.1,1.2c-0.2,0.8-0.6,1.4-1.3,1.8C100.4,254.9,99.5,255.1,98.5,255.1z
				 M96.4,246.7c0,0.5,0.1,1,0.2,1.5c0.2,0.4,0.4,0.8,0.7,1c0.3,0.2,0.7,0.4,1.2,0.4c0.7,0,1.3-0.3,1.6-0.8c0.4-0.5,0.5-1.2,0.5-2.1
				c0-0.9-0.2-1.6-0.5-2.1c-0.3-0.5-0.9-0.8-1.6-0.8c-0.5,0-0.9,0.1-1.3,0.4c-0.3,0.2-0.6,0.6-0.8,1
				C96.5,245.7,96.4,246.1,96.4,246.7z M108,251.2c-1,0-1.7-0.2-2.2-0.7c-0.5-0.5-0.8-1-1-1.6c-0.1-0.6-0.2-1.2-0.2-1.7v-4.8h2v4.2
				c0,1.9,0.7,2.9,2,2.9c0.6,0,1.1-0.2,1.4-0.6c0.4-0.4,0.6-1.1,0.6-2v-4.4h1.9v8.6h-1.7v-1c-0.3,0.4-0.7,0.7-1.2,0.9
				C109.1,251.1,108.6,251.2,108,251.2z M117.2,251.2c-0.6,0-1.1-0.1-1.6-0.3c-0.4-0.2-0.8-0.5-1-0.9c-0.2-0.4-0.3-0.8-0.3-1.3
				c0-0.6,0.2-1.2,0.5-1.6c0.3-0.4,0.8-0.8,1.5-1c0.4-0.1,0.8-0.2,1.3-0.3c0.5-0.1,1.2-0.2,2.1-0.3l0.3,0c0-0.5-0.2-0.9-0.5-1.1
				c-0.3-0.2-0.7-0.4-1.3-0.4c-0.4,0-0.8,0.1-1.2,0.3c-0.3,0.2-0.6,0.5-0.7,0.9l-1.8-0.6c0.2-0.8,0.6-1.3,1.2-1.8
				c0.6-0.4,1.4-0.6,2.4-0.6c0.8,0,1.5,0.1,2.1,0.4c0.6,0.3,1,0.7,1.3,1.2c0.1,0.3,0.2,0.6,0.3,0.9c0,0.3,0.1,0.7,0.1,1.1v5.3h-1.7
				v-1.2c-0.4,0.5-0.8,0.8-1.3,1.1C118.4,251.1,117.9,251.2,117.2,251.2z M116.2,248.6c0,0.3,0.1,0.6,0.4,0.8c0.2,0.2,0.6,0.3,1,0.3
				c0.4,0,0.8-0.1,1.1-0.2c0.3-0.1,0.6-0.3,0.8-0.6c0.2-0.2,0.3-0.4,0.4-0.7c0.1-0.3,0.2-0.7,0.2-1.3c-0.8,0.1-1.4,0.2-1.8,0.3
				c-0.4,0.1-0.7,0.1-1,0.2c-0.3,0.1-0.6,0.3-0.8,0.5C116.3,248.1,116.2,248.3,116.2,248.6z M127.6,255.1c-0.7,0-1.4-0.2-2-0.5
				c-0.6-0.3-1.1-0.8-1.4-1.4l1.8-0.9c0.2,0.3,0.4,0.5,0.7,0.7c0.3,0.2,0.6,0.2,1,0.2c0.6,0,1.1-0.2,1.5-0.5
				c0.4-0.3,0.6-0.8,0.6-1.4v-0.8c-0.6,0.5-1.4,0.7-2.2,0.7c-0.8,0-1.5-0.2-2.1-0.6c-0.6-0.4-1.1-0.9-1.4-1.6
				c-0.3-0.7-0.5-1.5-0.5-2.3c0-0.9,0.2-1.7,0.5-2.3c0.3-0.7,0.8-1.2,1.4-1.6c0.6-0.4,1.3-0.6,2.1-0.6c1,0,1.8,0.3,2.4,0.9v-0.6h1.7
				v9.1c0,0.5,0,0.9-0.1,1.2c-0.2,0.8-0.6,1.4-1.3,1.8C129.5,254.9,128.6,255.1,127.6,255.1z M125.5,246.7c0,0.5,0.1,1,0.2,1.5
				c0.2,0.4,0.4,0.8,0.7,1c0.3,0.2,0.7,0.4,1.2,0.4c0.7,0,1.3-0.3,1.6-0.8c0.4-0.5,0.5-1.2,0.5-2.1c0-0.9-0.2-1.6-0.5-2.1
				c-0.3-0.5-0.9-0.8-1.6-0.8c-0.5,0-0.9,0.1-1.3,0.4c-0.3,0.2-0.6,0.6-0.8,1C125.6,245.7,125.5,246.1,125.5,246.7z M137.8,251.2
				c-0.9,0-1.6-0.2-2.3-0.6c-0.7-0.4-1.2-0.9-1.6-1.6c-0.4-0.7-0.6-1.4-0.6-2.3c0-0.9,0.2-1.7,0.5-2.4c0.4-0.7,0.9-1.2,1.5-1.6
				c0.7-0.4,1.4-0.6,2.2-0.6c0.8,0,1.6,0.2,2.2,0.6s1.1,0.9,1.4,1.6c0.3,0.7,0.5,1.5,0.5,2.4c0,0.2,0,0.4,0,0.6h-6.3
				c0.1,0.7,0.3,1.3,0.7,1.6c0.4,0.4,0.9,0.6,1.6,0.6c0.5,0,0.9-0.1,1.2-0.3c0.3-0.2,0.6-0.5,0.8-0.9l1.9,0.6
				c-0.2,0.5-0.5,1-0.9,1.3c-0.4,0.4-0.8,0.7-1.3,0.8C138.8,251.1,138.3,251.2,137.8,251.2z M139.7,245.8c-0.1-0.7-0.3-1.2-0.6-1.5
				c-0.3-0.3-0.8-0.5-1.4-0.5c-1.3,0-2,0.7-2.3,2H139.7z M52,274.1h-5.1v-1.8l3.7-7.8h2.2l-3.7,7.8H52v-3h2v3H55v1.8h-1.1v1.9h-2
				V274.1z M57.2,274h2v2h-2V274z M67.1,264.5H69v4.8h5.5v-4.8h1.9V276h-1.9v-4.9H69v4.9h-1.9V264.5z M82.6,276.2
				c-0.9,0-1.6-0.2-2.3-0.6c-0.7-0.4-1.2-0.9-1.6-1.6c-0.4-0.7-0.6-1.4-0.6-2.3c0-0.9,0.2-1.7,0.5-2.4c0.4-0.7,0.9-1.2,1.5-1.6
				c0.7-0.4,1.4-0.6,2.2-0.6c0.8,0,1.6,0.2,2.2,0.6s1.1,0.9,1.4,1.6c0.3,0.7,0.5,1.5,0.5,2.4c0,0.2,0,0.4,0,0.6h-6.3
				c0.1,0.7,0.3,1.3,0.7,1.6c0.4,0.4,0.9,0.6,1.6,0.6c0.5,0,0.9-0.1,1.2-0.3c0.3-0.2,0.6-0.5,0.8-0.9l1.9,0.6
				c-0.2,0.5-0.5,1-0.9,1.3c-0.4,0.4-0.8,0.7-1.3,0.8C83.7,276.1,83.1,276.2,82.6,276.2z M84.6,270.8c-0.1-0.7-0.3-1.2-0.6-1.5
				c-0.3-0.3-0.8-0.5-1.4-0.5c-1.3,0-2,0.7-2.3,2H84.6z M88.5,264.5h1.9V276h-1.9V264.5z M96.9,276.2c-0.9,0-1.6-0.2-2.2-0.7v4.3
				h-1.9v-12.5h1.7v0.6c0.6-0.6,1.4-0.9,2.4-0.9c0.8,0,1.5,0.2,2.1,0.6c0.6,0.4,1.1,0.9,1.4,1.6c0.3,0.7,0.5,1.5,0.5,2.3
				c0,0.9-0.2,1.6-0.5,2.3c-0.3,0.7-0.8,1.2-1.4,1.6C98.4,276,97.7,276.2,96.9,276.2z M94.5,271.7c0,0.9,0.2,1.6,0.5,2.1
				c0.4,0.5,0.9,0.8,1.6,0.8c0.5,0,0.9-0.1,1.2-0.4c0.3-0.2,0.6-0.6,0.7-1c0.2-0.4,0.2-0.9,0.2-1.5c0-0.5-0.1-1-0.2-1.4
				c-0.2-0.4-0.4-0.8-0.8-1c-0.3-0.3-0.8-0.4-1.3-0.4c-0.7,0-1.2,0.3-1.6,0.8C94.6,270.1,94.5,270.8,94.5,271.7z"/>
			<g>
				<path d="M78.6,251.2c-0.6,0-1.1-0.1-1.6-0.3c-0.4-0.2-0.8-0.5-1-0.9c-0.2-0.4-0.3-0.8-0.3-1.3c0-0.6,0.2-1.2,0.5-1.6
					c0.3-0.4,0.8-0.8,1.5-1c0.4-0.1,0.8-0.2,1.3-0.3c0.5-0.1,1.2-0.2,2.1-0.3l0.3,0c0-0.5-0.2-0.9-0.5-1.1c-0.3-0.2-0.7-0.4-1.3-0.4
					c-0.4,0-0.8,0.1-1.2,0.3c-0.3,0.2-0.6,0.5-0.7,0.9l-1.8-0.6c0.2-0.8,0.6-1.3,1.2-1.8c0.6-0.4,1.4-0.6,2.4-0.6
					c0.8,0,1.5,0.1,2.1,0.4c0.6,0.3,1,0.7,1.3,1.2c0.1,0.3,0.2,0.6,0.3,0.9c0,0.3,0.1,0.7,0.1,1.1v5.3h-1.7v-1.2
					c-0.4,0.5-0.8,0.8-1.3,1.1C79.9,251.1,79.3,251.2,78.6,251.2z"/>
				<path class="st20" d="M77.6,248.6c0,0.3,0.1,0.6,0.4,0.8c0.2,0.2,0.6,0.3,1,0.3c0.4,0,0.8-0.1,1.1-0.2c0.3-0.1,0.6-0.3,0.8-0.6
					c0.2-0.2,0.3-0.4,0.4-0.7c0.1-0.3,0.2-0.7,0.2-1.3c-0.8,0.1-1.4,0.2-1.8,0.3c-0.4,0.1-0.7,0.1-1,0.2c-0.3,0.1-0.6,0.3-0.8,0.5
					C77.7,248.1,77.6,248.3,77.6,248.6z"/>
			</g>
		</g>
	</g>
</g>
<g id="Layer_2">
</g>
</svg>
